%
M48
M72
T01C0.02362
T02C0.03200
T03C0.04400
T04C0.05906
%
T01
X199550Y12550
X179800Y23050
X179800Y28300
X165550Y26800
X159800Y33300
X165550Y38050
X165550Y43300
X148300Y35550
X136300Y32050
X116800Y41550
X116800Y48050
X102050Y51550
X96050Y44800
X88300Y44800
X83050Y41550
X96050Y37800
X105050Y35300
X102050Y28550
X108800Y24300
X100050Y17800
X113800Y14550
X134050Y18300
X157550Y14550
X185550Y55300
X181800Y65800
X166050Y55300
X150800Y58550
X136944Y57083
X136944Y61893
X139550Y70800
X139550Y79300
X139550Y86800
X119800Y94050
X100050Y104300
X95300Y104300
X89300Y99300
X89300Y94050
X93300Y83300
X78361Y82169
X72800Y84050
X72800Y88550
X72800Y93050
X58550Y101050
X61800Y115800
X67550Y128300
X67300Y136550
X89300Y124800
X99050Y121050
X99050Y116550
X95300Y111800
X84300Y112800
X110800Y108050
X119943Y112657
X127550Y112550
X127550Y117050
X120550Y125300
X111550Y116550
X145050Y127050
X150550Y127050
X155175Y122675
X157300Y114300
X152050Y114300
X174300Y125550
X181050Y127550
X181050Y133050
X194550Y127550
X202106Y138744
X190050Y113800
X182550Y113800
X175050Y110550
X188300Y100800
X195050Y108050
X172050Y99800
X167550Y99800
X163050Y99800
X175300Y92550
X117300Y60050
X96050Y71050
X79550Y57050
X86300Y51550
X92550Y51550
X58050Y59800
X45550Y58300
X32800Y71050
X18800Y72800
X18800Y63550
X18800Y58800
X47300Y84050
X28050Y96550
X18550Y96550
X88300Y29800
X75050Y24550
X70300Y24550
X85800Y17050
X85800Y12550
T02
X31757Y130611
X21757Y130611
X11757Y130611
T03
X195800Y41800
X195800Y51800
X195800Y61800
X195800Y71800
T04
X197800Y28800
X14800Y117800
M30
