G75*
%MOIN*%
%OFA0B0*%
%FSLAX25Y25*%
%IPPOS*%
%LPD*%
%AMOC8*
5,1,8,0,0,1.08239X$1,22.5*
%
%ADD10C,0.00000*%
%ADD11R,0.06299X0.03150*%
%ADD12R,0.03150X0.06299*%
%ADD13R,0.04724X0.05512*%
%ADD14R,0.06299X0.07087*%
%ADD15R,0.05512X0.04724*%
%ADD16R,0.02165X0.04724*%
%ADD17R,0.05512X0.06299*%
%ADD18R,0.06299X0.05512*%
%ADD19R,0.08000X0.05000*%
%ADD20C,0.05200*%
%ADD21R,0.05512X0.03937*%
%ADD22R,0.04961X0.01417*%
%ADD23R,0.07087X0.06299*%
%ADD24R,0.05000X0.02200*%
%ADD25R,0.02200X0.05000*%
%ADD26R,0.09449X0.07480*%
%ADD27R,0.05500X0.01370*%
%ADD28R,0.05315X0.03937*%
%ADD29C,0.07400*%
%ADD30C,0.01600*%
%ADD31C,0.00800*%
%ADD32C,0.01200*%
%ADD33R,0.03562X0.03562*%
D10*
X0012311Y0006800D02*
X0202587Y0006800D01*
X0202727Y0006802D01*
X0202867Y0006808D01*
X0203007Y0006818D01*
X0203147Y0006831D01*
X0203286Y0006849D01*
X0203425Y0006871D01*
X0203562Y0006896D01*
X0203700Y0006925D01*
X0203836Y0006958D01*
X0203971Y0006995D01*
X0204105Y0007036D01*
X0204238Y0007081D01*
X0204370Y0007129D01*
X0204500Y0007181D01*
X0204629Y0007236D01*
X0204756Y0007295D01*
X0204882Y0007358D01*
X0205006Y0007424D01*
X0205127Y0007493D01*
X0205247Y0007566D01*
X0205365Y0007643D01*
X0205480Y0007722D01*
X0205594Y0007805D01*
X0205704Y0007891D01*
X0205813Y0007980D01*
X0205919Y0008072D01*
X0206022Y0008167D01*
X0206123Y0008264D01*
X0206220Y0008365D01*
X0206315Y0008468D01*
X0206407Y0008574D01*
X0206496Y0008683D01*
X0206582Y0008793D01*
X0206665Y0008907D01*
X0206744Y0009022D01*
X0206821Y0009140D01*
X0206894Y0009260D01*
X0206963Y0009381D01*
X0207029Y0009505D01*
X0207092Y0009631D01*
X0207151Y0009758D01*
X0207206Y0009887D01*
X0207258Y0010017D01*
X0207306Y0010149D01*
X0207351Y0010282D01*
X0207392Y0010416D01*
X0207429Y0010551D01*
X0207462Y0010687D01*
X0207491Y0010825D01*
X0207516Y0010962D01*
X0207538Y0011101D01*
X0207556Y0011240D01*
X0207569Y0011380D01*
X0207579Y0011520D01*
X0207585Y0011660D01*
X0207587Y0011800D01*
X0207587Y0139595D01*
X0207585Y0139735D01*
X0207579Y0139875D01*
X0207569Y0140015D01*
X0207556Y0140155D01*
X0207538Y0140294D01*
X0207516Y0140433D01*
X0207491Y0140570D01*
X0207462Y0140708D01*
X0207429Y0140844D01*
X0207392Y0140979D01*
X0207351Y0141113D01*
X0207306Y0141246D01*
X0207258Y0141378D01*
X0207206Y0141508D01*
X0207151Y0141637D01*
X0207092Y0141764D01*
X0207029Y0141890D01*
X0206963Y0142014D01*
X0206894Y0142135D01*
X0206821Y0142255D01*
X0206744Y0142373D01*
X0206665Y0142488D01*
X0206582Y0142602D01*
X0206496Y0142712D01*
X0206407Y0142821D01*
X0206315Y0142927D01*
X0206220Y0143030D01*
X0206123Y0143131D01*
X0206022Y0143228D01*
X0205919Y0143323D01*
X0205813Y0143415D01*
X0205704Y0143504D01*
X0205594Y0143590D01*
X0205480Y0143673D01*
X0205365Y0143752D01*
X0205247Y0143829D01*
X0205127Y0143902D01*
X0205006Y0143971D01*
X0204882Y0144037D01*
X0204756Y0144100D01*
X0204629Y0144159D01*
X0204500Y0144214D01*
X0204370Y0144266D01*
X0204238Y0144314D01*
X0204105Y0144359D01*
X0203971Y0144400D01*
X0203836Y0144437D01*
X0203700Y0144470D01*
X0203562Y0144499D01*
X0203425Y0144524D01*
X0203286Y0144546D01*
X0203147Y0144564D01*
X0203007Y0144577D01*
X0202867Y0144587D01*
X0202727Y0144593D01*
X0202587Y0144595D01*
X0011819Y0144595D01*
X0011678Y0144593D01*
X0011538Y0144588D01*
X0011397Y0144578D01*
X0011257Y0144564D01*
X0011117Y0144547D01*
X0010978Y0144526D01*
X0010839Y0144500D01*
X0010702Y0144471D01*
X0010565Y0144438D01*
X0010429Y0144401D01*
X0010294Y0144360D01*
X0010160Y0144316D01*
X0010028Y0144268D01*
X0009897Y0144216D01*
X0009768Y0144160D01*
X0009640Y0144101D01*
X0009514Y0144038D01*
X0009389Y0143972D01*
X0009267Y0143902D01*
X0009147Y0143829D01*
X0009029Y0143752D01*
X0008913Y0143673D01*
X0008799Y0143590D01*
X0008687Y0143503D01*
X0008578Y0143414D01*
X0008472Y0143322D01*
X0008368Y0143226D01*
X0008267Y0143128D01*
X0008169Y0143027D01*
X0008074Y0142924D01*
X0007982Y0142817D01*
X0007892Y0142708D01*
X0007806Y0142597D01*
X0007723Y0142483D01*
X0007643Y0142367D01*
X0007567Y0142249D01*
X0007493Y0142129D01*
X0007424Y0142006D01*
X0007357Y0141882D01*
X0007294Y0141756D01*
X0007235Y0141628D01*
X0007180Y0141499D01*
X0007128Y0141368D01*
X0007079Y0141236D01*
X0007035Y0141102D01*
X0006994Y0140967D01*
X0006957Y0140831D01*
X0006924Y0140694D01*
X0006895Y0140557D01*
X0006870Y0140418D01*
X0006848Y0140279D01*
X0006831Y0140139D01*
X0006817Y0139999D01*
X0006807Y0139858D01*
X0006802Y0139718D01*
X0006800Y0139577D01*
X0006800Y0011780D01*
X0006810Y0011636D01*
X0006823Y0011492D01*
X0006841Y0011348D01*
X0006862Y0011205D01*
X0006888Y0011063D01*
X0006917Y0010921D01*
X0006950Y0010780D01*
X0006987Y0010641D01*
X0007028Y0010502D01*
X0007073Y0010364D01*
X0007121Y0010228D01*
X0007173Y0010093D01*
X0007229Y0009959D01*
X0007289Y0009828D01*
X0007352Y0009697D01*
X0007418Y0009569D01*
X0007488Y0009442D01*
X0007562Y0009318D01*
X0007639Y0009195D01*
X0007719Y0009075D01*
X0007803Y0008957D01*
X0007890Y0008841D01*
X0007980Y0008728D01*
X0008073Y0008617D01*
X0008169Y0008509D01*
X0008268Y0008404D01*
X0008370Y0008301D01*
X0008474Y0008201D01*
X0008581Y0008104D01*
X0008691Y0008010D01*
X0008804Y0007919D01*
X0008919Y0007831D01*
X0009036Y0007747D01*
X0009156Y0007665D01*
X0009278Y0007587D01*
X0009402Y0007512D01*
X0009527Y0007441D01*
X0009655Y0007373D01*
X0009785Y0007309D01*
X0009916Y0007249D01*
X0010049Y0007192D01*
X0010184Y0007138D01*
X0010320Y0007089D01*
X0010457Y0007043D01*
X0010595Y0007001D01*
X0010735Y0006963D01*
X0010875Y0006928D01*
X0011017Y0006898D01*
X0011159Y0006871D01*
X0011302Y0006848D01*
X0011445Y0006830D01*
X0011589Y0006815D01*
X0011733Y0006804D01*
X0011878Y0006797D01*
X0012022Y0006794D01*
X0012167Y0006795D01*
X0012312Y0006800D01*
X0194847Y0028800D02*
X0194849Y0028908D01*
X0194855Y0029017D01*
X0194865Y0029125D01*
X0194879Y0029232D01*
X0194897Y0029339D01*
X0194918Y0029446D01*
X0194944Y0029551D01*
X0194974Y0029656D01*
X0195007Y0029759D01*
X0195044Y0029861D01*
X0195085Y0029961D01*
X0195129Y0030060D01*
X0195178Y0030158D01*
X0195229Y0030253D01*
X0195284Y0030346D01*
X0195343Y0030438D01*
X0195405Y0030527D01*
X0195470Y0030614D01*
X0195538Y0030698D01*
X0195609Y0030780D01*
X0195683Y0030859D01*
X0195760Y0030935D01*
X0195840Y0031009D01*
X0195923Y0031079D01*
X0196008Y0031147D01*
X0196095Y0031211D01*
X0196185Y0031272D01*
X0196277Y0031330D01*
X0196371Y0031384D01*
X0196467Y0031435D01*
X0196564Y0031482D01*
X0196664Y0031526D01*
X0196765Y0031566D01*
X0196867Y0031602D01*
X0196970Y0031634D01*
X0197075Y0031663D01*
X0197181Y0031687D01*
X0197287Y0031708D01*
X0197394Y0031725D01*
X0197502Y0031738D01*
X0197610Y0031747D01*
X0197719Y0031752D01*
X0197827Y0031753D01*
X0197936Y0031750D01*
X0198044Y0031743D01*
X0198152Y0031732D01*
X0198259Y0031717D01*
X0198366Y0031698D01*
X0198472Y0031675D01*
X0198577Y0031649D01*
X0198682Y0031618D01*
X0198784Y0031584D01*
X0198886Y0031546D01*
X0198986Y0031504D01*
X0199085Y0031459D01*
X0199182Y0031410D01*
X0199276Y0031357D01*
X0199369Y0031301D01*
X0199460Y0031242D01*
X0199549Y0031179D01*
X0199635Y0031114D01*
X0199719Y0031045D01*
X0199800Y0030973D01*
X0199878Y0030898D01*
X0199954Y0030820D01*
X0200027Y0030739D01*
X0200097Y0030656D01*
X0200163Y0030571D01*
X0200227Y0030483D01*
X0200287Y0030392D01*
X0200344Y0030300D01*
X0200397Y0030205D01*
X0200447Y0030109D01*
X0200493Y0030011D01*
X0200536Y0029911D01*
X0200575Y0029810D01*
X0200610Y0029707D01*
X0200642Y0029604D01*
X0200669Y0029499D01*
X0200693Y0029393D01*
X0200713Y0029286D01*
X0200729Y0029179D01*
X0200741Y0029071D01*
X0200749Y0028963D01*
X0200753Y0028854D01*
X0200753Y0028746D01*
X0200749Y0028637D01*
X0200741Y0028529D01*
X0200729Y0028421D01*
X0200713Y0028314D01*
X0200693Y0028207D01*
X0200669Y0028101D01*
X0200642Y0027996D01*
X0200610Y0027893D01*
X0200575Y0027790D01*
X0200536Y0027689D01*
X0200493Y0027589D01*
X0200447Y0027491D01*
X0200397Y0027395D01*
X0200344Y0027300D01*
X0200287Y0027208D01*
X0200227Y0027117D01*
X0200163Y0027029D01*
X0200097Y0026944D01*
X0200027Y0026861D01*
X0199954Y0026780D01*
X0199878Y0026702D01*
X0199800Y0026627D01*
X0199719Y0026555D01*
X0199635Y0026486D01*
X0199549Y0026421D01*
X0199460Y0026358D01*
X0199369Y0026299D01*
X0199277Y0026243D01*
X0199182Y0026190D01*
X0199085Y0026141D01*
X0198986Y0026096D01*
X0198886Y0026054D01*
X0198784Y0026016D01*
X0198682Y0025982D01*
X0198577Y0025951D01*
X0198472Y0025925D01*
X0198366Y0025902D01*
X0198259Y0025883D01*
X0198152Y0025868D01*
X0198044Y0025857D01*
X0197936Y0025850D01*
X0197827Y0025847D01*
X0197719Y0025848D01*
X0197610Y0025853D01*
X0197502Y0025862D01*
X0197394Y0025875D01*
X0197287Y0025892D01*
X0197181Y0025913D01*
X0197075Y0025937D01*
X0196970Y0025966D01*
X0196867Y0025998D01*
X0196765Y0026034D01*
X0196664Y0026074D01*
X0196564Y0026118D01*
X0196467Y0026165D01*
X0196371Y0026216D01*
X0196277Y0026270D01*
X0196185Y0026328D01*
X0196095Y0026389D01*
X0196008Y0026453D01*
X0195923Y0026521D01*
X0195840Y0026591D01*
X0195760Y0026665D01*
X0195683Y0026741D01*
X0195609Y0026820D01*
X0195538Y0026902D01*
X0195470Y0026986D01*
X0195405Y0027073D01*
X0195343Y0027162D01*
X0195284Y0027254D01*
X0195229Y0027347D01*
X0195178Y0027442D01*
X0195129Y0027540D01*
X0195085Y0027639D01*
X0195044Y0027739D01*
X0195007Y0027841D01*
X0194974Y0027944D01*
X0194944Y0028049D01*
X0194918Y0028154D01*
X0194897Y0028261D01*
X0194879Y0028368D01*
X0194865Y0028475D01*
X0194855Y0028583D01*
X0194849Y0028692D01*
X0194847Y0028800D01*
X0011847Y0117800D02*
X0011849Y0117908D01*
X0011855Y0118017D01*
X0011865Y0118125D01*
X0011879Y0118232D01*
X0011897Y0118339D01*
X0011918Y0118446D01*
X0011944Y0118551D01*
X0011974Y0118656D01*
X0012007Y0118759D01*
X0012044Y0118861D01*
X0012085Y0118961D01*
X0012129Y0119060D01*
X0012178Y0119158D01*
X0012229Y0119253D01*
X0012284Y0119346D01*
X0012343Y0119438D01*
X0012405Y0119527D01*
X0012470Y0119614D01*
X0012538Y0119698D01*
X0012609Y0119780D01*
X0012683Y0119859D01*
X0012760Y0119935D01*
X0012840Y0120009D01*
X0012923Y0120079D01*
X0013008Y0120147D01*
X0013095Y0120211D01*
X0013185Y0120272D01*
X0013277Y0120330D01*
X0013371Y0120384D01*
X0013467Y0120435D01*
X0013564Y0120482D01*
X0013664Y0120526D01*
X0013765Y0120566D01*
X0013867Y0120602D01*
X0013970Y0120634D01*
X0014075Y0120663D01*
X0014181Y0120687D01*
X0014287Y0120708D01*
X0014394Y0120725D01*
X0014502Y0120738D01*
X0014610Y0120747D01*
X0014719Y0120752D01*
X0014827Y0120753D01*
X0014936Y0120750D01*
X0015044Y0120743D01*
X0015152Y0120732D01*
X0015259Y0120717D01*
X0015366Y0120698D01*
X0015472Y0120675D01*
X0015577Y0120649D01*
X0015682Y0120618D01*
X0015784Y0120584D01*
X0015886Y0120546D01*
X0015986Y0120504D01*
X0016085Y0120459D01*
X0016182Y0120410D01*
X0016276Y0120357D01*
X0016369Y0120301D01*
X0016460Y0120242D01*
X0016549Y0120179D01*
X0016635Y0120114D01*
X0016719Y0120045D01*
X0016800Y0119973D01*
X0016878Y0119898D01*
X0016954Y0119820D01*
X0017027Y0119739D01*
X0017097Y0119656D01*
X0017163Y0119571D01*
X0017227Y0119483D01*
X0017287Y0119392D01*
X0017344Y0119300D01*
X0017397Y0119205D01*
X0017447Y0119109D01*
X0017493Y0119011D01*
X0017536Y0118911D01*
X0017575Y0118810D01*
X0017610Y0118707D01*
X0017642Y0118604D01*
X0017669Y0118499D01*
X0017693Y0118393D01*
X0017713Y0118286D01*
X0017729Y0118179D01*
X0017741Y0118071D01*
X0017749Y0117963D01*
X0017753Y0117854D01*
X0017753Y0117746D01*
X0017749Y0117637D01*
X0017741Y0117529D01*
X0017729Y0117421D01*
X0017713Y0117314D01*
X0017693Y0117207D01*
X0017669Y0117101D01*
X0017642Y0116996D01*
X0017610Y0116893D01*
X0017575Y0116790D01*
X0017536Y0116689D01*
X0017493Y0116589D01*
X0017447Y0116491D01*
X0017397Y0116395D01*
X0017344Y0116300D01*
X0017287Y0116208D01*
X0017227Y0116117D01*
X0017163Y0116029D01*
X0017097Y0115944D01*
X0017027Y0115861D01*
X0016954Y0115780D01*
X0016878Y0115702D01*
X0016800Y0115627D01*
X0016719Y0115555D01*
X0016635Y0115486D01*
X0016549Y0115421D01*
X0016460Y0115358D01*
X0016369Y0115299D01*
X0016277Y0115243D01*
X0016182Y0115190D01*
X0016085Y0115141D01*
X0015986Y0115096D01*
X0015886Y0115054D01*
X0015784Y0115016D01*
X0015682Y0114982D01*
X0015577Y0114951D01*
X0015472Y0114925D01*
X0015366Y0114902D01*
X0015259Y0114883D01*
X0015152Y0114868D01*
X0015044Y0114857D01*
X0014936Y0114850D01*
X0014827Y0114847D01*
X0014719Y0114848D01*
X0014610Y0114853D01*
X0014502Y0114862D01*
X0014394Y0114875D01*
X0014287Y0114892D01*
X0014181Y0114913D01*
X0014075Y0114937D01*
X0013970Y0114966D01*
X0013867Y0114998D01*
X0013765Y0115034D01*
X0013664Y0115074D01*
X0013564Y0115118D01*
X0013467Y0115165D01*
X0013371Y0115216D01*
X0013277Y0115270D01*
X0013185Y0115328D01*
X0013095Y0115389D01*
X0013008Y0115453D01*
X0012923Y0115521D01*
X0012840Y0115591D01*
X0012760Y0115665D01*
X0012683Y0115741D01*
X0012609Y0115820D01*
X0012538Y0115902D01*
X0012470Y0115986D01*
X0012405Y0116073D01*
X0012343Y0116162D01*
X0012284Y0116254D01*
X0012229Y0116347D01*
X0012178Y0116442D01*
X0012129Y0116540D01*
X0012085Y0116639D01*
X0012044Y0116739D01*
X0012007Y0116841D01*
X0011974Y0116944D01*
X0011944Y0117049D01*
X0011918Y0117154D01*
X0011897Y0117261D01*
X0011879Y0117368D01*
X0011865Y0117475D01*
X0011855Y0117583D01*
X0011849Y0117692D01*
X0011847Y0117800D01*
D11*
X0012753Y0101284D03*
X0012753Y0096560D03*
X0012753Y0091835D03*
X0012753Y0087111D03*
X0012753Y0082387D03*
X0012753Y0077662D03*
X0012753Y0072938D03*
X0012753Y0068213D03*
X0012753Y0063489D03*
X0012753Y0058765D03*
X0012753Y0054040D03*
X0012753Y0049316D03*
X0064721Y0049316D03*
X0064721Y0054040D03*
X0064721Y0058765D03*
X0064721Y0063489D03*
X0064721Y0068213D03*
X0064721Y0072938D03*
X0064721Y0077662D03*
X0064721Y0082387D03*
X0064721Y0087111D03*
X0064721Y0091835D03*
X0064721Y0096560D03*
X0064721Y0101284D03*
D12*
X0055166Y0113292D03*
X0050442Y0113292D03*
X0045717Y0113292D03*
X0040993Y0113292D03*
X0035981Y0113292D03*
X0031257Y0113292D03*
X0026532Y0113292D03*
X0021808Y0113292D03*
D13*
X0187894Y0018500D03*
X0199706Y0018500D03*
D14*
X0175681Y0016524D03*
X0164657Y0016524D03*
X0151300Y0017041D03*
X0140276Y0017041D03*
X0145288Y0070800D03*
X0156312Y0070800D03*
X0164288Y0070800D03*
X0164288Y0078800D03*
X0156312Y0078800D03*
X0145288Y0078800D03*
X0145288Y0086800D03*
X0156312Y0086800D03*
X0164288Y0086800D03*
X0175312Y0086800D03*
X0175312Y0078800D03*
X0175312Y0070800D03*
X0156312Y0095050D03*
X0145288Y0095050D03*
X0145288Y0103300D03*
X0156312Y0103300D03*
X0139062Y0124800D03*
X0128038Y0124800D03*
X0108120Y0097617D03*
X0097097Y0097617D03*
X0097081Y0089580D03*
X0108105Y0089580D03*
X0105700Y0076893D03*
X0094676Y0076893D03*
D15*
X0182600Y0047706D03*
X0182600Y0035894D03*
X0188300Y0083394D03*
X0197900Y0083394D03*
X0197900Y0095206D03*
X0188300Y0095206D03*
D16*
X0127423Y0098072D03*
X0119943Y0098072D03*
X0119943Y0108309D03*
X0123683Y0108309D03*
X0127423Y0108309D03*
D17*
X0103929Y0131560D03*
X0092906Y0131560D03*
D18*
X0059000Y0136512D03*
X0048250Y0136512D03*
X0048250Y0125488D03*
X0059000Y0125488D03*
D19*
X0201800Y0113861D03*
X0201800Y0104688D03*
D20*
X0031757Y0128011D02*
X0031757Y0133211D01*
X0021757Y0133211D02*
X0021757Y0128011D01*
X0011757Y0128011D02*
X0011757Y0133211D01*
D21*
X0075550Y0103262D03*
X0084211Y0099522D03*
X0084211Y0107002D03*
D22*
X0164083Y0122843D03*
X0164083Y0125402D03*
X0164083Y0127961D03*
X0164083Y0130520D03*
X0164083Y0133080D03*
X0164083Y0135639D03*
X0164083Y0138198D03*
X0187115Y0138198D03*
X0187115Y0135639D03*
X0187115Y0133080D03*
X0187115Y0130520D03*
X0187115Y0127961D03*
X0187115Y0125402D03*
X0187115Y0122843D03*
D23*
X0202196Y0121470D03*
X0202196Y0132494D03*
X0078361Y0076419D03*
X0078361Y0065395D03*
X0119647Y0029708D03*
X0127926Y0029653D03*
X0127926Y0018629D03*
X0119647Y0018684D03*
D24*
X0110980Y0029013D03*
X0110980Y0032162D03*
X0110980Y0035312D03*
X0110980Y0038461D03*
X0110980Y0041611D03*
X0110980Y0044761D03*
X0110980Y0047910D03*
X0110980Y0051060D03*
X0077180Y0051060D03*
X0077180Y0047910D03*
X0077180Y0044761D03*
X0077180Y0041611D03*
X0077180Y0038461D03*
X0077180Y0035312D03*
X0077180Y0032162D03*
X0077180Y0029013D03*
D25*
X0083056Y0023136D03*
X0086206Y0023136D03*
X0089355Y0023136D03*
X0092505Y0023136D03*
X0095654Y0023136D03*
X0098804Y0023136D03*
X0101954Y0023136D03*
X0105103Y0023136D03*
X0105103Y0056936D03*
X0101954Y0056936D03*
X0098804Y0056936D03*
X0095654Y0056936D03*
X0092505Y0056936D03*
X0089355Y0056936D03*
X0086206Y0056936D03*
X0083056Y0056936D03*
D26*
X0125590Y0059713D03*
X0125590Y0043513D03*
D27*
X0142694Y0043229D03*
X0142694Y0045788D03*
X0142694Y0048347D03*
X0142694Y0050906D03*
X0142694Y0053465D03*
X0142694Y0056024D03*
X0142694Y0058583D03*
X0142694Y0061143D03*
X0171481Y0061143D03*
X0171481Y0058583D03*
X0171481Y0056024D03*
X0171481Y0053465D03*
X0171481Y0050906D03*
X0171481Y0048347D03*
X0171481Y0045788D03*
X0171481Y0043229D03*
X0171481Y0040670D03*
X0171481Y0038111D03*
X0171481Y0035552D03*
X0171481Y0032993D03*
X0171481Y0030434D03*
X0171481Y0027875D03*
X0142694Y0027875D03*
X0142694Y0030434D03*
X0142694Y0032993D03*
X0142694Y0035552D03*
X0142694Y0038111D03*
X0142694Y0040670D03*
D28*
X0132076Y0067821D03*
X0132076Y0074711D03*
X0132076Y0081600D03*
X0115776Y0081600D03*
X0115776Y0074711D03*
X0115776Y0067821D03*
D29*
X0192100Y0071800D02*
X0199500Y0071800D01*
X0199500Y0061800D02*
X0192100Y0061800D01*
X0192100Y0051800D02*
X0199500Y0051800D01*
X0199500Y0041800D02*
X0192100Y0041800D01*
D30*
X0204827Y0051922D02*
X0204827Y0052860D01*
X0204016Y0054817D01*
X0202517Y0056316D01*
X0201348Y0056800D01*
X0202517Y0057284D01*
X0204016Y0058783D01*
X0204827Y0060740D01*
X0204827Y0062860D01*
X0204016Y0064817D01*
X0202517Y0066316D01*
X0201595Y0066698D01*
X0201611Y0066703D01*
X0202383Y0067096D01*
X0203083Y0067605D01*
X0203695Y0068217D01*
X0204204Y0068917D01*
X0204597Y0069689D01*
X0204865Y0070512D01*
X0205000Y0071367D01*
X0205000Y0071500D01*
X0196100Y0071500D01*
X0196100Y0072100D01*
X0205000Y0072100D01*
X0205000Y0072233D01*
X0204865Y0073088D01*
X0204597Y0073911D01*
X0204204Y0074683D01*
X0203695Y0075383D01*
X0203083Y0075995D01*
X0202383Y0076504D01*
X0201611Y0076897D01*
X0200788Y0077165D01*
X0199933Y0077300D01*
X0198949Y0077300D01*
X0198972Y0077323D01*
X0198972Y0077323D01*
X0200277Y0078628D01*
X0200277Y0079406D01*
X0201330Y0079406D01*
X0202283Y0080358D01*
X0202283Y0086431D01*
X0201330Y0087383D01*
X0194470Y0087383D01*
X0193517Y0086431D01*
X0193517Y0080358D01*
X0193599Y0080277D01*
X0192601Y0080277D01*
X0192683Y0080358D01*
X0192683Y0086431D01*
X0191730Y0087383D01*
X0184870Y0087383D01*
X0183917Y0086431D01*
X0183917Y0080358D01*
X0184688Y0079587D01*
X0180088Y0074987D01*
X0180088Y0076573D01*
X0180222Y0076573D01*
X0183527Y0079878D01*
X0183527Y0099378D01*
X0184892Y0100743D01*
X0184892Y0099194D01*
X0184870Y0099194D01*
X0183917Y0098242D01*
X0183917Y0092169D01*
X0184870Y0091217D01*
X0191730Y0091217D01*
X0192683Y0092169D01*
X0192683Y0098242D01*
X0191730Y0099194D01*
X0191708Y0099194D01*
X0191708Y0101743D01*
X0194363Y0099088D01*
X0193517Y0098242D01*
X0193517Y0092169D01*
X0194470Y0091217D01*
X0201330Y0091217D01*
X0202283Y0092169D01*
X0202283Y0098242D01*
X0201330Y0099194D01*
X0200277Y0099194D01*
X0200277Y0099472D01*
X0199861Y0099888D01*
X0205787Y0099888D01*
X0205787Y0050962D01*
X0204827Y0051922D01*
X0205191Y0051558D02*
X0205787Y0051558D01*
X0205787Y0053157D02*
X0204704Y0053157D01*
X0204042Y0054755D02*
X0205787Y0054755D01*
X0205787Y0056354D02*
X0202426Y0056354D01*
X0203186Y0057952D02*
X0205787Y0057952D01*
X0205787Y0059551D02*
X0204334Y0059551D01*
X0204827Y0061149D02*
X0205787Y0061149D01*
X0205787Y0062748D02*
X0204827Y0062748D01*
X0204211Y0064346D02*
X0205787Y0064346D01*
X0205787Y0065945D02*
X0202888Y0065945D01*
X0202998Y0067543D02*
X0205787Y0067543D01*
X0205787Y0069142D02*
X0204318Y0069142D01*
X0204901Y0070740D02*
X0205787Y0070740D01*
X0205787Y0072339D02*
X0204983Y0072339D01*
X0204584Y0073937D02*
X0205787Y0073937D01*
X0205787Y0075536D02*
X0203542Y0075536D01*
X0205787Y0077134D02*
X0200880Y0077134D01*
X0200277Y0078733D02*
X0205787Y0078733D01*
X0205787Y0080332D02*
X0202256Y0080332D01*
X0202283Y0081930D02*
X0205787Y0081930D01*
X0205787Y0083529D02*
X0202283Y0083529D01*
X0202283Y0085127D02*
X0205787Y0085127D01*
X0205787Y0086726D02*
X0201988Y0086726D01*
X0205787Y0088324D02*
X0183527Y0088324D01*
X0183527Y0086726D02*
X0184212Y0086726D01*
X0183917Y0085127D02*
X0183527Y0085127D01*
X0183527Y0083529D02*
X0183917Y0083529D01*
X0183917Y0081930D02*
X0183527Y0081930D01*
X0183527Y0080332D02*
X0183944Y0080332D01*
X0183834Y0078733D02*
X0182382Y0078733D01*
X0182235Y0077134D02*
X0180784Y0077134D01*
X0180637Y0075536D02*
X0180088Y0075536D01*
X0170535Y0075536D02*
X0169065Y0075536D01*
X0169065Y0077134D02*
X0170535Y0077134D01*
X0170535Y0078733D02*
X0169065Y0078733D01*
X0169065Y0080332D02*
X0170535Y0080332D01*
X0170535Y0081930D02*
X0169065Y0081930D01*
X0169065Y0083529D02*
X0170535Y0083529D01*
X0170535Y0085127D02*
X0169065Y0085127D01*
X0169065Y0086726D02*
X0170535Y0086726D01*
X0170535Y0088324D02*
X0169065Y0088324D01*
X0169065Y0089923D02*
X0170535Y0089923D01*
X0170535Y0091017D02*
X0170535Y0066777D01*
X0169065Y0066777D01*
X0169065Y0091017D01*
X0168112Y0091970D01*
X0167369Y0091970D01*
X0169777Y0094378D01*
X0169777Y0096392D01*
X0174505Y0096392D01*
X0175458Y0097345D01*
X0175458Y0102255D01*
X0174505Y0103208D01*
X0174277Y0103208D01*
X0174277Y0103472D01*
X0172972Y0104777D01*
X0171722Y0106027D01*
X0166722Y0106027D01*
X0166310Y0106439D01*
X0166310Y0111573D01*
X0179142Y0111573D01*
X0179142Y0111345D01*
X0180095Y0110392D01*
X0185005Y0110392D01*
X0185958Y0111345D01*
X0185958Y0116255D01*
X0185005Y0117208D01*
X0180095Y0117208D01*
X0179142Y0116255D01*
X0179142Y0116027D01*
X0166310Y0116027D01*
X0166310Y0120508D01*
X0167238Y0120508D01*
X0168191Y0121461D01*
X0168191Y0123176D01*
X0170892Y0123176D01*
X0170892Y0123095D01*
X0171845Y0122142D01*
X0176755Y0122142D01*
X0177708Y0123095D01*
X0177708Y0125029D01*
X0178595Y0124142D01*
X0182919Y0124142D01*
X0182924Y0124123D01*
X0182835Y0123789D01*
X0182835Y0122843D01*
X0182835Y0121898D01*
X0182957Y0121440D01*
X0183194Y0121029D01*
X0183529Y0120694D01*
X0183940Y0120457D01*
X0184398Y0120335D01*
X0187115Y0120335D01*
X0189832Y0120335D01*
X0190290Y0120457D01*
X0190700Y0120694D01*
X0191036Y0121029D01*
X0191273Y0121440D01*
X0191395Y0121898D01*
X0191395Y0122843D01*
X0187115Y0122843D01*
X0187115Y0120335D01*
X0187115Y0122843D01*
X0187115Y0122843D01*
X0187115Y0122843D01*
X0182835Y0122843D01*
X0187115Y0122843D01*
X0187115Y0122843D01*
X0191395Y0122843D01*
X0191395Y0123789D01*
X0191306Y0124123D01*
X0191395Y0124457D01*
X0191395Y0124842D01*
X0192095Y0124142D01*
X0192309Y0124142D01*
X0192299Y0121567D01*
X0192289Y0120651D01*
X0192295Y0120645D01*
X0192295Y0120637D01*
X0192940Y0119987D01*
X0193580Y0119333D01*
X0193588Y0119333D01*
X0193594Y0119327D01*
X0194510Y0119323D01*
X0197026Y0119297D01*
X0197026Y0118661D01*
X0195469Y0118661D01*
X0195000Y0118192D01*
X0195000Y0116027D01*
X0193458Y0116027D01*
X0193458Y0116255D01*
X0192505Y0117208D01*
X0187595Y0117208D01*
X0186642Y0116255D01*
X0186642Y0111345D01*
X0187595Y0110392D01*
X0192505Y0110392D01*
X0193458Y0111345D01*
X0193458Y0111573D01*
X0195000Y0111573D01*
X0195000Y0109530D01*
X0195255Y0109274D01*
X0195000Y0109019D01*
X0195000Y0104749D01*
X0192472Y0107277D01*
X0185128Y0107277D01*
X0183823Y0105972D01*
X0179073Y0101222D01*
X0179073Y0091970D01*
X0178708Y0091970D01*
X0178708Y0095005D01*
X0177755Y0095958D01*
X0172845Y0095958D01*
X0171892Y0095005D01*
X0171892Y0091970D01*
X0171488Y0091970D01*
X0170535Y0091017D01*
X0171039Y0091521D02*
X0168561Y0091521D01*
X0168519Y0093120D02*
X0171892Y0093120D01*
X0171892Y0094718D02*
X0169777Y0094718D01*
X0169777Y0096317D02*
X0179073Y0096317D01*
X0179073Y0097915D02*
X0175458Y0097915D01*
X0175458Y0099514D02*
X0179073Y0099514D01*
X0179073Y0101112D02*
X0175458Y0101112D01*
X0175002Y0102711D02*
X0180562Y0102711D01*
X0182160Y0104309D02*
X0173440Y0104309D01*
X0171841Y0105908D02*
X0183759Y0105908D01*
X0191708Y0101112D02*
X0192339Y0101112D01*
X0191708Y0099514D02*
X0193937Y0099514D01*
X0193517Y0097915D02*
X0192683Y0097915D01*
X0192683Y0096317D02*
X0193517Y0096317D01*
X0193517Y0094718D02*
X0192683Y0094718D01*
X0192683Y0093120D02*
X0193517Y0093120D01*
X0194166Y0091521D02*
X0192034Y0091521D01*
X0192388Y0086726D02*
X0193812Y0086726D01*
X0193517Y0085127D02*
X0192683Y0085127D01*
X0192683Y0083529D02*
X0193517Y0083529D01*
X0193517Y0081930D02*
X0192683Y0081930D01*
X0192656Y0080332D02*
X0193544Y0080332D01*
X0183527Y0089923D02*
X0205787Y0089923D01*
X0205787Y0091521D02*
X0201634Y0091521D01*
X0202283Y0093120D02*
X0205787Y0093120D01*
X0205787Y0094718D02*
X0202283Y0094718D01*
X0202283Y0096317D02*
X0205787Y0096317D01*
X0205787Y0097915D02*
X0202283Y0097915D01*
X0200235Y0099514D02*
X0205787Y0099514D01*
X0195000Y0105908D02*
X0193841Y0105908D01*
X0195000Y0107506D02*
X0166310Y0107506D01*
X0166310Y0109105D02*
X0195086Y0109105D01*
X0195000Y0110703D02*
X0192816Y0110703D01*
X0187284Y0110703D02*
X0185316Y0110703D01*
X0185958Y0112302D02*
X0186642Y0112302D01*
X0186642Y0113900D02*
X0185958Y0113900D01*
X0185958Y0115499D02*
X0186642Y0115499D01*
X0187484Y0117097D02*
X0185116Y0117097D01*
X0179984Y0117097D02*
X0166310Y0117097D01*
X0166310Y0118696D02*
X0197026Y0118696D01*
X0195000Y0117097D02*
X0192616Y0117097D01*
X0192635Y0120294D02*
X0166310Y0120294D01*
X0168191Y0121893D02*
X0182836Y0121893D01*
X0182835Y0123491D02*
X0177708Y0123491D01*
X0187115Y0123491D02*
X0187115Y0123491D01*
X0187115Y0122894D02*
X0187115Y0125402D01*
X0187115Y0125402D01*
X0187115Y0122843D01*
X0187115Y0122843D01*
X0187115Y0122894D01*
X0187115Y0121893D02*
X0187115Y0121893D01*
X0187115Y0125090D02*
X0187115Y0125090D01*
X0191395Y0123491D02*
X0192307Y0123491D01*
X0192300Y0121893D02*
X0191394Y0121893D01*
X0191222Y0130085D02*
X0191222Y0131589D01*
X0191273Y0131676D01*
X0191395Y0132134D01*
X0191395Y0133079D01*
X0187115Y0133079D01*
X0187115Y0133080D01*
X0187115Y0133080D01*
X0187115Y0133130D01*
X0187115Y0135638D01*
X0187115Y0135638D01*
X0187115Y0133080D01*
X0191395Y0133080D01*
X0191395Y0134025D01*
X0191306Y0134359D01*
X0191395Y0134693D01*
X0191395Y0135639D01*
X0191395Y0136584D01*
X0191306Y0136918D01*
X0191395Y0137252D01*
X0191395Y0138198D01*
X0191395Y0139143D01*
X0191273Y0139601D01*
X0191036Y0140012D01*
X0190974Y0140073D01*
X0197830Y0140073D01*
X0198698Y0139139D01*
X0198698Y0137270D01*
X0197979Y0137270D01*
X0197026Y0136317D01*
X0197026Y0130937D01*
X0197005Y0130958D01*
X0192095Y0130958D01*
X0191222Y0130085D01*
X0191222Y0131484D02*
X0197026Y0131484D01*
X0197026Y0133082D02*
X0191395Y0133082D01*
X0191392Y0134681D02*
X0197026Y0134681D01*
X0197026Y0136279D02*
X0191395Y0136279D01*
X0191395Y0135639D02*
X0187115Y0135639D01*
X0187115Y0135639D01*
X0187115Y0135689D01*
X0187115Y0138198D01*
X0191395Y0138198D01*
X0187115Y0138198D01*
X0187115Y0138198D01*
X0187115Y0138198D01*
X0182835Y0138198D01*
X0182835Y0139143D01*
X0182957Y0139601D01*
X0183194Y0140012D01*
X0183256Y0140073D01*
X0167697Y0140073D01*
X0168191Y0139580D01*
X0168191Y0135306D01*
X0177642Y0135306D01*
X0177642Y0135505D01*
X0178595Y0136458D01*
X0182835Y0136458D01*
X0182835Y0136584D01*
X0182924Y0136918D01*
X0182835Y0137252D01*
X0182835Y0138198D01*
X0187115Y0138198D01*
X0187115Y0138198D01*
X0187115Y0135639D01*
X0187115Y0135639D01*
X0191395Y0135639D01*
X0191395Y0137878D02*
X0198698Y0137878D01*
X0198385Y0139476D02*
X0191306Y0139476D01*
X0187115Y0137878D02*
X0187115Y0137878D01*
X0187115Y0136279D02*
X0187115Y0136279D01*
X0187115Y0134681D02*
X0187115Y0134681D01*
X0187115Y0133082D02*
X0187115Y0133082D01*
X0182835Y0137878D02*
X0168191Y0137878D01*
X0168191Y0139476D02*
X0182924Y0139476D01*
X0178417Y0136279D02*
X0168191Y0136279D01*
X0148323Y0123642D02*
X0148323Y0118628D01*
X0149419Y0117532D01*
X0148642Y0116755D01*
X0148642Y0114041D01*
X0144366Y0109765D01*
X0143137Y0108537D01*
X0132868Y0118631D01*
X0132222Y0119277D01*
X0132211Y0119277D01*
X0132203Y0119285D01*
X0131290Y0119277D01*
X0130958Y0119277D01*
X0130958Y0119457D01*
X0131425Y0119457D01*
X0131883Y0119579D01*
X0132293Y0119816D01*
X0132628Y0120151D01*
X0132865Y0120562D01*
X0132988Y0121020D01*
X0132988Y0124025D01*
X0128813Y0124025D01*
X0128813Y0125575D01*
X0132988Y0125575D01*
X0132988Y0128294D01*
X0134285Y0128294D01*
X0134285Y0120583D01*
X0135238Y0119630D01*
X0142885Y0119630D01*
X0143838Y0120583D01*
X0143838Y0123358D01*
X0144217Y0123642D01*
X0147505Y0123642D01*
X0147800Y0123937D01*
X0148095Y0123642D01*
X0148323Y0123642D01*
X0148323Y0123491D02*
X0144016Y0123491D01*
X0143838Y0121893D02*
X0148323Y0121893D01*
X0148323Y0120294D02*
X0143550Y0120294D01*
X0148323Y0118696D02*
X0132803Y0118696D01*
X0132711Y0120294D02*
X0134574Y0120294D01*
X0134285Y0121893D02*
X0132988Y0121893D01*
X0132988Y0123491D02*
X0134285Y0123491D01*
X0134285Y0125090D02*
X0128813Y0125090D01*
X0127263Y0125090D02*
X0095132Y0125090D01*
X0096595Y0124458D02*
X0095642Y0123505D01*
X0095642Y0114095D01*
X0096595Y0113142D01*
X0101505Y0113142D01*
X0102458Y0114095D01*
X0102458Y0114323D01*
X0108142Y0114323D01*
X0108142Y0114095D01*
X0109095Y0113142D01*
X0113573Y0113142D01*
X0113573Y0111140D01*
X0113255Y0111458D01*
X0108345Y0111458D01*
X0107392Y0110505D01*
X0107392Y0110277D01*
X0093777Y0110277D01*
X0093777Y0113128D01*
X0095132Y0114483D01*
X0095132Y0126783D01*
X0096335Y0126783D01*
X0097288Y0127736D01*
X0097288Y0135383D01*
X0096335Y0136336D01*
X0089476Y0136336D01*
X0088523Y0135383D01*
X0088523Y0127736D01*
X0089476Y0126783D01*
X0090679Y0126783D01*
X0090679Y0116328D01*
X0090628Y0116277D01*
X0089323Y0114972D01*
X0089323Y0110277D01*
X0087962Y0110277D01*
X0087708Y0110531D01*
X0087708Y0115255D01*
X0086755Y0116208D01*
X0086527Y0116208D01*
X0086527Y0122722D01*
X0085222Y0124027D01*
X0083777Y0125472D01*
X0083777Y0132378D01*
X0089472Y0138073D01*
X0103128Y0138073D01*
X0104691Y0136509D01*
X0104507Y0136509D01*
X0104507Y0132138D01*
X0103351Y0132138D01*
X0103351Y0136509D01*
X0100936Y0136509D01*
X0100478Y0136387D01*
X0100068Y0136150D01*
X0099733Y0135815D01*
X0099496Y0135404D01*
X0099373Y0134946D01*
X0099373Y0132138D01*
X0103351Y0132138D01*
X0103351Y0130982D01*
X0099373Y0130982D01*
X0099373Y0128173D01*
X0099496Y0127715D01*
X0099733Y0127305D01*
X0100068Y0126970D01*
X0100478Y0126733D01*
X0100936Y0126610D01*
X0103351Y0126610D01*
X0103351Y0130982D01*
X0104507Y0130982D01*
X0104507Y0132138D01*
X0108485Y0132138D01*
X0108485Y0132716D01*
X0111603Y0129598D01*
X0112907Y0128294D01*
X0123089Y0128294D01*
X0123089Y0125575D01*
X0127263Y0125575D01*
X0127263Y0124025D01*
X0123089Y0124025D01*
X0123089Y0121020D01*
X0123211Y0120562D01*
X0123448Y0120151D01*
X0123783Y0119816D01*
X0124194Y0119579D01*
X0124212Y0119575D01*
X0124142Y0119505D01*
X0124142Y0112471D01*
X0123683Y0112471D01*
X0123683Y0108309D01*
X0123683Y0104147D01*
X0125002Y0104147D01*
X0125460Y0104270D01*
X0125623Y0104363D01*
X0125666Y0104320D01*
X0129179Y0104320D01*
X0130132Y0105273D01*
X0130132Y0109269D01*
X0130958Y0110095D01*
X0130958Y0114264D01*
X0140512Y0104873D01*
X0140512Y0097277D01*
X0130132Y0097277D01*
X0130132Y0101108D01*
X0129179Y0102061D01*
X0125666Y0102061D01*
X0124713Y0101108D01*
X0124713Y0095036D01*
X0125196Y0094553D01*
X0125196Y0094128D01*
X0126500Y0092823D01*
X0140512Y0092823D01*
X0140512Y0090208D01*
X0137095Y0090208D01*
X0136142Y0089255D01*
X0136142Y0084705D01*
X0135838Y0085009D01*
X0135428Y0085246D01*
X0134970Y0085369D01*
X0132260Y0085369D01*
X0132260Y0081785D01*
X0131891Y0081785D01*
X0131891Y0081416D01*
X0127618Y0081416D01*
X0127618Y0079395D01*
X0127741Y0078937D01*
X0127978Y0078527D01*
X0128313Y0078192D01*
X0128375Y0078156D01*
X0128313Y0078120D01*
X0127978Y0077784D01*
X0127741Y0077374D01*
X0127618Y0076916D01*
X0127618Y0074895D01*
X0131891Y0074895D01*
X0131891Y0074526D01*
X0132260Y0074526D01*
X0132260Y0068005D01*
X0136482Y0068005D01*
X0137095Y0067392D01*
X0140512Y0067392D01*
X0140512Y0066583D01*
X0141465Y0065630D01*
X0149112Y0065630D01*
X0150065Y0066583D01*
X0150065Y0107517D01*
X0149240Y0108341D01*
X0151791Y0110892D01*
X0154505Y0110892D01*
X0155458Y0111845D01*
X0155458Y0115573D01*
X0158628Y0115573D01*
X0159073Y0115128D01*
X0159073Y0108643D01*
X0157087Y0108643D01*
X0157087Y0104075D01*
X0155537Y0104075D01*
X0155537Y0108643D01*
X0152925Y0108643D01*
X0152467Y0108521D01*
X0152057Y0108284D01*
X0151722Y0107949D01*
X0151485Y0107538D01*
X0151362Y0107080D01*
X0151362Y0104075D01*
X0155537Y0104075D01*
X0155537Y0102525D01*
X0157087Y0102525D01*
X0157087Y0100393D01*
X0157087Y0095825D01*
X0161261Y0095825D01*
X0161261Y0096392D01*
X0165323Y0096392D01*
X0165323Y0096222D01*
X0162061Y0092961D01*
X0162061Y0091970D01*
X0161261Y0091970D01*
X0161261Y0094275D01*
X0157087Y0094275D01*
X0157087Y0095825D01*
X0155537Y0095825D01*
X0155537Y0102525D01*
X0151362Y0102525D01*
X0151362Y0099520D01*
X0151455Y0099175D01*
X0151362Y0098830D01*
X0151362Y0095825D01*
X0155537Y0095825D01*
X0155537Y0094275D01*
X0157087Y0094275D01*
X0157087Y0087575D01*
X0155537Y0087575D01*
X0155537Y0092143D01*
X0155537Y0094275D01*
X0151362Y0094275D01*
X0151362Y0091270D01*
X0151455Y0090925D01*
X0151362Y0090580D01*
X0151362Y0087575D01*
X0155537Y0087575D01*
X0155537Y0086025D01*
X0157087Y0086025D01*
X0157087Y0079575D01*
X0155537Y0079575D01*
X0155537Y0081457D01*
X0155537Y0086025D01*
X0151362Y0086025D01*
X0151362Y0083020D01*
X0151421Y0082800D01*
X0151362Y0082580D01*
X0151362Y0079575D01*
X0155537Y0079575D01*
X0155537Y0078025D01*
X0157087Y0078025D01*
X0157087Y0071575D01*
X0155537Y0071575D01*
X0155537Y0076143D01*
X0155537Y0078025D01*
X0151362Y0078025D01*
X0151362Y0075020D01*
X0151421Y0074800D01*
X0151362Y0074580D01*
X0151362Y0071575D01*
X0155537Y0071575D01*
X0155537Y0070025D01*
X0157087Y0070025D01*
X0157087Y0065457D01*
X0159698Y0065457D01*
X0160156Y0065579D01*
X0160384Y0065711D01*
X0160465Y0065630D01*
X0162433Y0065630D01*
X0163513Y0064550D01*
X0149537Y0050574D01*
X0147070Y0050574D01*
X0147070Y0051998D01*
X0147121Y0052086D01*
X0147244Y0052543D01*
X0147244Y0053465D01*
X0142694Y0053465D01*
X0142694Y0053465D01*
X0147244Y0053465D01*
X0147244Y0053798D01*
X0149197Y0053798D01*
X0150501Y0055102D01*
X0150541Y0055142D01*
X0153255Y0055142D01*
X0154208Y0056095D01*
X0154208Y0061005D01*
X0153255Y0061958D01*
X0148345Y0061958D01*
X0147392Y0061005D01*
X0147392Y0058291D01*
X0147352Y0058251D01*
X0147070Y0058251D01*
X0147070Y0062501D01*
X0146118Y0063454D01*
X0140352Y0063454D01*
X0140352Y0064347D01*
X0139399Y0065300D01*
X0136449Y0065300D01*
X0136533Y0065615D01*
X0136533Y0067637D01*
X0132260Y0067637D01*
X0132260Y0068005D01*
X0131891Y0068005D01*
X0131891Y0067637D01*
X0127618Y0067637D01*
X0127618Y0065615D01*
X0127741Y0065158D01*
X0127786Y0065080D01*
X0120192Y0065080D01*
X0119239Y0064127D01*
X0119239Y0063458D01*
X0114845Y0063458D01*
X0113892Y0062505D01*
X0113892Y0059791D01*
X0108753Y0054652D01*
X0108753Y0053787D01*
X0107830Y0053787D01*
X0107830Y0060110D01*
X0107330Y0060610D01*
X0107330Y0067121D01*
X0107573Y0066878D01*
X0108878Y0065573D01*
X0111492Y0065573D01*
X0111492Y0065179D01*
X0112445Y0064226D01*
X0119108Y0064226D01*
X0120061Y0065179D01*
X0120061Y0070463D01*
X0119258Y0071266D01*
X0120061Y0072068D01*
X0120061Y0077353D01*
X0119258Y0078156D01*
X0120061Y0078958D01*
X0120061Y0084243D01*
X0119108Y0085196D01*
X0118027Y0085196D01*
X0118027Y0088472D01*
X0116722Y0089777D01*
X0114692Y0091807D01*
X0112881Y0091807D01*
X0112881Y0093385D01*
X0112897Y0093400D01*
X0112897Y0101834D01*
X0111944Y0102787D01*
X0110242Y0102787D01*
X0110209Y0104399D01*
X0110207Y0104642D01*
X0113255Y0104642D01*
X0113573Y0104960D01*
X0113573Y0097128D01*
X0114878Y0095823D01*
X0116392Y0095823D01*
X0116392Y0091595D01*
X0117345Y0090642D01*
X0122255Y0090642D01*
X0123208Y0091595D01*
X0123208Y0096505D01*
X0122652Y0097061D01*
X0122652Y0101108D01*
X0121699Y0102061D01*
X0118186Y0102061D01*
X0118027Y0101902D01*
X0118027Y0104479D01*
X0118186Y0104320D01*
X0121699Y0104320D01*
X0121742Y0104363D01*
X0121905Y0104270D01*
X0122363Y0104147D01*
X0123683Y0104147D01*
X0123683Y0108309D01*
X0123683Y0108309D01*
X0123683Y0108309D01*
X0123683Y0112471D01*
X0123350Y0112471D01*
X0123350Y0115112D01*
X0122397Y0116065D01*
X0118027Y0116065D01*
X0118027Y0121972D01*
X0116722Y0123277D01*
X0102458Y0123277D01*
X0102458Y0123505D01*
X0101505Y0124458D01*
X0096595Y0124458D01*
X0095642Y0123491D02*
X0095132Y0123491D01*
X0095132Y0121893D02*
X0095642Y0121893D01*
X0095642Y0120294D02*
X0095132Y0120294D01*
X0095132Y0118696D02*
X0095642Y0118696D01*
X0095642Y0117097D02*
X0095132Y0117097D01*
X0095132Y0115499D02*
X0095642Y0115499D01*
X0095837Y0113900D02*
X0094549Y0113900D01*
X0093777Y0112302D02*
X0113573Y0112302D01*
X0108337Y0113900D02*
X0102263Y0113900D01*
X0107590Y0110703D02*
X0093777Y0110703D01*
X0089323Y0110703D02*
X0087708Y0110703D01*
X0087708Y0112302D02*
X0089323Y0112302D01*
X0089323Y0113900D02*
X0087708Y0113900D01*
X0087464Y0115499D02*
X0089850Y0115499D01*
X0090679Y0117097D02*
X0086527Y0117097D01*
X0086527Y0118696D02*
X0090679Y0118696D01*
X0090679Y0120294D02*
X0086527Y0120294D01*
X0086527Y0121893D02*
X0090679Y0121893D01*
X0090679Y0123491D02*
X0085758Y0123491D01*
X0084159Y0125090D02*
X0090679Y0125090D01*
X0090679Y0126688D02*
X0083777Y0126688D01*
X0083777Y0128287D02*
X0088523Y0128287D01*
X0088523Y0129885D02*
X0083777Y0129885D01*
X0083777Y0131484D02*
X0088523Y0131484D01*
X0088523Y0133082D02*
X0084482Y0133082D01*
X0086080Y0134681D02*
X0088523Y0134681D01*
X0087679Y0136279D02*
X0089419Y0136279D01*
X0089277Y0137878D02*
X0103323Y0137878D01*
X0103351Y0136279D02*
X0104507Y0136279D01*
X0104507Y0134681D02*
X0103351Y0134681D01*
X0103351Y0133082D02*
X0104507Y0133082D01*
X0104507Y0131484D02*
X0109717Y0131484D01*
X0108485Y0130982D02*
X0104507Y0130982D01*
X0104507Y0126610D01*
X0106922Y0126610D01*
X0107380Y0126733D01*
X0107790Y0126970D01*
X0108125Y0127305D01*
X0108362Y0127715D01*
X0108485Y0128173D01*
X0108485Y0130982D01*
X0108485Y0129885D02*
X0111315Y0129885D01*
X0108485Y0128287D02*
X0123089Y0128287D01*
X0123089Y0126688D02*
X0107214Y0126688D01*
X0104507Y0126688D02*
X0103351Y0126688D01*
X0103351Y0128287D02*
X0104507Y0128287D01*
X0104507Y0129885D02*
X0103351Y0129885D01*
X0103351Y0131484D02*
X0097288Y0131484D01*
X0097288Y0133082D02*
X0099373Y0133082D01*
X0099373Y0134681D02*
X0097288Y0134681D01*
X0096392Y0136279D02*
X0100293Y0136279D01*
X0099373Y0129885D02*
X0097288Y0129885D01*
X0097288Y0128287D02*
X0099373Y0128287D01*
X0100645Y0126688D02*
X0095132Y0126688D01*
X0102458Y0123491D02*
X0123089Y0123491D01*
X0123089Y0121893D02*
X0118027Y0121893D01*
X0118027Y0120294D02*
X0123366Y0120294D01*
X0124142Y0118696D02*
X0118027Y0118696D01*
X0118027Y0117097D02*
X0124142Y0117097D01*
X0124142Y0115499D02*
X0122964Y0115499D01*
X0123350Y0113900D02*
X0124142Y0113900D01*
X0123683Y0112302D02*
X0123683Y0112302D01*
X0123683Y0110703D02*
X0123683Y0110703D01*
X0123683Y0109105D02*
X0123683Y0109105D01*
X0123683Y0107506D02*
X0123683Y0107506D01*
X0123683Y0105908D02*
X0123683Y0105908D01*
X0123683Y0104309D02*
X0123683Y0104309D01*
X0125529Y0104309D02*
X0140512Y0104309D01*
X0140512Y0102711D02*
X0118027Y0102711D01*
X0118027Y0104309D02*
X0121836Y0104309D01*
X0122648Y0101112D02*
X0124717Y0101112D01*
X0124713Y0099514D02*
X0122652Y0099514D01*
X0122652Y0097915D02*
X0124713Y0097915D01*
X0124713Y0096317D02*
X0123208Y0096317D01*
X0123208Y0094718D02*
X0125031Y0094718D01*
X0126204Y0093120D02*
X0123208Y0093120D01*
X0123134Y0091521D02*
X0140512Y0091521D01*
X0136810Y0089923D02*
X0116577Y0089923D01*
X0116466Y0091521D02*
X0114978Y0091521D01*
X0116392Y0093120D02*
X0112881Y0093120D01*
X0112897Y0094718D02*
X0116392Y0094718D01*
X0114384Y0096317D02*
X0112897Y0096317D01*
X0112897Y0097915D02*
X0113573Y0097915D01*
X0113573Y0099514D02*
X0112897Y0099514D01*
X0112897Y0101112D02*
X0113573Y0101112D01*
X0113573Y0102711D02*
X0112021Y0102711D01*
X0113573Y0104309D02*
X0110211Y0104309D01*
X0103344Y0101731D02*
X0102505Y0100892D01*
X0102046Y0100892D01*
X0102046Y0098392D01*
X0097872Y0098392D01*
X0097872Y0096842D01*
X0102046Y0096842D01*
X0102046Y0093837D01*
X0101924Y0093379D01*
X0101858Y0093265D01*
X0101858Y0085527D01*
X0103329Y0085527D01*
X0103329Y0093797D01*
X0103344Y0093812D01*
X0103344Y0101731D01*
X0103344Y0101112D02*
X0102725Y0101112D01*
X0103344Y0099514D02*
X0102046Y0099514D01*
X0103344Y0097915D02*
X0097872Y0097915D01*
X0097872Y0098392D02*
X0096322Y0098392D01*
X0096322Y0102961D01*
X0093710Y0102961D01*
X0093252Y0102838D01*
X0092842Y0102601D01*
X0092507Y0102266D01*
X0092393Y0102069D01*
X0091755Y0102708D01*
X0088050Y0102708D01*
X0087641Y0103117D01*
X0080781Y0103117D01*
X0079932Y0102268D01*
X0079932Y0104256D01*
X0080781Y0103407D01*
X0087641Y0103407D01*
X0088594Y0104360D01*
X0088594Y0105823D01*
X0096642Y0105823D01*
X0096642Y0101845D01*
X0097595Y0100892D01*
X0097872Y0100892D01*
X0097872Y0098392D01*
X0097872Y0099514D02*
X0096322Y0099514D01*
X0096322Y0101112D02*
X0097375Y0101112D01*
X0096642Y0102711D02*
X0096322Y0102711D01*
X0096642Y0104309D02*
X0088543Y0104309D01*
X0088047Y0102711D02*
X0093032Y0102711D01*
X0102046Y0096317D02*
X0103344Y0096317D01*
X0103344Y0094718D02*
X0102046Y0094718D01*
X0101858Y0093120D02*
X0103329Y0093120D01*
X0103329Y0091521D02*
X0101858Y0091521D01*
X0101858Y0089923D02*
X0103329Y0089923D01*
X0103329Y0088324D02*
X0101858Y0088324D01*
X0101858Y0086726D02*
X0103329Y0086726D01*
X0118027Y0086726D02*
X0136142Y0086726D01*
X0136142Y0088324D02*
X0118027Y0088324D01*
X0119176Y0085127D02*
X0128517Y0085127D01*
X0128313Y0085009D02*
X0127978Y0084674D01*
X0127741Y0084264D01*
X0127618Y0083806D01*
X0127618Y0081785D01*
X0131891Y0081785D01*
X0131891Y0085369D01*
X0129181Y0085369D01*
X0128723Y0085246D01*
X0128313Y0085009D01*
X0127618Y0083529D02*
X0120061Y0083529D01*
X0120061Y0081930D02*
X0127618Y0081930D01*
X0127618Y0080332D02*
X0120061Y0080332D01*
X0119835Y0078733D02*
X0127859Y0078733D01*
X0127677Y0077134D02*
X0120061Y0077134D01*
X0120061Y0075536D02*
X0127618Y0075536D01*
X0127618Y0074526D02*
X0127618Y0072505D01*
X0127741Y0072047D01*
X0127978Y0071637D01*
X0128313Y0071302D01*
X0128375Y0071266D01*
X0128313Y0071230D01*
X0127978Y0070895D01*
X0127741Y0070484D01*
X0127618Y0070026D01*
X0127618Y0068005D01*
X0131891Y0068005D01*
X0131891Y0071589D01*
X0131891Y0074526D01*
X0127618Y0074526D01*
X0127618Y0073937D02*
X0120061Y0073937D01*
X0120061Y0072339D02*
X0127663Y0072339D01*
X0127889Y0070740D02*
X0119783Y0070740D01*
X0120061Y0069142D02*
X0127618Y0069142D01*
X0127618Y0067543D02*
X0120061Y0067543D01*
X0120061Y0065945D02*
X0127618Y0065945D01*
X0131891Y0065945D02*
X0132260Y0065945D01*
X0132260Y0067543D02*
X0131891Y0067543D01*
X0131891Y0067637D02*
X0132260Y0067637D01*
X0132260Y0064052D01*
X0133536Y0064052D01*
X0133536Y0054629D01*
X0134489Y0053676D01*
X0138144Y0053676D01*
X0138144Y0053465D01*
X0138144Y0052543D01*
X0138266Y0052086D01*
X0138317Y0051998D01*
X0138317Y0047256D01*
X0138266Y0047168D01*
X0138144Y0046710D01*
X0138144Y0045788D01*
X0138144Y0044866D01*
X0138266Y0044408D01*
X0138317Y0044321D01*
X0138317Y0037019D01*
X0138266Y0036932D01*
X0138144Y0036474D01*
X0138144Y0035552D01*
X0142694Y0035552D01*
X0147244Y0035552D01*
X0147244Y0036474D01*
X0147121Y0036932D01*
X0147070Y0037019D01*
X0147070Y0038443D01*
X0148758Y0038443D01*
X0154823Y0032378D01*
X0156128Y0031073D01*
X0156392Y0031073D01*
X0156392Y0030845D01*
X0157345Y0029892D01*
X0159743Y0029892D01*
X0159573Y0029722D01*
X0159573Y0023878D01*
X0161573Y0021878D01*
X0161756Y0021694D01*
X0160834Y0021694D01*
X0159881Y0020742D01*
X0159881Y0018797D01*
X0159199Y0018751D01*
X0158352Y0018751D01*
X0158291Y0018690D01*
X0158204Y0018684D01*
X0157647Y0018046D01*
X0157559Y0017958D01*
X0156076Y0017958D01*
X0156076Y0021258D01*
X0155123Y0022211D01*
X0147476Y0022211D01*
X0146523Y0021258D01*
X0146523Y0012824D01*
X0147476Y0011871D01*
X0149073Y0011871D01*
X0149073Y0011027D01*
X0129426Y0011027D01*
X0130277Y0011878D01*
X0130277Y0013853D01*
X0132143Y0013853D01*
X0133096Y0014806D01*
X0133096Y0014892D01*
X0135500Y0014892D01*
X0135500Y0012824D01*
X0136453Y0011871D01*
X0144099Y0011871D01*
X0145052Y0012824D01*
X0145052Y0021258D01*
X0144099Y0022211D01*
X0142503Y0022211D01*
X0142503Y0022246D01*
X0141198Y0023551D01*
X0136107Y0028642D01*
X0138317Y0028642D01*
X0138317Y0026516D01*
X0139270Y0025563D01*
X0146118Y0025563D01*
X0147070Y0026516D01*
X0147070Y0031526D01*
X0147121Y0031613D01*
X0147244Y0032071D01*
X0147244Y0032993D01*
X0147244Y0033915D01*
X0147148Y0034272D01*
X0147244Y0034630D01*
X0147244Y0035552D01*
X0142694Y0035552D01*
X0142694Y0035552D01*
X0142694Y0033067D01*
X0142694Y0032993D01*
X0147244Y0032993D01*
X0142694Y0032993D01*
X0142694Y0032993D01*
X0142694Y0032993D01*
X0142694Y0035552D01*
X0142694Y0035552D01*
X0142694Y0035552D01*
X0138144Y0035552D01*
X0138144Y0035458D01*
X0133845Y0035458D01*
X0132892Y0034505D01*
X0132892Y0033680D01*
X0132143Y0034429D01*
X0123919Y0034429D01*
X0123864Y0034484D01*
X0120765Y0034484D01*
X0120472Y0034777D01*
X0115215Y0040034D01*
X0115280Y0040274D01*
X0115280Y0041611D01*
X0115280Y0042948D01*
X0115157Y0043406D01*
X0115106Y0043493D01*
X0115106Y0044642D01*
X0117059Y0044642D01*
X0119239Y0042462D01*
X0119239Y0039099D01*
X0120192Y0038146D01*
X0130988Y0038146D01*
X0131941Y0039099D01*
X0131941Y0047927D01*
X0130988Y0048880D01*
X0120208Y0048880D01*
X0120208Y0050505D01*
X0119255Y0051458D01*
X0115106Y0051458D01*
X0115106Y0052834D01*
X0114170Y0053770D01*
X0117041Y0056642D01*
X0119239Y0056642D01*
X0119239Y0055299D01*
X0120192Y0054346D01*
X0130988Y0054346D01*
X0131941Y0055299D01*
X0131941Y0064127D01*
X0131891Y0064177D01*
X0131891Y0067637D01*
X0131891Y0069142D02*
X0132260Y0069142D01*
X0132260Y0070740D02*
X0131891Y0070740D01*
X0131891Y0072339D02*
X0132260Y0072339D01*
X0132260Y0073937D02*
X0131891Y0073937D01*
X0132260Y0074526D02*
X0132260Y0074895D01*
X0136533Y0074895D01*
X0136533Y0076454D01*
X0137095Y0075892D01*
X0140512Y0075892D01*
X0140512Y0074208D01*
X0137095Y0074208D01*
X0136533Y0073646D01*
X0136533Y0074526D01*
X0132260Y0074526D01*
X0132260Y0074895D02*
X0131891Y0074895D01*
X0131891Y0081416D01*
X0132260Y0081416D01*
X0132260Y0077832D01*
X0132260Y0074895D01*
X0132260Y0075536D02*
X0131891Y0075536D01*
X0131891Y0077134D02*
X0132260Y0077134D01*
X0132260Y0078733D02*
X0131891Y0078733D01*
X0131891Y0080332D02*
X0132260Y0080332D01*
X0132260Y0081930D02*
X0131891Y0081930D01*
X0131891Y0083529D02*
X0132260Y0083529D01*
X0132260Y0085127D02*
X0131891Y0085127D01*
X0135634Y0085127D02*
X0136142Y0085127D01*
X0150065Y0085127D02*
X0151362Y0085127D01*
X0151362Y0083529D02*
X0150065Y0083529D01*
X0150065Y0081930D02*
X0151362Y0081930D01*
X0151362Y0080332D02*
X0150065Y0080332D01*
X0150065Y0078733D02*
X0155537Y0078733D01*
X0155537Y0077134D02*
X0157087Y0077134D01*
X0157087Y0075536D02*
X0155537Y0075536D01*
X0155537Y0073937D02*
X0157087Y0073937D01*
X0157087Y0072339D02*
X0155537Y0072339D01*
X0155537Y0070740D02*
X0150065Y0070740D01*
X0151362Y0070025D02*
X0151362Y0067020D01*
X0151485Y0066562D01*
X0151722Y0066151D01*
X0152057Y0065816D01*
X0152467Y0065579D01*
X0152925Y0065457D01*
X0155537Y0065457D01*
X0155537Y0070025D01*
X0151362Y0070025D01*
X0151362Y0069142D02*
X0150065Y0069142D01*
X0150065Y0067543D02*
X0151362Y0067543D01*
X0151928Y0065945D02*
X0149427Y0065945D01*
X0146824Y0062748D02*
X0161711Y0062748D01*
X0163309Y0064346D02*
X0140352Y0064346D01*
X0141150Y0065945D02*
X0136533Y0065945D01*
X0136533Y0067543D02*
X0136944Y0067543D01*
X0132260Y0064346D02*
X0131891Y0064346D01*
X0131941Y0062748D02*
X0133536Y0062748D01*
X0133536Y0061149D02*
X0131941Y0061149D01*
X0131941Y0059551D02*
X0133536Y0059551D01*
X0133536Y0057952D02*
X0131941Y0057952D01*
X0131941Y0056354D02*
X0133536Y0056354D01*
X0133536Y0054755D02*
X0131398Y0054755D01*
X0138144Y0053465D02*
X0142694Y0053465D01*
X0138144Y0053465D01*
X0138144Y0053157D02*
X0114783Y0053157D01*
X0115106Y0051558D02*
X0138317Y0051558D01*
X0138317Y0049960D02*
X0120208Y0049960D01*
X0119783Y0054755D02*
X0115154Y0054755D01*
X0116753Y0056354D02*
X0119239Y0056354D01*
X0113652Y0059551D02*
X0107830Y0059551D01*
X0107830Y0057952D02*
X0112053Y0057952D01*
X0110455Y0056354D02*
X0107830Y0056354D01*
X0107830Y0054755D02*
X0108856Y0054755D01*
X0107330Y0061149D02*
X0113892Y0061149D01*
X0114135Y0062748D02*
X0107330Y0062748D01*
X0107330Y0064346D02*
X0112324Y0064346D01*
X0108506Y0065945D02*
X0107330Y0065945D01*
X0119228Y0064346D02*
X0119458Y0064346D01*
X0136533Y0073937D02*
X0136825Y0073937D01*
X0136533Y0075536D02*
X0140512Y0075536D01*
X0150065Y0075536D02*
X0151362Y0075536D01*
X0151362Y0077134D02*
X0150065Y0077134D01*
X0150065Y0073937D02*
X0151362Y0073937D01*
X0151362Y0072339D02*
X0150065Y0072339D01*
X0155537Y0069142D02*
X0157087Y0069142D01*
X0157087Y0067543D02*
X0155537Y0067543D01*
X0155537Y0065945D02*
X0157087Y0065945D01*
X0154063Y0061149D02*
X0160112Y0061149D01*
X0158514Y0059551D02*
X0154208Y0059551D01*
X0154208Y0057952D02*
X0156915Y0057952D01*
X0155317Y0056354D02*
X0154208Y0056354D01*
X0153718Y0054755D02*
X0150154Y0054755D01*
X0150501Y0055102D02*
X0150501Y0055102D01*
X0152120Y0053157D02*
X0147244Y0053157D01*
X0147070Y0051558D02*
X0150521Y0051558D01*
X0153622Y0048361D02*
X0155962Y0048361D01*
X0155221Y0049960D02*
X0157561Y0049960D01*
X0156819Y0051558D02*
X0159159Y0051558D01*
X0158418Y0053157D02*
X0160758Y0053157D01*
X0160016Y0054755D02*
X0162356Y0054755D01*
X0162642Y0055041D02*
X0153057Y0045456D01*
X0147244Y0045456D01*
X0147244Y0045788D01*
X0142694Y0045788D01*
X0142694Y0045788D01*
X0147244Y0045788D01*
X0147244Y0046120D01*
X0151381Y0046120D01*
X0152686Y0047425D01*
X0162642Y0057381D01*
X0162642Y0055041D01*
X0162642Y0056354D02*
X0161615Y0056354D01*
X0165791Y0051892D02*
X0167104Y0051892D01*
X0167104Y0044697D01*
X0167054Y0044609D01*
X0166931Y0044151D01*
X0166931Y0043229D01*
X0166931Y0042307D01*
X0167054Y0041849D01*
X0167104Y0041762D01*
X0167104Y0041458D01*
X0163095Y0041458D01*
X0162142Y0040505D01*
X0162142Y0036708D01*
X0157345Y0036708D01*
X0157068Y0036431D01*
X0152497Y0041002D01*
X0154901Y0041002D01*
X0165791Y0051892D01*
X0165457Y0051558D02*
X0167104Y0051558D01*
X0167104Y0049960D02*
X0163859Y0049960D01*
X0162260Y0048361D02*
X0167104Y0048361D01*
X0167104Y0046763D02*
X0160662Y0046763D01*
X0159063Y0045164D02*
X0167104Y0045164D01*
X0166931Y0043566D02*
X0157465Y0043566D01*
X0155866Y0041967D02*
X0167022Y0041967D01*
X0166931Y0043229D02*
X0171481Y0043229D01*
X0171481Y0043229D01*
X0166931Y0043229D01*
X0162142Y0040369D02*
X0153130Y0040369D01*
X0154729Y0038770D02*
X0162142Y0038770D01*
X0162142Y0037172D02*
X0156327Y0037172D01*
X0151628Y0035573D02*
X0147244Y0035573D01*
X0147228Y0033975D02*
X0153226Y0033975D01*
X0154825Y0032376D02*
X0147244Y0032376D01*
X0147070Y0030778D02*
X0156460Y0030778D01*
X0159573Y0029179D02*
X0147070Y0029179D01*
X0147070Y0027581D02*
X0159573Y0027581D01*
X0159573Y0025982D02*
X0146537Y0025982D01*
X0141964Y0022785D02*
X0160666Y0022785D01*
X0160326Y0021187D02*
X0156076Y0021187D01*
X0156076Y0019588D02*
X0159881Y0019588D01*
X0157590Y0017990D02*
X0156076Y0017990D01*
X0146523Y0017990D02*
X0145052Y0017990D01*
X0145052Y0019588D02*
X0146523Y0019588D01*
X0146523Y0021187D02*
X0145052Y0021187D01*
X0140365Y0024384D02*
X0159573Y0024384D01*
X0146523Y0016391D02*
X0145052Y0016391D01*
X0145052Y0014793D02*
X0146523Y0014793D01*
X0146523Y0013194D02*
X0145052Y0013194D01*
X0149073Y0011596D02*
X0129995Y0011596D01*
X0130277Y0013194D02*
X0135500Y0013194D01*
X0135500Y0014793D02*
X0133083Y0014793D01*
X0138767Y0025982D02*
X0138851Y0025982D01*
X0138317Y0027581D02*
X0137168Y0027581D01*
X0132892Y0033975D02*
X0132598Y0033975D01*
X0138144Y0035573D02*
X0119676Y0035573D01*
X0118077Y0037172D02*
X0138317Y0037172D01*
X0138317Y0038770D02*
X0131613Y0038770D01*
X0131941Y0040369D02*
X0138317Y0040369D01*
X0138317Y0041967D02*
X0131941Y0041967D01*
X0131941Y0043566D02*
X0138317Y0043566D01*
X0138144Y0045164D02*
X0131941Y0045164D01*
X0131941Y0046763D02*
X0138158Y0046763D01*
X0138144Y0045788D02*
X0142694Y0045788D01*
X0138144Y0045788D01*
X0138317Y0048361D02*
X0131507Y0048361D01*
X0142694Y0045788D02*
X0142694Y0045788D01*
X0152024Y0046763D02*
X0154364Y0046763D01*
X0152686Y0047425D02*
X0152686Y0047425D01*
X0142694Y0053465D02*
X0142694Y0053465D01*
X0147070Y0059551D02*
X0147392Y0059551D01*
X0147537Y0061149D02*
X0147070Y0061149D01*
X0164288Y0070800D02*
X0164288Y0078800D01*
X0164288Y0086800D01*
X0157087Y0088324D02*
X0155537Y0088324D01*
X0155537Y0086726D02*
X0150065Y0086726D01*
X0150065Y0088324D02*
X0151362Y0088324D01*
X0151362Y0089923D02*
X0150065Y0089923D01*
X0150065Y0091521D02*
X0151362Y0091521D01*
X0151362Y0093120D02*
X0150065Y0093120D01*
X0150065Y0094718D02*
X0155537Y0094718D01*
X0157087Y0094718D02*
X0163819Y0094718D01*
X0165323Y0096317D02*
X0161261Y0096317D01*
X0157087Y0096317D02*
X0155537Y0096317D01*
X0155537Y0097915D02*
X0157087Y0097915D01*
X0157087Y0099514D02*
X0155537Y0099514D01*
X0155537Y0101112D02*
X0157087Y0101112D01*
X0155537Y0102711D02*
X0150065Y0102711D01*
X0150065Y0104309D02*
X0151362Y0104309D01*
X0151362Y0105908D02*
X0150065Y0105908D01*
X0150065Y0107506D02*
X0151476Y0107506D01*
X0155537Y0107506D02*
X0157087Y0107506D01*
X0157087Y0105908D02*
X0155537Y0105908D01*
X0155537Y0104309D02*
X0157087Y0104309D01*
X0151362Y0101112D02*
X0150065Y0101112D01*
X0150065Y0099514D02*
X0151364Y0099514D01*
X0151362Y0097915D02*
X0150065Y0097915D01*
X0150065Y0096317D02*
X0151362Y0096317D01*
X0155537Y0093120D02*
X0157087Y0093120D01*
X0157087Y0091521D02*
X0155537Y0091521D01*
X0155537Y0089923D02*
X0157087Y0089923D01*
X0161261Y0093120D02*
X0162220Y0093120D01*
X0157087Y0085127D02*
X0155537Y0085127D01*
X0155537Y0083529D02*
X0157087Y0083529D01*
X0157087Y0081930D02*
X0155537Y0081930D01*
X0155537Y0080332D02*
X0157087Y0080332D01*
X0169065Y0073937D02*
X0170535Y0073937D01*
X0170535Y0072339D02*
X0169065Y0072339D01*
X0169065Y0070740D02*
X0170535Y0070740D01*
X0170535Y0069142D02*
X0169065Y0069142D01*
X0169065Y0067543D02*
X0170535Y0067543D01*
X0183527Y0091521D02*
X0184566Y0091521D01*
X0183917Y0093120D02*
X0183527Y0093120D01*
X0183527Y0094718D02*
X0183917Y0094718D01*
X0183917Y0096317D02*
X0183527Y0096317D01*
X0183527Y0097915D02*
X0183917Y0097915D01*
X0183663Y0099514D02*
X0184892Y0099514D01*
X0179073Y0094718D02*
X0178708Y0094718D01*
X0178708Y0093120D02*
X0179073Y0093120D01*
X0159073Y0109105D02*
X0150004Y0109105D01*
X0151602Y0110703D02*
X0159073Y0110703D01*
X0159073Y0112302D02*
X0155458Y0112302D01*
X0155458Y0113900D02*
X0159073Y0113900D01*
X0158702Y0115499D02*
X0155458Y0115499D01*
X0148984Y0117097D02*
X0134428Y0117097D01*
X0136055Y0115499D02*
X0148642Y0115499D01*
X0148501Y0113900D02*
X0137681Y0113900D01*
X0139307Y0112302D02*
X0146903Y0112302D01*
X0145304Y0110703D02*
X0140933Y0110703D01*
X0142559Y0109105D02*
X0143706Y0109105D01*
X0139459Y0105908D02*
X0130132Y0105908D01*
X0130132Y0107506D02*
X0137833Y0107506D01*
X0136206Y0109105D02*
X0130132Y0109105D01*
X0130958Y0110703D02*
X0134580Y0110703D01*
X0132954Y0112302D02*
X0130958Y0112302D01*
X0130958Y0113900D02*
X0131328Y0113900D01*
X0132988Y0126688D02*
X0134285Y0126688D01*
X0134285Y0128287D02*
X0132988Y0128287D01*
X0166310Y0110703D02*
X0179784Y0110703D01*
X0140512Y0101112D02*
X0130128Y0101112D01*
X0130132Y0099514D02*
X0140512Y0099514D01*
X0140512Y0097915D02*
X0130132Y0097915D01*
X0082073Y0116208D02*
X0081845Y0116208D01*
X0080892Y0115255D01*
X0080892Y0110598D01*
X0080781Y0110598D01*
X0079828Y0109645D01*
X0079828Y0106008D01*
X0078979Y0106857D01*
X0072120Y0106857D01*
X0071167Y0105905D01*
X0071167Y0105527D01*
X0070628Y0105527D01*
X0069323Y0104222D01*
X0069188Y0104087D01*
X0068976Y0104299D01*
X0068566Y0104536D01*
X0068108Y0104659D01*
X0064721Y0104659D01*
X0061335Y0104659D01*
X0060877Y0104536D01*
X0060466Y0104299D01*
X0060131Y0103964D01*
X0059894Y0103554D01*
X0059772Y0103096D01*
X0059772Y0101284D01*
X0059772Y0099472D01*
X0059894Y0099015D01*
X0059988Y0098852D01*
X0059945Y0098808D01*
X0059945Y0094311D01*
X0060058Y0094198D01*
X0059945Y0094084D01*
X0059945Y0089587D01*
X0060058Y0089473D01*
X0059945Y0089360D01*
X0059945Y0086304D01*
X0048777Y0097472D01*
X0047472Y0098777D01*
X0031458Y0098777D01*
X0031458Y0099005D01*
X0030505Y0099958D01*
X0025595Y0099958D01*
X0025527Y0099890D01*
X0025527Y0102222D01*
X0024222Y0103527D01*
X0017529Y0103527D01*
X0017529Y0103533D01*
X0016576Y0104486D01*
X0008929Y0104486D01*
X0008600Y0104156D01*
X0008600Y0125190D01*
X0009362Y0124428D01*
X0010916Y0123784D01*
X0012597Y0123784D01*
X0014151Y0124428D01*
X0015340Y0125617D01*
X0015983Y0127170D01*
X0015983Y0134052D01*
X0015340Y0135605D01*
X0014151Y0136794D01*
X0014027Y0136846D01*
X0014027Y0136878D01*
X0017472Y0140323D01*
X0043855Y0140323D01*
X0043474Y0139942D01*
X0043474Y0133082D01*
X0044427Y0132129D01*
X0052073Y0132129D01*
X0053026Y0133082D01*
X0053026Y0134285D01*
X0054224Y0134285D01*
X0054224Y0133082D01*
X0055177Y0132129D01*
X0062823Y0132129D01*
X0063776Y0133082D01*
X0063776Y0134285D01*
X0063892Y0134285D01*
X0063892Y0134095D01*
X0064845Y0133142D01*
X0069755Y0133142D01*
X0070708Y0134095D01*
X0070708Y0139005D01*
X0069755Y0139958D01*
X0064845Y0139958D01*
X0063892Y0139005D01*
X0063892Y0138739D01*
X0063776Y0138739D01*
X0063776Y0139942D01*
X0063395Y0140323D01*
X0085424Y0140323D01*
X0080628Y0135527D01*
X0079323Y0134222D01*
X0079323Y0123628D01*
X0082073Y0120878D01*
X0082073Y0116208D01*
X0082073Y0117097D02*
X0058368Y0117097D01*
X0058368Y0117116D02*
X0057415Y0118068D01*
X0052917Y0118068D01*
X0052874Y0118025D01*
X0052711Y0118119D01*
X0052254Y0118242D01*
X0050442Y0118242D01*
X0050442Y0113292D01*
X0050442Y0108343D01*
X0052254Y0108343D01*
X0052711Y0108465D01*
X0052874Y0108559D01*
X0052917Y0108516D01*
X0057415Y0108516D01*
X0058368Y0109469D01*
X0058368Y0117116D01*
X0058368Y0115499D02*
X0081136Y0115499D01*
X0080892Y0113900D02*
X0058368Y0113900D01*
X0058368Y0112302D02*
X0080892Y0112302D01*
X0080892Y0110703D02*
X0058368Y0110703D01*
X0058004Y0109105D02*
X0079828Y0109105D01*
X0079828Y0107506D02*
X0008600Y0107506D01*
X0008600Y0105908D02*
X0071170Y0105908D01*
X0069410Y0104309D02*
X0068959Y0104309D01*
X0064721Y0104309D02*
X0064721Y0104309D01*
X0064721Y0104659D02*
X0064721Y0101284D01*
X0059772Y0101284D01*
X0064721Y0101284D01*
X0064721Y0101284D01*
X0064721Y0101284D01*
X0064721Y0099761D01*
X0064721Y0099761D01*
X0064721Y0101284D01*
X0064721Y0101284D01*
X0064721Y0104659D01*
X0060483Y0104309D02*
X0016753Y0104309D01*
X0019559Y0108516D02*
X0024057Y0108516D01*
X0024100Y0108559D01*
X0024263Y0108465D01*
X0024720Y0108343D01*
X0026532Y0108343D01*
X0026532Y0113292D01*
X0026532Y0113292D01*
X0026532Y0118242D01*
X0024720Y0118242D01*
X0024263Y0118119D01*
X0024100Y0118025D01*
X0024057Y0118068D01*
X0019559Y0118068D01*
X0019553Y0118062D01*
X0019553Y0118745D01*
X0018829Y0120492D01*
X0017492Y0121829D01*
X0015745Y0122553D01*
X0013855Y0122553D01*
X0012108Y0121829D01*
X0010771Y0120492D01*
X0010047Y0118745D01*
X0010047Y0116855D01*
X0010771Y0115108D01*
X0012108Y0113771D01*
X0013855Y0113047D01*
X0015745Y0113047D01*
X0017492Y0113771D01*
X0018606Y0114885D01*
X0018606Y0109469D01*
X0019559Y0108516D01*
X0018970Y0109105D02*
X0008600Y0109105D01*
X0008600Y0110703D02*
X0018606Y0110703D01*
X0018606Y0112302D02*
X0008600Y0112302D01*
X0008600Y0113900D02*
X0011978Y0113900D01*
X0010609Y0115499D02*
X0008600Y0115499D01*
X0008600Y0117097D02*
X0010047Y0117097D01*
X0010047Y0118696D02*
X0008600Y0118696D01*
X0008600Y0120294D02*
X0010689Y0120294D01*
X0012261Y0121893D02*
X0008600Y0121893D01*
X0008600Y0123491D02*
X0043300Y0123491D01*
X0043300Y0122495D02*
X0043423Y0122037D01*
X0043660Y0121627D01*
X0043995Y0121292D01*
X0044406Y0121055D01*
X0044863Y0120932D01*
X0047672Y0120932D01*
X0047672Y0124910D01*
X0048828Y0124910D01*
X0048828Y0120932D01*
X0051637Y0120932D01*
X0052094Y0121055D01*
X0052505Y0121292D01*
X0052840Y0121627D01*
X0053077Y0122037D01*
X0053200Y0122495D01*
X0053200Y0124910D01*
X0048828Y0124910D01*
X0048828Y0126066D01*
X0053200Y0126066D01*
X0053200Y0128481D01*
X0053077Y0128939D01*
X0052840Y0129349D01*
X0052505Y0129684D01*
X0052094Y0129921D01*
X0051637Y0130044D01*
X0048828Y0130044D01*
X0048828Y0126066D01*
X0047672Y0126066D01*
X0047672Y0124910D01*
X0043300Y0124910D01*
X0043300Y0122495D01*
X0043507Y0121893D02*
X0017339Y0121893D01*
X0018911Y0120294D02*
X0082073Y0120294D01*
X0082073Y0118696D02*
X0019553Y0118696D01*
X0018606Y0113900D02*
X0017622Y0113900D01*
X0026532Y0113900D02*
X0026532Y0113900D01*
X0026532Y0113292D02*
X0026532Y0113292D01*
X0026532Y0108343D01*
X0028344Y0108343D01*
X0028802Y0108465D01*
X0028965Y0108559D01*
X0029008Y0108516D01*
X0033505Y0108516D01*
X0033619Y0108629D01*
X0033732Y0108516D01*
X0038230Y0108516D01*
X0038487Y0108773D01*
X0038744Y0108516D01*
X0043242Y0108516D01*
X0043355Y0108629D01*
X0043469Y0108516D01*
X0047966Y0108516D01*
X0048009Y0108559D01*
X0048172Y0108465D01*
X0048630Y0108343D01*
X0050442Y0108343D01*
X0050442Y0113292D01*
X0050442Y0113292D01*
X0050442Y0113292D01*
X0050442Y0118242D01*
X0048630Y0118242D01*
X0048172Y0118119D01*
X0048009Y0118025D01*
X0047966Y0118068D01*
X0043469Y0118068D01*
X0043355Y0117955D01*
X0043242Y0118068D01*
X0038744Y0118068D01*
X0038487Y0117811D01*
X0038230Y0118068D01*
X0033732Y0118068D01*
X0033619Y0117955D01*
X0033505Y0118068D01*
X0029008Y0118068D01*
X0028965Y0118025D01*
X0028802Y0118119D01*
X0028344Y0118242D01*
X0026532Y0118242D01*
X0026532Y0113292D01*
X0026532Y0112302D02*
X0026532Y0112302D01*
X0026532Y0110703D02*
X0026532Y0110703D01*
X0026532Y0109105D02*
X0026532Y0109105D01*
X0026532Y0115499D02*
X0026532Y0115499D01*
X0026532Y0117097D02*
X0026532Y0117097D01*
X0030068Y0123933D02*
X0030726Y0123719D01*
X0031410Y0123611D01*
X0031757Y0123611D01*
X0032103Y0123611D01*
X0032787Y0123719D01*
X0033446Y0123933D01*
X0034063Y0124248D01*
X0034623Y0124655D01*
X0035113Y0125145D01*
X0035520Y0125705D01*
X0035834Y0126322D01*
X0036048Y0126981D01*
X0036157Y0127665D01*
X0036157Y0130611D01*
X0036157Y0133557D01*
X0036048Y0134241D01*
X0035834Y0134900D01*
X0035520Y0135517D01*
X0035113Y0136077D01*
X0034623Y0136567D01*
X0034063Y0136974D01*
X0033446Y0137289D01*
X0032787Y0137503D01*
X0032103Y0137611D01*
X0031757Y0137611D01*
X0031757Y0130611D01*
X0031757Y0130611D01*
X0036157Y0130611D01*
X0031757Y0130611D01*
X0031757Y0123611D01*
X0031757Y0130611D01*
X0031757Y0130611D01*
X0031757Y0130611D01*
X0031757Y0137611D01*
X0031410Y0137611D01*
X0030726Y0137503D01*
X0030068Y0137289D01*
X0029451Y0136974D01*
X0028890Y0136567D01*
X0028401Y0136077D01*
X0027993Y0135517D01*
X0027679Y0134900D01*
X0027465Y0134241D01*
X0027357Y0133557D01*
X0027357Y0130611D01*
X0027357Y0127665D01*
X0027465Y0126981D01*
X0027679Y0126322D01*
X0027993Y0125705D01*
X0028401Y0125145D01*
X0028890Y0124655D01*
X0029451Y0124248D01*
X0030068Y0123933D01*
X0028455Y0125090D02*
X0024813Y0125090D01*
X0025340Y0125617D02*
X0025983Y0127170D01*
X0025983Y0134052D01*
X0025340Y0135605D01*
X0024151Y0136794D01*
X0022597Y0137438D01*
X0020916Y0137438D01*
X0019362Y0136794D01*
X0018173Y0135605D01*
X0017530Y0134052D01*
X0017530Y0127170D01*
X0018173Y0125617D01*
X0019362Y0124428D01*
X0020916Y0123784D01*
X0022597Y0123784D01*
X0024151Y0124428D01*
X0025340Y0125617D01*
X0025784Y0126688D02*
X0027560Y0126688D01*
X0027357Y0128287D02*
X0025983Y0128287D01*
X0025983Y0129885D02*
X0027357Y0129885D01*
X0027357Y0130611D02*
X0031757Y0130611D01*
X0031757Y0130611D01*
X0027357Y0130611D01*
X0027357Y0131484D02*
X0025983Y0131484D01*
X0025983Y0133082D02*
X0027357Y0133082D01*
X0027608Y0134681D02*
X0025723Y0134681D01*
X0024666Y0136279D02*
X0028603Y0136279D01*
X0031757Y0136279D02*
X0031757Y0136279D01*
X0031757Y0134681D02*
X0031757Y0134681D01*
X0031757Y0133082D02*
X0031757Y0133082D01*
X0031757Y0131484D02*
X0031757Y0131484D01*
X0031757Y0129885D02*
X0031757Y0129885D01*
X0031757Y0128287D02*
X0031757Y0128287D01*
X0031757Y0126688D02*
X0031757Y0126688D01*
X0031757Y0125090D02*
X0031757Y0125090D01*
X0035058Y0125090D02*
X0047672Y0125090D01*
X0047672Y0126066D02*
X0043300Y0126066D01*
X0043300Y0128481D01*
X0043423Y0128939D01*
X0043660Y0129349D01*
X0043995Y0129684D01*
X0044406Y0129921D01*
X0044863Y0130044D01*
X0047672Y0130044D01*
X0047672Y0126066D01*
X0047672Y0126688D02*
X0048828Y0126688D01*
X0048828Y0125090D02*
X0058422Y0125090D01*
X0058422Y0124910D02*
X0054050Y0124910D01*
X0054050Y0122495D01*
X0054173Y0122037D01*
X0054410Y0121627D01*
X0054745Y0121292D01*
X0055156Y0121055D01*
X0055613Y0120932D01*
X0058422Y0120932D01*
X0058422Y0124910D01*
X0059578Y0124910D01*
X0059578Y0120932D01*
X0062387Y0120932D01*
X0062844Y0121055D01*
X0063255Y0121292D01*
X0063590Y0121627D01*
X0063827Y0122037D01*
X0063950Y0122495D01*
X0063950Y0124910D01*
X0059578Y0124910D01*
X0059578Y0126066D01*
X0063950Y0126066D01*
X0063950Y0128481D01*
X0063827Y0128939D01*
X0063590Y0129349D01*
X0063255Y0129684D01*
X0062844Y0129921D01*
X0062387Y0130044D01*
X0059578Y0130044D01*
X0059578Y0126066D01*
X0058422Y0126066D01*
X0058422Y0124910D01*
X0058422Y0126066D02*
X0054050Y0126066D01*
X0054050Y0128481D01*
X0054173Y0128939D01*
X0054410Y0129349D01*
X0054745Y0129684D01*
X0055156Y0129921D01*
X0055613Y0130044D01*
X0058422Y0130044D01*
X0058422Y0126066D01*
X0058422Y0126688D02*
X0059578Y0126688D01*
X0059578Y0125090D02*
X0079323Y0125090D01*
X0079323Y0126688D02*
X0063950Y0126688D01*
X0063950Y0128287D02*
X0079323Y0128287D01*
X0079323Y0129885D02*
X0062907Y0129885D01*
X0063776Y0133082D02*
X0079323Y0133082D01*
X0079323Y0131484D02*
X0036157Y0131484D01*
X0036157Y0133082D02*
X0043474Y0133082D01*
X0043474Y0134681D02*
X0035906Y0134681D01*
X0034911Y0136279D02*
X0043474Y0136279D01*
X0043474Y0137878D02*
X0015027Y0137878D01*
X0014666Y0136279D02*
X0018848Y0136279D01*
X0017791Y0134681D02*
X0015723Y0134681D01*
X0015983Y0133082D02*
X0017530Y0133082D01*
X0017530Y0131484D02*
X0015983Y0131484D01*
X0015983Y0129885D02*
X0017530Y0129885D01*
X0017530Y0128287D02*
X0015983Y0128287D01*
X0015784Y0126688D02*
X0017730Y0126688D01*
X0018700Y0125090D02*
X0014813Y0125090D01*
X0008700Y0125090D02*
X0008600Y0125090D01*
X0016626Y0139476D02*
X0043474Y0139476D01*
X0053026Y0133082D02*
X0054224Y0133082D01*
X0055093Y0129885D02*
X0052157Y0129885D01*
X0053200Y0128287D02*
X0054050Y0128287D01*
X0054050Y0126688D02*
X0053200Y0126688D01*
X0053200Y0123491D02*
X0054050Y0123491D01*
X0054257Y0121893D02*
X0052993Y0121893D01*
X0048828Y0121893D02*
X0047672Y0121893D01*
X0047672Y0123491D02*
X0048828Y0123491D01*
X0043300Y0126688D02*
X0035953Y0126688D01*
X0036157Y0128287D02*
X0043300Y0128287D01*
X0044343Y0129885D02*
X0036157Y0129885D01*
X0047672Y0129885D02*
X0048828Y0129885D01*
X0048828Y0128287D02*
X0047672Y0128287D01*
X0058422Y0128287D02*
X0059578Y0128287D01*
X0059578Y0129885D02*
X0058422Y0129885D01*
X0058422Y0123491D02*
X0059578Y0123491D01*
X0059578Y0121893D02*
X0058422Y0121893D01*
X0063743Y0121893D02*
X0081058Y0121893D01*
X0079460Y0123491D02*
X0063950Y0123491D01*
X0050442Y0117097D02*
X0050442Y0117097D01*
X0050442Y0115499D02*
X0050442Y0115499D01*
X0050442Y0113900D02*
X0050442Y0113900D01*
X0050442Y0112302D02*
X0050442Y0112302D01*
X0050442Y0110703D02*
X0050442Y0110703D01*
X0050442Y0109105D02*
X0050442Y0109105D01*
X0059772Y0102711D02*
X0025038Y0102711D01*
X0025527Y0101112D02*
X0059772Y0101112D01*
X0059772Y0099514D02*
X0030949Y0099514D01*
X0031458Y0094323D02*
X0045628Y0094323D01*
X0055823Y0084128D01*
X0055823Y0063208D01*
X0055595Y0063208D01*
X0054642Y0062255D01*
X0054642Y0057345D01*
X0055595Y0056392D01*
X0060048Y0056392D01*
X0059945Y0056289D01*
X0059945Y0051792D01*
X0059988Y0051748D01*
X0059894Y0051585D01*
X0059772Y0051128D01*
X0059772Y0049316D01*
X0064721Y0049316D01*
X0064721Y0049316D01*
X0059772Y0049316D01*
X0059772Y0047504D01*
X0059894Y0047046D01*
X0060036Y0046800D01*
X0017262Y0046800D01*
X0017529Y0047067D01*
X0017529Y0051564D01*
X0017416Y0051678D01*
X0017529Y0051792D01*
X0017529Y0055392D01*
X0021255Y0055392D01*
X0022208Y0056345D01*
X0022208Y0066005D01*
X0021255Y0066958D01*
X0017529Y0066958D01*
X0017529Y0069392D01*
X0021255Y0069392D01*
X0022208Y0070345D01*
X0022208Y0075255D01*
X0021255Y0076208D01*
X0017529Y0076208D01*
X0017529Y0079911D01*
X0017416Y0080024D01*
X0017529Y0080138D01*
X0017529Y0084635D01*
X0017416Y0084749D01*
X0017529Y0084862D01*
X0017529Y0089360D01*
X0017416Y0089473D01*
X0017529Y0089587D01*
X0017529Y0093142D01*
X0021005Y0093142D01*
X0021073Y0093210D01*
X0021073Y0092628D01*
X0030573Y0083128D01*
X0031878Y0081823D01*
X0043892Y0081823D01*
X0043892Y0081595D01*
X0044845Y0080642D01*
X0049755Y0080642D01*
X0050708Y0081595D01*
X0050708Y0086505D01*
X0049755Y0087458D01*
X0044845Y0087458D01*
X0043892Y0086505D01*
X0043892Y0086277D01*
X0033722Y0086277D01*
X0026857Y0093142D01*
X0030505Y0093142D01*
X0031458Y0094095D01*
X0031458Y0094323D01*
X0028478Y0091521D02*
X0048430Y0091521D01*
X0050028Y0089923D02*
X0030077Y0089923D01*
X0031675Y0088324D02*
X0051627Y0088324D01*
X0050487Y0086726D02*
X0053225Y0086726D01*
X0054824Y0085127D02*
X0050708Y0085127D01*
X0050708Y0083529D02*
X0055823Y0083529D01*
X0055823Y0081930D02*
X0050708Y0081930D01*
X0055823Y0080332D02*
X0017529Y0080332D01*
X0017529Y0081930D02*
X0031771Y0081930D01*
X0030172Y0083529D02*
X0017529Y0083529D01*
X0017529Y0085127D02*
X0028574Y0085127D01*
X0026975Y0086726D02*
X0017529Y0086726D01*
X0017529Y0088324D02*
X0025377Y0088324D01*
X0023778Y0089923D02*
X0017529Y0089923D01*
X0017529Y0091521D02*
X0022180Y0091521D01*
X0021073Y0093120D02*
X0017529Y0093120D01*
X0026880Y0093120D02*
X0046831Y0093120D01*
X0049932Y0096317D02*
X0059945Y0096317D01*
X0059945Y0097915D02*
X0048334Y0097915D01*
X0051531Y0094718D02*
X0059945Y0094718D01*
X0059945Y0093120D02*
X0053130Y0093120D01*
X0054728Y0091521D02*
X0059945Y0091521D01*
X0059945Y0089923D02*
X0056327Y0089923D01*
X0057925Y0088324D02*
X0059945Y0088324D01*
X0059945Y0086726D02*
X0059524Y0086726D01*
X0055823Y0078733D02*
X0017529Y0078733D01*
X0017529Y0077134D02*
X0055823Y0077134D01*
X0055823Y0075536D02*
X0021927Y0075536D01*
X0022208Y0073937D02*
X0055823Y0073937D01*
X0055823Y0072339D02*
X0022208Y0072339D01*
X0022208Y0070740D02*
X0055823Y0070740D01*
X0055823Y0069142D02*
X0017529Y0069142D01*
X0017529Y0067543D02*
X0055823Y0067543D01*
X0055823Y0065945D02*
X0022208Y0065945D01*
X0022208Y0064346D02*
X0055823Y0064346D01*
X0055135Y0062748D02*
X0022208Y0062748D01*
X0022208Y0061149D02*
X0054642Y0061149D01*
X0054642Y0059551D02*
X0022208Y0059551D01*
X0022208Y0057952D02*
X0054642Y0057952D01*
X0060010Y0056354D02*
X0022208Y0056354D01*
X0017529Y0054755D02*
X0059945Y0054755D01*
X0059945Y0053157D02*
X0017529Y0053157D01*
X0017529Y0051558D02*
X0059887Y0051558D01*
X0059772Y0049960D02*
X0017529Y0049960D01*
X0017529Y0048361D02*
X0059772Y0048361D01*
X0064721Y0048361D02*
X0064721Y0048361D01*
X0064721Y0049316D02*
X0064721Y0046800D01*
X0064721Y0049316D01*
X0064721Y0049316D01*
X0069385Y0049316D01*
X0069385Y0049316D01*
X0064721Y0049316D01*
X0064721Y0049316D01*
X0064721Y0046800D02*
X0064721Y0046800D01*
X0066800Y0045941D02*
X0068108Y0045941D01*
X0068566Y0046064D01*
X0068976Y0046301D01*
X0069311Y0046636D01*
X0069548Y0047046D01*
X0069671Y0047504D01*
X0069671Y0049030D01*
X0073017Y0045683D01*
X0073053Y0045683D01*
X0073053Y0040344D01*
X0073002Y0040256D01*
X0072880Y0039798D01*
X0072880Y0038461D01*
X0072880Y0037124D01*
X0073002Y0036667D01*
X0073053Y0036579D01*
X0073053Y0027958D01*
X0067845Y0027958D01*
X0066892Y0027005D01*
X0066892Y0022095D01*
X0067845Y0021142D01*
X0068073Y0021142D01*
X0068073Y0020069D01*
X0068058Y0019166D01*
X0068073Y0019150D01*
X0068073Y0019128D01*
X0068712Y0018489D01*
X0075323Y0011650D01*
X0075323Y0011628D01*
X0075962Y0010989D01*
X0076590Y0010339D01*
X0076612Y0010339D01*
X0076628Y0010323D01*
X0077531Y0010323D01*
X0078434Y0010308D01*
X0078450Y0010323D01*
X0082392Y0010323D01*
X0082392Y0010095D01*
X0083345Y0009142D01*
X0088255Y0009142D01*
X0089208Y0010095D01*
X0089208Y0012743D01*
X0093351Y0008600D01*
X0066800Y0008600D01*
X0066800Y0045941D01*
X0066800Y0045164D02*
X0073053Y0045164D01*
X0073053Y0043566D02*
X0066800Y0043566D01*
X0066800Y0041967D02*
X0073053Y0041967D01*
X0073053Y0040369D02*
X0066800Y0040369D01*
X0066800Y0038770D02*
X0072880Y0038770D01*
X0072880Y0038461D02*
X0077179Y0038461D01*
X0072880Y0038461D01*
X0072880Y0037172D02*
X0066800Y0037172D01*
X0066800Y0035573D02*
X0073053Y0035573D01*
X0073053Y0033975D02*
X0066800Y0033975D01*
X0066800Y0032376D02*
X0073053Y0032376D01*
X0073053Y0030778D02*
X0066800Y0030778D01*
X0066800Y0029179D02*
X0073053Y0029179D01*
X0067468Y0027581D02*
X0066800Y0027581D01*
X0066800Y0025982D02*
X0066892Y0025982D01*
X0066892Y0024384D02*
X0066800Y0024384D01*
X0066800Y0022785D02*
X0066892Y0022785D01*
X0066800Y0021187D02*
X0067801Y0021187D01*
X0068065Y0019588D02*
X0066800Y0019588D01*
X0066800Y0017990D02*
X0069195Y0017990D01*
X0070740Y0016391D02*
X0066800Y0016391D01*
X0066800Y0014793D02*
X0072285Y0014793D01*
X0073830Y0013194D02*
X0066800Y0013194D01*
X0066800Y0011596D02*
X0075355Y0011596D01*
X0082490Y0009997D02*
X0066800Y0009997D01*
X0089110Y0009997D02*
X0091954Y0009997D01*
X0090355Y0011596D02*
X0089208Y0011596D01*
X0106853Y0032646D02*
X0106777Y0032722D01*
X0105472Y0034027D01*
X0102972Y0034027D01*
X0099458Y0037541D01*
X0099458Y0040255D01*
X0098505Y0041208D01*
X0098277Y0041208D01*
X0098277Y0041392D01*
X0098505Y0041392D01*
X0099458Y0042345D01*
X0099458Y0045933D01*
X0102228Y0045933D01*
X0104323Y0043838D01*
X0104323Y0037628D01*
X0105628Y0036323D01*
X0106680Y0036323D01*
X0106680Y0035312D01*
X0110979Y0035312D01*
X0110979Y0035312D01*
X0106680Y0035312D01*
X0106680Y0033975D01*
X0106802Y0033517D01*
X0106853Y0033429D01*
X0106853Y0032646D01*
X0106680Y0033975D02*
X0105524Y0033975D01*
X0106680Y0035573D02*
X0101426Y0035573D01*
X0099827Y0037172D02*
X0104779Y0037172D01*
X0104323Y0038770D02*
X0099458Y0038770D01*
X0099344Y0040369D02*
X0104323Y0040369D01*
X0104323Y0041967D02*
X0099080Y0041967D01*
X0099458Y0043566D02*
X0104323Y0043566D01*
X0102997Y0045164D02*
X0099458Y0045164D01*
X0110980Y0041611D02*
X0115280Y0041611D01*
X0110980Y0041611D01*
X0110980Y0041611D01*
X0115280Y0041967D02*
X0119239Y0041967D01*
X0119239Y0040369D02*
X0115280Y0040369D01*
X0116479Y0038770D02*
X0119568Y0038770D01*
X0118135Y0043566D02*
X0115106Y0043566D01*
X0142694Y0033975D02*
X0142694Y0033975D01*
X0147070Y0037172D02*
X0150029Y0037172D01*
X0077179Y0038461D02*
X0077179Y0038461D01*
X0071938Y0046763D02*
X0069385Y0046763D01*
X0069671Y0048361D02*
X0070340Y0048361D01*
X0044113Y0086726D02*
X0033274Y0086726D01*
X0008753Y0104309D02*
X0008600Y0104309D01*
X0064721Y0102711D02*
X0064721Y0102711D01*
X0064721Y0101112D02*
X0064721Y0101112D01*
X0079932Y0102711D02*
X0080375Y0102711D01*
X0079782Y0134681D02*
X0070708Y0134681D01*
X0070708Y0136279D02*
X0081380Y0136279D01*
X0082979Y0137878D02*
X0070708Y0137878D01*
X0070236Y0139476D02*
X0084577Y0139476D01*
X0064364Y0139476D02*
X0063776Y0139476D01*
D31*
X0059000Y0126800D02*
X0059000Y0125488D01*
X0142694Y0035552D02*
X0142694Y0032993D01*
X0127926Y0029708D02*
X0127926Y0029653D01*
X0119647Y0029708D02*
X0119647Y0029800D01*
D32*
X0119647Y0029708D02*
X0127871Y0029708D01*
X0127926Y0029653D01*
X0128279Y0029300D01*
X0132300Y0029300D01*
X0133300Y0029300D01*
X0136300Y0032050D01*
X0132300Y0029300D02*
X0140276Y0021324D01*
X0140276Y0017041D01*
X0134050Y0018300D02*
X0128255Y0018300D01*
X0127926Y0018629D01*
X0128050Y0018505D01*
X0128050Y0012800D01*
X0126550Y0011300D01*
X0096800Y0011300D01*
X0092505Y0015595D01*
X0092505Y0023136D01*
X0095654Y0023136D02*
X0095654Y0016196D01*
X0097300Y0014550D01*
X0113800Y0014550D01*
X0118300Y0014550D01*
X0119800Y0016050D01*
X0119800Y0018531D01*
X0119647Y0018684D01*
X0119263Y0018300D01*
X0127800Y0018503D02*
X0127926Y0018629D01*
X0110980Y0029013D02*
X0107337Y0029013D01*
X0104550Y0031800D01*
X0102050Y0031800D01*
X0096050Y0037800D01*
X0096050Y0044800D01*
X0088300Y0044800D02*
X0088300Y0029800D01*
X0089355Y0023136D02*
X0089355Y0015745D01*
X0096300Y0008800D01*
X0151300Y0008800D01*
X0151300Y0014791D01*
X0151300Y0017041D01*
X0150300Y0014791D01*
X0157550Y0014550D02*
X0159274Y0016524D01*
X0164657Y0016524D01*
X0163800Y0022800D02*
X0173739Y0022800D01*
X0175790Y0020749D01*
X0175681Y0016524D01*
X0179800Y0023050D02*
X0184350Y0018500D01*
X0187894Y0018500D01*
X0199550Y0018344D02*
X0199550Y0012550D01*
X0201550Y0008800D02*
X0205300Y0012550D01*
X0205300Y0048300D01*
X0201800Y0051800D01*
X0195800Y0051800D01*
X0185550Y0055300D02*
X0185550Y0073300D01*
X0190300Y0078050D01*
X0196550Y0078050D01*
X0198050Y0079550D01*
X0198050Y0083244D01*
X0197900Y0083394D01*
X0188550Y0083144D02*
X0188550Y0080300D01*
X0179050Y0070800D01*
X0175312Y0070800D01*
X0174050Y0064550D02*
X0166662Y0064550D01*
X0164300Y0066912D01*
X0164300Y0070788D01*
X0164288Y0070800D01*
X0156550Y0070562D02*
X0156312Y0070800D01*
X0156312Y0078800D01*
X0156312Y0086800D01*
X0156312Y0095050D01*
X0156312Y0103300D01*
X0156312Y0113312D01*
X0157300Y0114300D01*
X0159550Y0117800D02*
X0161300Y0116050D01*
X0161300Y0104050D01*
X0163050Y0102300D01*
X0163050Y0099800D01*
X0167550Y0099800D02*
X0167550Y0095300D01*
X0164288Y0092038D01*
X0164288Y0086800D01*
X0175312Y0086800D02*
X0175312Y0092538D01*
X0175300Y0092550D01*
X0172050Y0099800D02*
X0172050Y0102550D01*
X0170800Y0103800D01*
X0165800Y0103800D01*
X0164083Y0105517D01*
X0164083Y0113800D01*
X0182550Y0113800D01*
X0186300Y0116550D02*
X0186300Y0110550D01*
X0189050Y0108050D01*
X0195050Y0108050D01*
X0198412Y0104800D01*
X0201800Y0104688D01*
X0198050Y0098550D02*
X0198050Y0095356D01*
X0197900Y0095206D01*
X0198050Y0098550D02*
X0191550Y0105050D01*
X0186050Y0105050D01*
X0181300Y0100300D01*
X0181300Y0080800D01*
X0179300Y0078800D01*
X0175312Y0078800D01*
X0187800Y0083206D02*
X0188300Y0083394D01*
X0188550Y0083144D01*
X0188300Y0095206D02*
X0188300Y0100800D01*
X0186300Y0110550D02*
X0175050Y0110550D01*
X0186300Y0116550D02*
X0191300Y0121550D01*
X0191300Y0122800D01*
X0191257Y0122843D01*
X0187115Y0122843D01*
X0187115Y0125402D02*
X0191152Y0125402D01*
X0191300Y0125550D01*
X0191300Y0122800D01*
X0194526Y0121550D02*
X0202196Y0121470D01*
X0194526Y0121550D02*
X0194550Y0127550D01*
X0191300Y0125550D02*
X0191300Y0132050D01*
X0190270Y0133080D01*
X0187115Y0133080D01*
X0187115Y0135639D01*
X0187115Y0138198D01*
X0181050Y0133050D02*
X0179270Y0133080D01*
X0164083Y0133080D01*
X0115020Y0133080D01*
X0105550Y0142550D01*
X0016550Y0142550D01*
X0011800Y0137800D01*
X0011800Y0130654D01*
X0011757Y0130611D01*
X0026532Y0118550D02*
X0031757Y0118550D01*
X0031757Y0130611D01*
X0048250Y0125488D02*
X0048300Y0125438D01*
X0048300Y0118550D01*
X0050442Y0116408D01*
X0050442Y0113292D01*
X0050442Y0109158D01*
X0058550Y0101050D01*
X0064721Y0101050D01*
X0064721Y0101284D01*
X0069550Y0101300D02*
X0071550Y0103300D01*
X0075512Y0103300D01*
X0075550Y0103262D01*
X0075550Y0103263D02*
X0075520Y0103261D01*
X0075490Y0103256D01*
X0075461Y0103247D01*
X0075434Y0103234D01*
X0075408Y0103219D01*
X0075384Y0103200D01*
X0075363Y0103179D01*
X0075344Y0103155D01*
X0075329Y0103129D01*
X0075316Y0103102D01*
X0075307Y0103073D01*
X0075302Y0103043D01*
X0075300Y0103013D01*
X0069550Y0101300D02*
X0069550Y0096560D01*
X0064721Y0096560D01*
X0069550Y0096560D02*
X0069550Y0052300D01*
X0073940Y0047910D01*
X0077180Y0047910D01*
X0077430Y0048160D01*
X0103150Y0048160D01*
X0106550Y0044761D01*
X0106550Y0038550D01*
X0110980Y0038550D01*
X0110980Y0038461D01*
X0113639Y0038461D01*
X0119550Y0032550D01*
X0119550Y0029805D01*
X0119647Y0029708D01*
X0110980Y0035312D02*
X0110968Y0035300D01*
X0105050Y0035300D01*
X0110818Y0038300D02*
X0110841Y0038302D01*
X0110863Y0038307D01*
X0110885Y0038315D01*
X0110905Y0038326D01*
X0110923Y0038339D01*
X0110940Y0038356D01*
X0110953Y0038374D01*
X0110964Y0038394D01*
X0110972Y0038416D01*
X0110977Y0038438D01*
X0110979Y0038461D01*
X0110980Y0041611D02*
X0114989Y0041611D01*
X0116800Y0041550D01*
X0121300Y0037050D01*
X0137050Y0037050D01*
X0138548Y0035552D01*
X0142694Y0035552D01*
X0142696Y0035550D01*
X0148300Y0035550D01*
X0142694Y0035552D02*
X0138798Y0035552D01*
X0137050Y0037300D01*
X0137050Y0045788D01*
X0137050Y0053465D01*
X0134135Y0053465D01*
X0133050Y0054550D01*
X0133050Y0066347D01*
X0132076Y0067821D01*
X0132076Y0074711D01*
X0132076Y0081600D01*
X0123683Y0089993D01*
X0123683Y0108309D01*
X0123683Y0116167D01*
X0120550Y0119300D01*
X0120550Y0125300D01*
X0127538Y0125300D01*
X0128038Y0124800D01*
X0120550Y0125300D02*
X0120300Y0125550D01*
X0103800Y0125550D01*
X0097800Y0125550D01*
X0095300Y0123050D01*
X0095300Y0111800D01*
X0092906Y0115406D02*
X0091550Y0114050D01*
X0091550Y0108300D01*
X0091800Y0108050D01*
X0085259Y0108050D01*
X0084211Y0107002D01*
X0091800Y0108050D02*
X0110800Y0108050D01*
X0107983Y0104367D02*
X0100050Y0104300D01*
X0095300Y0104300D02*
X0095347Y0099597D01*
X0097097Y0097617D01*
X0089300Y0099300D02*
X0084433Y0099300D01*
X0084211Y0099522D01*
X0089300Y0094050D02*
X0093770Y0089580D01*
X0097081Y0089580D01*
X0090050Y0086550D02*
X0085550Y0091050D01*
X0078300Y0091050D01*
X0076300Y0093050D01*
X0072800Y0093050D01*
X0072800Y0088550D02*
X0084800Y0088550D01*
X0087300Y0086050D01*
X0087300Y0065550D01*
X0098804Y0065550D01*
X0098804Y0056936D01*
X0095654Y0056936D02*
X0095654Y0063300D01*
X0083800Y0063300D01*
X0083800Y0083800D01*
X0081300Y0086050D01*
X0076550Y0086050D01*
X0074550Y0084050D01*
X0072800Y0084050D01*
X0078361Y0082169D02*
X0078361Y0076419D01*
X0090050Y0067800D02*
X0090050Y0086550D01*
X0093300Y0083300D02*
X0109300Y0083300D01*
X0110800Y0081800D01*
X0110800Y0075800D01*
X0112050Y0074550D01*
X0115616Y0074550D01*
X0115776Y0074711D01*
X0115776Y0067821D02*
X0115755Y0067800D01*
X0109800Y0067800D01*
X0105700Y0071900D01*
X0105700Y0076893D01*
X0094676Y0076893D02*
X0094300Y0076517D01*
X0094300Y0072800D01*
X0096050Y0071050D01*
X0090050Y0067800D02*
X0105103Y0067800D01*
X0105103Y0056936D01*
X0101954Y0056936D02*
X0101954Y0052146D01*
X0102050Y0051550D01*
X0110980Y0051060D02*
X0110980Y0053730D01*
X0117300Y0060050D01*
X0125253Y0060050D01*
X0125590Y0059713D01*
X0136944Y0061893D02*
X0137694Y0061143D01*
X0142694Y0061143D01*
X0142694Y0058583D02*
X0138444Y0058583D01*
X0136944Y0057083D01*
X0142694Y0056024D02*
X0148274Y0056024D01*
X0150800Y0058550D01*
X0151465Y0053465D02*
X0156550Y0058550D01*
X0156550Y0070562D01*
X0156312Y0070800D02*
X0155800Y0070800D01*
X0145288Y0070800D02*
X0139550Y0070800D01*
X0139550Y0079300D02*
X0145038Y0079300D01*
X0145288Y0078800D01*
X0145288Y0086800D02*
X0139550Y0086800D01*
X0145288Y0095050D02*
X0127423Y0095050D01*
X0127423Y0098072D01*
X0119943Y0098072D02*
X0119943Y0094193D01*
X0119800Y0094050D01*
X0119943Y0098050D02*
X0115800Y0098050D01*
X0115800Y0121050D01*
X0099050Y0121050D01*
X0099050Y0116550D02*
X0111550Y0116550D01*
X0119943Y0112657D02*
X0119943Y0108309D01*
X0127423Y0108309D02*
X0127550Y0108436D01*
X0127550Y0112550D01*
X0127300Y0108432D02*
X0127302Y0108411D01*
X0127307Y0108390D01*
X0127316Y0108371D01*
X0127329Y0108353D01*
X0127344Y0108338D01*
X0127362Y0108325D01*
X0127381Y0108316D01*
X0127402Y0108311D01*
X0127423Y0108309D01*
X0127550Y0117050D02*
X0131300Y0117050D01*
X0145288Y0103300D01*
X0145288Y0107538D01*
X0152050Y0114300D01*
X0152300Y0117800D02*
X0150550Y0119550D01*
X0150550Y0127050D01*
X0145050Y0127050D02*
X0142050Y0124800D01*
X0139062Y0124800D01*
X0152300Y0117800D02*
X0159550Y0117800D01*
X0164083Y0113800D02*
X0164083Y0122843D01*
X0159800Y0122675D02*
X0155175Y0122675D01*
X0159800Y0122675D02*
X0159800Y0127800D01*
X0163922Y0127800D01*
X0164083Y0127961D01*
X0163995Y0127550D01*
X0164083Y0127961D02*
X0164083Y0125402D01*
X0174152Y0125402D01*
X0174300Y0125550D01*
X0178050Y0127550D02*
X0175050Y0130550D01*
X0164113Y0130550D01*
X0164083Y0130520D01*
X0113830Y0130520D01*
X0104050Y0140300D01*
X0088550Y0140300D01*
X0081550Y0133300D01*
X0081550Y0124550D01*
X0084300Y0121800D01*
X0084300Y0112800D01*
X0092906Y0115406D02*
X0092906Y0131560D01*
X0089161Y0137800D02*
X0086550Y0135189D01*
X0086550Y0127300D01*
X0089300Y0124800D01*
X0103800Y0125550D02*
X0103800Y0132189D01*
X0103929Y0131560D01*
X0103800Y0131689D01*
X0103800Y0135800D01*
X0101800Y0137800D01*
X0089161Y0137800D01*
X0067300Y0136550D02*
X0065512Y0136512D01*
X0059000Y0136512D01*
X0048250Y0136512D01*
X0048250Y0125488D02*
X0059000Y0125488D01*
X0064612Y0125488D01*
X0067550Y0128300D01*
X0067550Y0121550D01*
X0061800Y0115800D01*
X0048300Y0118550D02*
X0031757Y0118550D01*
X0026532Y0118550D02*
X0026532Y0113292D01*
X0023300Y0101300D02*
X0012753Y0101300D01*
X0012753Y0101284D01*
X0012753Y0096560D02*
X0012753Y0096550D01*
X0018550Y0096550D01*
X0023300Y0093550D02*
X0032800Y0084050D01*
X0047300Y0084050D01*
X0058050Y0085050D02*
X0046550Y0096550D01*
X0028050Y0096550D01*
X0023300Y0093550D02*
X0023300Y0101300D01*
X0058050Y0085050D02*
X0058050Y0059800D01*
X0054550Y0049300D02*
X0045550Y0058300D01*
X0032800Y0071050D01*
X0018800Y0072800D02*
X0012891Y0072800D01*
X0012869Y0072802D01*
X0012848Y0072807D01*
X0012828Y0072815D01*
X0012810Y0072826D01*
X0012793Y0072840D01*
X0012779Y0072857D01*
X0012768Y0072875D01*
X0012760Y0072895D01*
X0012755Y0072916D01*
X0012753Y0072938D01*
X0012814Y0063550D02*
X0012753Y0063489D01*
X0012814Y0063550D02*
X0018800Y0063550D01*
X0018800Y0058800D02*
X0018765Y0058765D01*
X0012753Y0058765D01*
X0054550Y0049300D02*
X0064721Y0049300D01*
X0064721Y0049316D01*
X0068534Y0049316D01*
X0073050Y0044800D01*
X0073050Y0039800D01*
X0074050Y0038800D01*
X0076841Y0038800D01*
X0077180Y0038461D01*
X0077241Y0041550D02*
X0077180Y0041611D01*
X0077241Y0041550D02*
X0083050Y0041550D01*
X0086300Y0051550D02*
X0086300Y0056842D01*
X0086206Y0056936D01*
X0089355Y0056936D02*
X0089355Y0061050D01*
X0078300Y0061050D01*
X0078300Y0063645D01*
X0078361Y0065395D01*
X0079550Y0057050D02*
X0079664Y0056936D01*
X0083056Y0056936D01*
X0092505Y0056936D02*
X0092505Y0052050D01*
X0092550Y0051550D01*
X0106550Y0044761D02*
X0110980Y0044761D01*
X0110980Y0047910D02*
X0116660Y0047910D01*
X0116800Y0048050D01*
X0121337Y0043513D01*
X0125590Y0043513D01*
X0137050Y0045788D02*
X0142694Y0045788D01*
X0142694Y0043229D02*
X0153979Y0043229D01*
X0166050Y0055300D01*
X0174050Y0064550D02*
X0175800Y0062800D01*
X0175800Y0036800D01*
X0174552Y0035552D01*
X0171481Y0035552D01*
X0171420Y0038050D02*
X0171481Y0038111D01*
X0171420Y0038050D02*
X0165550Y0038050D01*
X0159800Y0033300D02*
X0157050Y0033300D01*
X0149680Y0040670D01*
X0142694Y0040670D01*
X0142694Y0048347D02*
X0150459Y0048347D01*
X0166662Y0064550D01*
X0181800Y0065800D02*
X0181800Y0048506D01*
X0182600Y0047706D01*
X0171481Y0043229D02*
X0171410Y0043300D01*
X0165550Y0043300D01*
X0151465Y0053465D02*
X0142694Y0053465D01*
X0137050Y0053465D01*
X0161800Y0028800D02*
X0163434Y0030434D01*
X0171481Y0030434D01*
X0171481Y0027875D02*
X0165625Y0027875D01*
X0165550Y0026800D01*
X0161800Y0024800D02*
X0163800Y0022800D01*
X0161800Y0024800D02*
X0161800Y0028800D01*
X0179800Y0028300D02*
X0182600Y0031100D01*
X0182600Y0035894D01*
X0199706Y0018500D02*
X0199550Y0018344D01*
X0201550Y0008800D02*
X0151300Y0008800D01*
X0108800Y0024300D02*
X0106386Y0024386D01*
X0105103Y0023136D01*
X0101954Y0023136D02*
X0101954Y0028454D01*
X0102050Y0028550D01*
X0101954Y0027954D01*
X0098804Y0023136D02*
X0098804Y0019054D01*
X0100050Y0017800D01*
X0089355Y0023136D02*
X0089300Y0023081D01*
X0085800Y0017050D02*
X0079550Y0017050D01*
X0075050Y0021550D01*
X0075050Y0024550D01*
X0070300Y0024550D02*
X0070300Y0020050D01*
X0077550Y0012550D01*
X0085800Y0012550D01*
X0115776Y0081600D02*
X0115800Y0081624D01*
X0115800Y0087550D01*
X0113770Y0089580D01*
X0108105Y0089580D01*
X0108120Y0097617D02*
X0107983Y0104367D01*
X0119943Y0098072D02*
X0119943Y0098050D01*
X0178050Y0127550D02*
X0181050Y0127550D01*
X0164083Y0135639D02*
X0164083Y0138198D01*
X0164050Y0138231D01*
X0164050Y0140300D01*
X0166050Y0142300D01*
X0198800Y0142300D01*
X0202106Y0138744D01*
X0202196Y0132494D01*
X0201800Y0113861D02*
X0200918Y0113800D01*
X0190050Y0113800D01*
D33*
X0190050Y0113800D03*
X0182550Y0113800D03*
X0175050Y0110550D03*
X0188300Y0100800D03*
X0195050Y0108050D03*
X0172050Y0099800D03*
X0167550Y0099800D03*
X0163050Y0099800D03*
X0175300Y0092550D03*
X0157300Y0114300D03*
X0152050Y0114300D03*
X0155175Y0122675D03*
X0150550Y0127050D03*
X0145050Y0127050D03*
X0127550Y0117050D03*
X0127550Y0112550D03*
X0119943Y0112657D03*
X0111550Y0116550D03*
X0110800Y0108050D03*
X0100050Y0104300D03*
X0095300Y0104300D03*
X0089300Y0099300D03*
X0089300Y0094050D03*
X0093300Y0083300D03*
X0078361Y0082169D03*
X0072800Y0084050D03*
X0072800Y0088550D03*
X0072800Y0093050D03*
X0058550Y0101050D03*
X0061800Y0115800D03*
X0067550Y0128300D03*
X0067300Y0136550D03*
X0089300Y0124800D03*
X0099050Y0121050D03*
X0099050Y0116550D03*
X0095300Y0111800D03*
X0084300Y0112800D03*
X0119800Y0094050D03*
X0139550Y0086800D03*
X0139550Y0079300D03*
X0139550Y0070800D03*
X0136944Y0061893D03*
X0136944Y0057083D03*
X0150800Y0058550D03*
X0166050Y0055300D03*
X0181800Y0065800D03*
X0185550Y0055300D03*
X0165550Y0043300D03*
X0165550Y0038050D03*
X0159800Y0033300D03*
X0165550Y0026800D03*
X0179800Y0028300D03*
X0179800Y0023050D03*
X0199550Y0012550D03*
X0157550Y0014550D03*
X0134050Y0018300D03*
X0113800Y0014550D03*
X0100050Y0017800D03*
X0108800Y0024300D03*
X0102050Y0028550D03*
X0105050Y0035300D03*
X0096050Y0037800D03*
X0096050Y0044800D03*
X0088300Y0044800D03*
X0083050Y0041550D03*
X0086300Y0051550D03*
X0092550Y0051550D03*
X0102050Y0051550D03*
X0116800Y0048050D03*
X0116800Y0041550D03*
X0136300Y0032050D03*
X0148300Y0035550D03*
X0117300Y0060050D03*
X0096050Y0071050D03*
X0079550Y0057050D03*
X0058050Y0059800D03*
X0045550Y0058300D03*
X0032800Y0071050D03*
X0018800Y0072800D03*
X0018800Y0063550D03*
X0018800Y0058800D03*
X0047300Y0084050D03*
X0028050Y0096550D03*
X0018550Y0096550D03*
X0120550Y0125300D03*
X0174300Y0125550D03*
X0181050Y0127550D03*
X0181050Y0133050D03*
X0194550Y0127550D03*
X0202106Y0138744D03*
X0088300Y0029800D03*
X0075050Y0024550D03*
X0070300Y0024550D03*
X0085800Y0017050D03*
X0085800Y0012550D03*
M02*
