G75*
%MOIN*%
%OFA0B0*%
%FSLAX25Y25*%
%IPPOS*%
%LPD*%
%AMOC8*
5,1,8,0,0,1.08239X$1,22.5*
%
%ADD10C,0.00000*%
%ADD11R,0.06299X0.07087*%
%ADD12R,0.01378X0.05512*%
%ADD13R,0.07087X0.07480*%
%ADD14R,0.07480X0.07480*%
%ADD15R,0.05000X0.05000*%
%ADD16R,0.08000X0.08000*%
%ADD17C,0.05200*%
%ADD18R,0.06000X0.04000*%
%ADD19R,0.07087X0.06299*%
%ADD20C,0.07400*%
%ADD21C,0.01600*%
%ADD22C,0.00800*%
%ADD23C,0.01200*%
%ADD24R,0.03562X0.03562*%
D10*
X0012311Y0006800D02*
X0202587Y0006800D01*
X0202727Y0006802D01*
X0202867Y0006808D01*
X0203007Y0006818D01*
X0203147Y0006831D01*
X0203286Y0006849D01*
X0203425Y0006871D01*
X0203562Y0006896D01*
X0203700Y0006925D01*
X0203836Y0006958D01*
X0203971Y0006995D01*
X0204105Y0007036D01*
X0204238Y0007081D01*
X0204370Y0007129D01*
X0204500Y0007181D01*
X0204629Y0007236D01*
X0204756Y0007295D01*
X0204882Y0007358D01*
X0205006Y0007424D01*
X0205127Y0007493D01*
X0205247Y0007566D01*
X0205365Y0007643D01*
X0205480Y0007722D01*
X0205594Y0007805D01*
X0205704Y0007891D01*
X0205813Y0007980D01*
X0205919Y0008072D01*
X0206022Y0008167D01*
X0206123Y0008264D01*
X0206220Y0008365D01*
X0206315Y0008468D01*
X0206407Y0008574D01*
X0206496Y0008683D01*
X0206582Y0008793D01*
X0206665Y0008907D01*
X0206744Y0009022D01*
X0206821Y0009140D01*
X0206894Y0009260D01*
X0206963Y0009381D01*
X0207029Y0009505D01*
X0207092Y0009631D01*
X0207151Y0009758D01*
X0207206Y0009887D01*
X0207258Y0010017D01*
X0207306Y0010149D01*
X0207351Y0010282D01*
X0207392Y0010416D01*
X0207429Y0010551D01*
X0207462Y0010687D01*
X0207491Y0010825D01*
X0207516Y0010962D01*
X0207538Y0011101D01*
X0207556Y0011240D01*
X0207569Y0011380D01*
X0207579Y0011520D01*
X0207585Y0011660D01*
X0207587Y0011800D01*
X0207587Y0139595D01*
X0207585Y0139735D01*
X0207579Y0139875D01*
X0207569Y0140015D01*
X0207556Y0140155D01*
X0207538Y0140294D01*
X0207516Y0140433D01*
X0207491Y0140570D01*
X0207462Y0140708D01*
X0207429Y0140844D01*
X0207392Y0140979D01*
X0207351Y0141113D01*
X0207306Y0141246D01*
X0207258Y0141378D01*
X0207206Y0141508D01*
X0207151Y0141637D01*
X0207092Y0141764D01*
X0207029Y0141890D01*
X0206963Y0142014D01*
X0206894Y0142135D01*
X0206821Y0142255D01*
X0206744Y0142373D01*
X0206665Y0142488D01*
X0206582Y0142602D01*
X0206496Y0142712D01*
X0206407Y0142821D01*
X0206315Y0142927D01*
X0206220Y0143030D01*
X0206123Y0143131D01*
X0206022Y0143228D01*
X0205919Y0143323D01*
X0205813Y0143415D01*
X0205704Y0143504D01*
X0205594Y0143590D01*
X0205480Y0143673D01*
X0205365Y0143752D01*
X0205247Y0143829D01*
X0205127Y0143902D01*
X0205006Y0143971D01*
X0204882Y0144037D01*
X0204756Y0144100D01*
X0204629Y0144159D01*
X0204500Y0144214D01*
X0204370Y0144266D01*
X0204238Y0144314D01*
X0204105Y0144359D01*
X0203971Y0144400D01*
X0203836Y0144437D01*
X0203700Y0144470D01*
X0203562Y0144499D01*
X0203425Y0144524D01*
X0203286Y0144546D01*
X0203147Y0144564D01*
X0203007Y0144577D01*
X0202867Y0144587D01*
X0202727Y0144593D01*
X0202587Y0144595D01*
X0011819Y0144595D01*
X0011678Y0144593D01*
X0011538Y0144588D01*
X0011397Y0144578D01*
X0011257Y0144564D01*
X0011117Y0144547D01*
X0010978Y0144526D01*
X0010839Y0144500D01*
X0010702Y0144471D01*
X0010565Y0144438D01*
X0010429Y0144401D01*
X0010294Y0144360D01*
X0010160Y0144316D01*
X0010028Y0144268D01*
X0009897Y0144216D01*
X0009768Y0144160D01*
X0009640Y0144101D01*
X0009514Y0144038D01*
X0009389Y0143972D01*
X0009267Y0143902D01*
X0009147Y0143829D01*
X0009029Y0143752D01*
X0008913Y0143673D01*
X0008799Y0143590D01*
X0008687Y0143503D01*
X0008578Y0143414D01*
X0008472Y0143322D01*
X0008368Y0143226D01*
X0008267Y0143128D01*
X0008169Y0143027D01*
X0008074Y0142924D01*
X0007982Y0142817D01*
X0007892Y0142708D01*
X0007806Y0142597D01*
X0007723Y0142483D01*
X0007643Y0142367D01*
X0007567Y0142249D01*
X0007493Y0142129D01*
X0007424Y0142006D01*
X0007357Y0141882D01*
X0007294Y0141756D01*
X0007235Y0141628D01*
X0007180Y0141499D01*
X0007128Y0141368D01*
X0007079Y0141236D01*
X0007035Y0141102D01*
X0006994Y0140967D01*
X0006957Y0140831D01*
X0006924Y0140694D01*
X0006895Y0140557D01*
X0006870Y0140418D01*
X0006848Y0140279D01*
X0006831Y0140139D01*
X0006817Y0139999D01*
X0006807Y0139858D01*
X0006802Y0139718D01*
X0006800Y0139577D01*
X0006800Y0011780D01*
X0006810Y0011636D01*
X0006823Y0011492D01*
X0006841Y0011348D01*
X0006862Y0011205D01*
X0006888Y0011063D01*
X0006917Y0010921D01*
X0006950Y0010780D01*
X0006987Y0010641D01*
X0007028Y0010502D01*
X0007073Y0010364D01*
X0007121Y0010228D01*
X0007173Y0010093D01*
X0007229Y0009959D01*
X0007289Y0009828D01*
X0007352Y0009697D01*
X0007418Y0009569D01*
X0007488Y0009442D01*
X0007562Y0009318D01*
X0007639Y0009195D01*
X0007719Y0009075D01*
X0007803Y0008957D01*
X0007890Y0008841D01*
X0007980Y0008728D01*
X0008073Y0008617D01*
X0008169Y0008509D01*
X0008268Y0008404D01*
X0008370Y0008301D01*
X0008474Y0008201D01*
X0008581Y0008104D01*
X0008691Y0008010D01*
X0008804Y0007919D01*
X0008919Y0007831D01*
X0009036Y0007747D01*
X0009156Y0007665D01*
X0009278Y0007587D01*
X0009402Y0007512D01*
X0009527Y0007441D01*
X0009655Y0007373D01*
X0009785Y0007309D01*
X0009916Y0007249D01*
X0010049Y0007192D01*
X0010184Y0007138D01*
X0010320Y0007089D01*
X0010457Y0007043D01*
X0010595Y0007001D01*
X0010735Y0006963D01*
X0010875Y0006928D01*
X0011017Y0006898D01*
X0011159Y0006871D01*
X0011302Y0006848D01*
X0011445Y0006830D01*
X0011589Y0006815D01*
X0011733Y0006804D01*
X0011878Y0006797D01*
X0012022Y0006794D01*
X0012167Y0006795D01*
X0012312Y0006800D01*
X0194847Y0028800D02*
X0194849Y0028908D01*
X0194855Y0029017D01*
X0194865Y0029125D01*
X0194879Y0029232D01*
X0194897Y0029339D01*
X0194918Y0029446D01*
X0194944Y0029551D01*
X0194974Y0029656D01*
X0195007Y0029759D01*
X0195044Y0029861D01*
X0195085Y0029961D01*
X0195129Y0030060D01*
X0195178Y0030158D01*
X0195229Y0030253D01*
X0195284Y0030346D01*
X0195343Y0030438D01*
X0195405Y0030527D01*
X0195470Y0030614D01*
X0195538Y0030698D01*
X0195609Y0030780D01*
X0195683Y0030859D01*
X0195760Y0030935D01*
X0195840Y0031009D01*
X0195923Y0031079D01*
X0196008Y0031147D01*
X0196095Y0031211D01*
X0196185Y0031272D01*
X0196277Y0031330D01*
X0196371Y0031384D01*
X0196467Y0031435D01*
X0196564Y0031482D01*
X0196664Y0031526D01*
X0196765Y0031566D01*
X0196867Y0031602D01*
X0196970Y0031634D01*
X0197075Y0031663D01*
X0197181Y0031687D01*
X0197287Y0031708D01*
X0197394Y0031725D01*
X0197502Y0031738D01*
X0197610Y0031747D01*
X0197719Y0031752D01*
X0197827Y0031753D01*
X0197936Y0031750D01*
X0198044Y0031743D01*
X0198152Y0031732D01*
X0198259Y0031717D01*
X0198366Y0031698D01*
X0198472Y0031675D01*
X0198577Y0031649D01*
X0198682Y0031618D01*
X0198784Y0031584D01*
X0198886Y0031546D01*
X0198986Y0031504D01*
X0199085Y0031459D01*
X0199182Y0031410D01*
X0199276Y0031357D01*
X0199369Y0031301D01*
X0199460Y0031242D01*
X0199549Y0031179D01*
X0199635Y0031114D01*
X0199719Y0031045D01*
X0199800Y0030973D01*
X0199878Y0030898D01*
X0199954Y0030820D01*
X0200027Y0030739D01*
X0200097Y0030656D01*
X0200163Y0030571D01*
X0200227Y0030483D01*
X0200287Y0030392D01*
X0200344Y0030300D01*
X0200397Y0030205D01*
X0200447Y0030109D01*
X0200493Y0030011D01*
X0200536Y0029911D01*
X0200575Y0029810D01*
X0200610Y0029707D01*
X0200642Y0029604D01*
X0200669Y0029499D01*
X0200693Y0029393D01*
X0200713Y0029286D01*
X0200729Y0029179D01*
X0200741Y0029071D01*
X0200749Y0028963D01*
X0200753Y0028854D01*
X0200753Y0028746D01*
X0200749Y0028637D01*
X0200741Y0028529D01*
X0200729Y0028421D01*
X0200713Y0028314D01*
X0200693Y0028207D01*
X0200669Y0028101D01*
X0200642Y0027996D01*
X0200610Y0027893D01*
X0200575Y0027790D01*
X0200536Y0027689D01*
X0200493Y0027589D01*
X0200447Y0027491D01*
X0200397Y0027395D01*
X0200344Y0027300D01*
X0200287Y0027208D01*
X0200227Y0027117D01*
X0200163Y0027029D01*
X0200097Y0026944D01*
X0200027Y0026861D01*
X0199954Y0026780D01*
X0199878Y0026702D01*
X0199800Y0026627D01*
X0199719Y0026555D01*
X0199635Y0026486D01*
X0199549Y0026421D01*
X0199460Y0026358D01*
X0199369Y0026299D01*
X0199277Y0026243D01*
X0199182Y0026190D01*
X0199085Y0026141D01*
X0198986Y0026096D01*
X0198886Y0026054D01*
X0198784Y0026016D01*
X0198682Y0025982D01*
X0198577Y0025951D01*
X0198472Y0025925D01*
X0198366Y0025902D01*
X0198259Y0025883D01*
X0198152Y0025868D01*
X0198044Y0025857D01*
X0197936Y0025850D01*
X0197827Y0025847D01*
X0197719Y0025848D01*
X0197610Y0025853D01*
X0197502Y0025862D01*
X0197394Y0025875D01*
X0197287Y0025892D01*
X0197181Y0025913D01*
X0197075Y0025937D01*
X0196970Y0025966D01*
X0196867Y0025998D01*
X0196765Y0026034D01*
X0196664Y0026074D01*
X0196564Y0026118D01*
X0196467Y0026165D01*
X0196371Y0026216D01*
X0196277Y0026270D01*
X0196185Y0026328D01*
X0196095Y0026389D01*
X0196008Y0026453D01*
X0195923Y0026521D01*
X0195840Y0026591D01*
X0195760Y0026665D01*
X0195683Y0026741D01*
X0195609Y0026820D01*
X0195538Y0026902D01*
X0195470Y0026986D01*
X0195405Y0027073D01*
X0195343Y0027162D01*
X0195284Y0027254D01*
X0195229Y0027347D01*
X0195178Y0027442D01*
X0195129Y0027540D01*
X0195085Y0027639D01*
X0195044Y0027739D01*
X0195007Y0027841D01*
X0194974Y0027944D01*
X0194944Y0028049D01*
X0194918Y0028154D01*
X0194897Y0028261D01*
X0194879Y0028368D01*
X0194865Y0028475D01*
X0194855Y0028583D01*
X0194849Y0028692D01*
X0194847Y0028800D01*
X0011847Y0117800D02*
X0011849Y0117908D01*
X0011855Y0118017D01*
X0011865Y0118125D01*
X0011879Y0118232D01*
X0011897Y0118339D01*
X0011918Y0118446D01*
X0011944Y0118551D01*
X0011974Y0118656D01*
X0012007Y0118759D01*
X0012044Y0118861D01*
X0012085Y0118961D01*
X0012129Y0119060D01*
X0012178Y0119158D01*
X0012229Y0119253D01*
X0012284Y0119346D01*
X0012343Y0119438D01*
X0012405Y0119527D01*
X0012470Y0119614D01*
X0012538Y0119698D01*
X0012609Y0119780D01*
X0012683Y0119859D01*
X0012760Y0119935D01*
X0012840Y0120009D01*
X0012923Y0120079D01*
X0013008Y0120147D01*
X0013095Y0120211D01*
X0013185Y0120272D01*
X0013277Y0120330D01*
X0013371Y0120384D01*
X0013467Y0120435D01*
X0013564Y0120482D01*
X0013664Y0120526D01*
X0013765Y0120566D01*
X0013867Y0120602D01*
X0013970Y0120634D01*
X0014075Y0120663D01*
X0014181Y0120687D01*
X0014287Y0120708D01*
X0014394Y0120725D01*
X0014502Y0120738D01*
X0014610Y0120747D01*
X0014719Y0120752D01*
X0014827Y0120753D01*
X0014936Y0120750D01*
X0015044Y0120743D01*
X0015152Y0120732D01*
X0015259Y0120717D01*
X0015366Y0120698D01*
X0015472Y0120675D01*
X0015577Y0120649D01*
X0015682Y0120618D01*
X0015784Y0120584D01*
X0015886Y0120546D01*
X0015986Y0120504D01*
X0016085Y0120459D01*
X0016182Y0120410D01*
X0016276Y0120357D01*
X0016369Y0120301D01*
X0016460Y0120242D01*
X0016549Y0120179D01*
X0016635Y0120114D01*
X0016719Y0120045D01*
X0016800Y0119973D01*
X0016878Y0119898D01*
X0016954Y0119820D01*
X0017027Y0119739D01*
X0017097Y0119656D01*
X0017163Y0119571D01*
X0017227Y0119483D01*
X0017287Y0119392D01*
X0017344Y0119300D01*
X0017397Y0119205D01*
X0017447Y0119109D01*
X0017493Y0119011D01*
X0017536Y0118911D01*
X0017575Y0118810D01*
X0017610Y0118707D01*
X0017642Y0118604D01*
X0017669Y0118499D01*
X0017693Y0118393D01*
X0017713Y0118286D01*
X0017729Y0118179D01*
X0017741Y0118071D01*
X0017749Y0117963D01*
X0017753Y0117854D01*
X0017753Y0117746D01*
X0017749Y0117637D01*
X0017741Y0117529D01*
X0017729Y0117421D01*
X0017713Y0117314D01*
X0017693Y0117207D01*
X0017669Y0117101D01*
X0017642Y0116996D01*
X0017610Y0116893D01*
X0017575Y0116790D01*
X0017536Y0116689D01*
X0017493Y0116589D01*
X0017447Y0116491D01*
X0017397Y0116395D01*
X0017344Y0116300D01*
X0017287Y0116208D01*
X0017227Y0116117D01*
X0017163Y0116029D01*
X0017097Y0115944D01*
X0017027Y0115861D01*
X0016954Y0115780D01*
X0016878Y0115702D01*
X0016800Y0115627D01*
X0016719Y0115555D01*
X0016635Y0115486D01*
X0016549Y0115421D01*
X0016460Y0115358D01*
X0016369Y0115299D01*
X0016277Y0115243D01*
X0016182Y0115190D01*
X0016085Y0115141D01*
X0015986Y0115096D01*
X0015886Y0115054D01*
X0015784Y0115016D01*
X0015682Y0114982D01*
X0015577Y0114951D01*
X0015472Y0114925D01*
X0015366Y0114902D01*
X0015259Y0114883D01*
X0015152Y0114868D01*
X0015044Y0114857D01*
X0014936Y0114850D01*
X0014827Y0114847D01*
X0014719Y0114848D01*
X0014610Y0114853D01*
X0014502Y0114862D01*
X0014394Y0114875D01*
X0014287Y0114892D01*
X0014181Y0114913D01*
X0014075Y0114937D01*
X0013970Y0114966D01*
X0013867Y0114998D01*
X0013765Y0115034D01*
X0013664Y0115074D01*
X0013564Y0115118D01*
X0013467Y0115165D01*
X0013371Y0115216D01*
X0013277Y0115270D01*
X0013185Y0115328D01*
X0013095Y0115389D01*
X0013008Y0115453D01*
X0012923Y0115521D01*
X0012840Y0115591D01*
X0012760Y0115665D01*
X0012683Y0115741D01*
X0012609Y0115820D01*
X0012538Y0115902D01*
X0012470Y0115986D01*
X0012405Y0116073D01*
X0012343Y0116162D01*
X0012284Y0116254D01*
X0012229Y0116347D01*
X0012178Y0116442D01*
X0012129Y0116540D01*
X0012085Y0116639D01*
X0012044Y0116739D01*
X0012007Y0116841D01*
X0011974Y0116944D01*
X0011944Y0117049D01*
X0011918Y0117154D01*
X0011897Y0117261D01*
X0011879Y0117368D01*
X0011865Y0117475D01*
X0011855Y0117583D01*
X0011849Y0117692D01*
X0011847Y0117800D01*
D11*
X0028188Y0088257D03*
X0039212Y0088257D03*
X0039212Y0079698D03*
X0039188Y0071055D03*
X0050212Y0071055D03*
X0039462Y0058350D03*
X0028438Y0058350D03*
X0028188Y0079698D03*
X0135038Y0115800D03*
X0146062Y0115800D03*
D12*
X0115343Y0126288D03*
X0112784Y0126288D03*
X0110225Y0126288D03*
X0107666Y0126288D03*
X0105107Y0126288D03*
D13*
X0094477Y0136721D03*
X0125973Y0136721D03*
D14*
X0115225Y0136721D03*
X0105225Y0136721D03*
D15*
X0071272Y0109571D03*
X0061272Y0109571D03*
D16*
X0165535Y0120500D03*
X0195063Y0120500D03*
X0195063Y0090972D03*
X0165535Y0090972D03*
D17*
X0031757Y0128011D02*
X0031757Y0133211D01*
X0021757Y0133211D02*
X0021757Y0128011D01*
X0011757Y0128011D02*
X0011757Y0133211D01*
D18*
X0136138Y0134590D03*
X0136138Y0141190D03*
X0156938Y0141190D03*
X0156938Y0134490D03*
X0169302Y0134840D03*
X0169302Y0141440D03*
X0190102Y0141440D03*
X0190102Y0134740D03*
D19*
X0102515Y0079013D03*
X0102515Y0067989D03*
D20*
X0192100Y0071800D02*
X0199500Y0071800D01*
X0199500Y0061800D02*
X0192100Y0061800D01*
X0192100Y0051800D02*
X0199500Y0051800D01*
X0199500Y0041800D02*
X0192100Y0041800D01*
D21*
X0186773Y0041922D02*
X0183878Y0039027D01*
X0182573Y0037722D01*
X0182573Y0031390D01*
X0182255Y0031708D01*
X0179541Y0031708D01*
X0175722Y0035527D01*
X0168890Y0035527D01*
X0168958Y0035595D01*
X0168958Y0040505D01*
X0168005Y0041458D01*
X0163095Y0041458D01*
X0162142Y0040505D01*
X0162142Y0040277D01*
X0157878Y0040277D01*
X0148378Y0030777D01*
X0139708Y0030777D01*
X0139708Y0032213D01*
X0151688Y0043573D01*
X0151722Y0043573D01*
X0152354Y0044204D01*
X0153002Y0044819D01*
X0153002Y0044853D01*
X0153027Y0044878D01*
X0153027Y0045770D01*
X0153050Y0046663D01*
X0153027Y0046688D01*
X0153027Y0055142D01*
X0153255Y0055142D01*
X0154208Y0056095D01*
X0154208Y0059573D01*
X0187257Y0059573D01*
X0187584Y0058783D01*
X0187659Y0058708D01*
X0183095Y0058708D01*
X0182142Y0057755D01*
X0182142Y0057527D01*
X0169458Y0057527D01*
X0169458Y0057755D01*
X0168505Y0058708D01*
X0163595Y0058708D01*
X0162642Y0057755D01*
X0162642Y0052845D01*
X0163595Y0051892D01*
X0168505Y0051892D01*
X0169458Y0052845D01*
X0169458Y0053073D01*
X0182142Y0053073D01*
X0182142Y0052845D01*
X0183095Y0051892D01*
X0186773Y0051892D01*
X0186773Y0050740D01*
X0187584Y0048783D01*
X0189083Y0047284D01*
X0190252Y0046800D01*
X0189083Y0046316D01*
X0187584Y0044817D01*
X0186773Y0042860D01*
X0186773Y0041922D01*
X0186773Y0041967D02*
X0149994Y0041967D01*
X0148309Y0040369D02*
X0162142Y0040369D01*
X0168958Y0040369D02*
X0185220Y0040369D01*
X0183621Y0038770D02*
X0168958Y0038770D01*
X0168958Y0037172D02*
X0182573Y0037172D01*
X0182573Y0035573D02*
X0168936Y0035573D01*
X0177274Y0033975D02*
X0182573Y0033975D01*
X0182573Y0032376D02*
X0178873Y0032376D01*
X0187066Y0043566D02*
X0151680Y0043566D01*
X0153027Y0045164D02*
X0187931Y0045164D01*
X0190162Y0046763D02*
X0153027Y0046763D01*
X0153027Y0048361D02*
X0188005Y0048361D01*
X0187097Y0049960D02*
X0153027Y0049960D01*
X0153027Y0051558D02*
X0186773Y0051558D01*
X0182340Y0057952D02*
X0169260Y0057952D01*
X0162840Y0057952D02*
X0154208Y0057952D01*
X0154208Y0056354D02*
X0162642Y0056354D01*
X0162642Y0054755D02*
X0153027Y0054755D01*
X0153027Y0053157D02*
X0162642Y0053157D01*
X0154208Y0059551D02*
X0187266Y0059551D01*
X0187257Y0064027D02*
X0185208Y0064027D01*
X0185208Y0068255D01*
X0184255Y0069208D01*
X0184027Y0069208D01*
X0184027Y0090222D01*
X0182722Y0091527D01*
X0179472Y0094777D01*
X0178708Y0094777D01*
X0178708Y0095005D01*
X0177755Y0095958D01*
X0172845Y0095958D01*
X0171892Y0095005D01*
X0171892Y0090095D01*
X0172845Y0089142D01*
X0177755Y0089142D01*
X0178282Y0089669D01*
X0179573Y0088378D01*
X0179573Y0069208D01*
X0179345Y0069208D01*
X0178392Y0068255D01*
X0178392Y0064027D01*
X0153027Y0064027D01*
X0153027Y0086628D01*
X0159909Y0093510D01*
X0159909Y0086299D01*
X0160862Y0085346D01*
X0170209Y0085346D01*
X0171162Y0086299D01*
X0171162Y0095646D01*
X0170416Y0096392D01*
X0174505Y0096392D01*
X0175458Y0097345D01*
X0175458Y0102255D01*
X0174505Y0103208D01*
X0174027Y0103208D01*
X0174027Y0103722D01*
X0173951Y0103798D01*
X0173942Y0103904D01*
X0173309Y0104440D01*
X0172926Y0104823D01*
X0181128Y0104823D01*
X0184892Y0101059D01*
X0184892Y0098345D01*
X0185845Y0097392D01*
X0190755Y0097392D01*
X0191708Y0098345D01*
X0191708Y0103255D01*
X0190755Y0104208D01*
X0188041Y0104208D01*
X0184277Y0107972D01*
X0182972Y0109277D01*
X0172472Y0109277D01*
X0169277Y0112472D01*
X0167972Y0113777D01*
X0159628Y0113777D01*
X0158628Y0112777D01*
X0155458Y0112777D01*
X0155458Y0116323D01*
X0159909Y0116323D01*
X0159909Y0115826D01*
X0160862Y0114873D01*
X0170209Y0114873D01*
X0171162Y0115826D01*
X0171162Y0122825D01*
X0171845Y0122142D01*
X0176755Y0122142D01*
X0177708Y0123095D01*
X0177708Y0125029D01*
X0178595Y0124142D01*
X0183505Y0124142D01*
X0184458Y0125095D01*
X0184458Y0125323D01*
X0189586Y0125323D01*
X0189436Y0125174D01*
X0189436Y0117208D01*
X0187595Y0117208D01*
X0186642Y0116255D01*
X0186642Y0116027D01*
X0185958Y0116027D01*
X0185958Y0116255D01*
X0185005Y0117208D01*
X0180095Y0117208D01*
X0179142Y0116255D01*
X0179142Y0111345D01*
X0180095Y0110392D01*
X0185005Y0110392D01*
X0185958Y0111345D01*
X0185958Y0111573D01*
X0186642Y0111573D01*
X0186642Y0111345D01*
X0187595Y0110392D01*
X0192505Y0110392D01*
X0193458Y0111345D01*
X0193458Y0114873D01*
X0197341Y0114873D01*
X0203073Y0109141D01*
X0203073Y0076002D01*
X0202383Y0076504D01*
X0201611Y0076897D01*
X0200788Y0077165D01*
X0199933Y0077300D01*
X0196100Y0077300D01*
X0196100Y0072100D01*
X0195500Y0072100D01*
X0195500Y0077300D01*
X0191667Y0077300D01*
X0190812Y0077165D01*
X0189989Y0076897D01*
X0189217Y0076504D01*
X0188517Y0075995D01*
X0187905Y0075383D01*
X0187396Y0074683D01*
X0187003Y0073911D01*
X0186735Y0073088D01*
X0186600Y0072233D01*
X0186600Y0072100D01*
X0195500Y0072100D01*
X0195500Y0071500D01*
X0186600Y0071500D01*
X0186600Y0071367D01*
X0186735Y0070512D01*
X0187003Y0069689D01*
X0187396Y0068917D01*
X0187905Y0068217D01*
X0188517Y0067605D01*
X0189217Y0067096D01*
X0189989Y0066703D01*
X0190005Y0066698D01*
X0189083Y0066316D01*
X0187584Y0064817D01*
X0187257Y0064027D01*
X0187389Y0064346D02*
X0185208Y0064346D01*
X0185208Y0065945D02*
X0188712Y0065945D01*
X0188602Y0067543D02*
X0185208Y0067543D01*
X0184321Y0069142D02*
X0187282Y0069142D01*
X0186699Y0070740D02*
X0184027Y0070740D01*
X0184027Y0072339D02*
X0186617Y0072339D01*
X0187016Y0073937D02*
X0184027Y0073937D01*
X0184027Y0075536D02*
X0188058Y0075536D01*
X0190720Y0077134D02*
X0184027Y0077134D01*
X0184027Y0078733D02*
X0203073Y0078733D01*
X0203073Y0077134D02*
X0200880Y0077134D01*
X0196100Y0077134D02*
X0195500Y0077134D01*
X0195500Y0075536D02*
X0196100Y0075536D01*
X0196100Y0073937D02*
X0195500Y0073937D01*
X0195500Y0072339D02*
X0196100Y0072339D01*
X0203073Y0080332D02*
X0184027Y0080332D01*
X0184027Y0081930D02*
X0203073Y0081930D01*
X0203073Y0083529D02*
X0184027Y0083529D01*
X0184027Y0085127D02*
X0203073Y0085127D01*
X0203073Y0086726D02*
X0200860Y0086726D01*
X0200863Y0086735D02*
X0200863Y0090172D01*
X0195863Y0090172D01*
X0195863Y0085172D01*
X0199300Y0085172D01*
X0199758Y0085295D01*
X0200168Y0085532D01*
X0200503Y0085867D01*
X0200740Y0086278D01*
X0200863Y0086735D01*
X0200863Y0088324D02*
X0203073Y0088324D01*
X0203073Y0089923D02*
X0200863Y0089923D01*
X0200863Y0091772D02*
X0195863Y0091772D01*
X0195863Y0090172D01*
X0194263Y0090172D01*
X0194263Y0085172D01*
X0190826Y0085172D01*
X0190368Y0085295D01*
X0189958Y0085532D01*
X0189623Y0085867D01*
X0189386Y0086278D01*
X0189263Y0086735D01*
X0189263Y0090172D01*
X0194263Y0090172D01*
X0194263Y0091772D01*
X0189263Y0091772D01*
X0189263Y0095209D01*
X0189386Y0095667D01*
X0189623Y0096078D01*
X0189958Y0096413D01*
X0190368Y0096650D01*
X0190826Y0096772D01*
X0194263Y0096772D01*
X0194263Y0091772D01*
X0195863Y0091772D01*
X0195863Y0096772D01*
X0199300Y0096772D01*
X0199758Y0096650D01*
X0200168Y0096413D01*
X0200503Y0096078D01*
X0200740Y0095667D01*
X0200863Y0095209D01*
X0200863Y0091772D01*
X0200863Y0093120D02*
X0203073Y0093120D01*
X0203073Y0094718D02*
X0200863Y0094718D01*
X0200264Y0096317D02*
X0203073Y0096317D01*
X0203073Y0097915D02*
X0191278Y0097915D01*
X0191708Y0099514D02*
X0203073Y0099514D01*
X0203073Y0101112D02*
X0191708Y0101112D01*
X0191708Y0102711D02*
X0203073Y0102711D01*
X0203073Y0104309D02*
X0187940Y0104309D01*
X0186341Y0105908D02*
X0203073Y0105908D01*
X0203073Y0107506D02*
X0184743Y0107506D01*
X0183144Y0109105D02*
X0203073Y0109105D01*
X0201511Y0110703D02*
X0192816Y0110703D01*
X0193458Y0112302D02*
X0199912Y0112302D01*
X0198314Y0113900D02*
X0193458Y0113900D01*
X0189436Y0118696D02*
X0171162Y0118696D01*
X0171162Y0120294D02*
X0189436Y0120294D01*
X0189436Y0121893D02*
X0171162Y0121893D01*
X0171162Y0117097D02*
X0179984Y0117097D01*
X0179142Y0115499D02*
X0170835Y0115499D01*
X0169447Y0112302D02*
X0179142Y0112302D01*
X0179142Y0113900D02*
X0155458Y0113900D01*
X0155458Y0115499D02*
X0160236Y0115499D01*
X0171046Y0110703D02*
X0179784Y0110703D01*
X0185316Y0110703D02*
X0187284Y0110703D01*
X0187484Y0117097D02*
X0185116Y0117097D01*
X0189436Y0123491D02*
X0177708Y0123491D01*
X0184453Y0125090D02*
X0189436Y0125090D01*
X0181642Y0104309D02*
X0173464Y0104309D01*
X0175002Y0102711D02*
X0183240Y0102711D01*
X0184839Y0101112D02*
X0175458Y0101112D01*
X0175458Y0099514D02*
X0184892Y0099514D01*
X0185322Y0097915D02*
X0175458Y0097915D01*
X0171892Y0094718D02*
X0171162Y0094718D01*
X0171162Y0093120D02*
X0171892Y0093120D01*
X0171892Y0091521D02*
X0171162Y0091521D01*
X0171162Y0089923D02*
X0172065Y0089923D01*
X0171162Y0088324D02*
X0179573Y0088324D01*
X0179573Y0086726D02*
X0171162Y0086726D01*
X0179573Y0085127D02*
X0153027Y0085127D01*
X0153027Y0083529D02*
X0179573Y0083529D01*
X0179573Y0081930D02*
X0153027Y0081930D01*
X0153027Y0080332D02*
X0179573Y0080332D01*
X0179573Y0078733D02*
X0153027Y0078733D01*
X0153027Y0077134D02*
X0179573Y0077134D01*
X0179573Y0075536D02*
X0153027Y0075536D01*
X0153027Y0073937D02*
X0179573Y0073937D01*
X0179573Y0072339D02*
X0153027Y0072339D01*
X0153027Y0070740D02*
X0179573Y0070740D01*
X0179279Y0069142D02*
X0153027Y0069142D01*
X0153027Y0067543D02*
X0178392Y0067543D01*
X0178392Y0065945D02*
X0153027Y0065945D01*
X0153027Y0064346D02*
X0178392Y0064346D01*
X0148573Y0055142D02*
X0148573Y0046757D01*
X0136658Y0035458D01*
X0133845Y0035458D01*
X0132892Y0034505D01*
X0132892Y0030777D01*
X0105458Y0030777D01*
X0105458Y0031005D01*
X0104505Y0031958D01*
X0099595Y0031958D01*
X0098642Y0031005D01*
X0098642Y0028017D01*
X0093527Y0033884D01*
X0093527Y0033972D01*
X0092928Y0034571D01*
X0092372Y0035209D01*
X0092285Y0035215D01*
X0092222Y0035277D01*
X0091376Y0035277D01*
X0090532Y0035335D01*
X0090466Y0035277D01*
X0086472Y0035277D01*
X0083607Y0038142D01*
X0085505Y0038142D01*
X0086458Y0039095D01*
X0086458Y0039323D01*
X0092642Y0039323D01*
X0092642Y0035345D01*
X0093595Y0034392D01*
X0098505Y0034392D01*
X0099458Y0035345D01*
X0099458Y0039323D01*
X0100972Y0039323D01*
X0102277Y0040628D01*
X0110277Y0048628D01*
X0110277Y0053674D01*
X0111073Y0052878D01*
X0112378Y0051573D01*
X0134583Y0051573D01*
X0136685Y0053676D01*
X0138026Y0053676D01*
X0134628Y0050277D01*
X0120208Y0050277D01*
X0120208Y0050505D01*
X0119255Y0051458D01*
X0114345Y0051458D01*
X0113392Y0050505D01*
X0113392Y0045595D01*
X0114345Y0044642D01*
X0119255Y0044642D01*
X0120208Y0045595D01*
X0120208Y0045823D01*
X0136472Y0045823D01*
X0137777Y0047128D01*
X0146472Y0055823D01*
X0146472Y0055823D01*
X0147392Y0056743D01*
X0147392Y0056095D01*
X0148345Y0055142D01*
X0148573Y0055142D01*
X0148573Y0054755D02*
X0145404Y0054755D01*
X0143806Y0053157D02*
X0148573Y0053157D01*
X0148573Y0051558D02*
X0142207Y0051558D01*
X0140609Y0049960D02*
X0148573Y0049960D01*
X0148573Y0048361D02*
X0139010Y0048361D01*
X0137777Y0047128D02*
X0137777Y0047128D01*
X0137412Y0046763D02*
X0148573Y0046763D01*
X0146893Y0045164D02*
X0119777Y0045164D01*
X0113823Y0045164D02*
X0106813Y0045164D01*
X0105215Y0043566D02*
X0145208Y0043566D01*
X0143522Y0041967D02*
X0103616Y0041967D01*
X0102018Y0040369D02*
X0141836Y0040369D01*
X0140151Y0038770D02*
X0099458Y0038770D01*
X0099458Y0037172D02*
X0138465Y0037172D01*
X0136779Y0035573D02*
X0099458Y0035573D01*
X0094842Y0032376D02*
X0132892Y0032376D01*
X0132892Y0030778D02*
X0105458Y0030778D01*
X0098642Y0030778D02*
X0096235Y0030778D01*
X0097629Y0029179D02*
X0098642Y0029179D01*
X0093524Y0033975D02*
X0132892Y0033975D01*
X0139880Y0032376D02*
X0149977Y0032376D01*
X0148379Y0030778D02*
X0139708Y0030778D01*
X0141566Y0033975D02*
X0151576Y0033975D01*
X0153174Y0035573D02*
X0143252Y0035573D01*
X0144937Y0037172D02*
X0154773Y0037172D01*
X0156371Y0038770D02*
X0146623Y0038770D01*
X0135909Y0051558D02*
X0110277Y0051558D01*
X0110277Y0049960D02*
X0113392Y0049960D01*
X0113392Y0048361D02*
X0110010Y0048361D01*
X0108412Y0046763D02*
X0113392Y0046763D01*
X0110794Y0053157D02*
X0110277Y0053157D01*
X0092642Y0038770D02*
X0086133Y0038770D01*
X0084577Y0037172D02*
X0092642Y0037172D01*
X0092642Y0035573D02*
X0086176Y0035573D01*
X0083075Y0032376D02*
X0077277Y0032376D01*
X0077277Y0030778D02*
X0084892Y0030778D01*
X0084892Y0030823D02*
X0084892Y0027345D01*
X0085794Y0026443D01*
X0080073Y0020722D01*
X0080073Y0008600D01*
X0066800Y0008600D01*
X0066800Y0046800D01*
X0008600Y0046800D01*
X0008600Y0125190D01*
X0009362Y0124428D01*
X0010916Y0123784D01*
X0012597Y0123784D01*
X0014151Y0124428D01*
X0015340Y0125617D01*
X0015983Y0127170D01*
X0015983Y0134052D01*
X0015340Y0135605D01*
X0014151Y0136794D01*
X0012597Y0137438D01*
X0010916Y0137438D01*
X0009362Y0136794D01*
X0008600Y0136032D01*
X0008600Y0138833D01*
X0008601Y0138835D01*
X0008600Y0139580D01*
X0008661Y0140208D01*
X0009140Y0141368D01*
X0010028Y0142255D01*
X0011188Y0142735D01*
X0011816Y0142795D01*
X0012561Y0142794D01*
X0012563Y0142795D01*
X0131511Y0142795D01*
X0131511Y0138516D01*
X0132138Y0137890D01*
X0131511Y0137264D01*
X0131511Y0131916D01*
X0132464Y0130963D01*
X0139812Y0130963D01*
X0140765Y0131916D01*
X0140765Y0137264D01*
X0140139Y0137890D01*
X0140765Y0138516D01*
X0140765Y0142795D01*
X0147646Y0142795D01*
X0147501Y0142650D01*
X0144169Y0139527D01*
X0144128Y0139527D01*
X0143501Y0138900D01*
X0142854Y0138294D01*
X0142853Y0138252D01*
X0142823Y0138222D01*
X0142823Y0137336D01*
X0142795Y0136450D01*
X0142823Y0136419D01*
X0142823Y0130458D01*
X0142595Y0130458D01*
X0141642Y0129505D01*
X0141642Y0129127D01*
X0130451Y0129127D01*
X0129581Y0129167D01*
X0129537Y0129127D01*
X0129478Y0129127D01*
X0128862Y0128511D01*
X0118187Y0118777D01*
X0114958Y0118777D01*
X0114958Y0119005D01*
X0114005Y0119958D01*
X0112107Y0119958D01*
X0112452Y0120303D01*
X0112452Y0121906D01*
X0113872Y0121906D01*
X0113960Y0121855D01*
X0114417Y0121732D01*
X0115343Y0121732D01*
X0115343Y0126288D01*
X0115343Y0126288D01*
X0115343Y0121732D01*
X0116269Y0121732D01*
X0116727Y0121855D01*
X0117137Y0122092D01*
X0117473Y0122427D01*
X0117710Y0122837D01*
X0117832Y0123295D01*
X0117832Y0126288D01*
X0115343Y0126288D01*
X0115343Y0130844D01*
X0114417Y0130844D01*
X0113960Y0130721D01*
X0113872Y0130671D01*
X0103744Y0130671D01*
X0102791Y0129718D01*
X0102791Y0128533D01*
X0102702Y0128534D01*
X0102631Y0128463D01*
X0102530Y0128456D01*
X0101983Y0127826D01*
X0101388Y0127240D01*
X0101387Y0127139D01*
X0099059Y0124458D01*
X0096595Y0124458D01*
X0095642Y0123505D01*
X0095642Y0123277D01*
X0081722Y0123277D01*
X0079222Y0125777D01*
X0066972Y0125777D01*
X0066027Y0126722D01*
X0066027Y0132128D01*
X0067041Y0133142D01*
X0069755Y0133142D01*
X0070708Y0134095D01*
X0070708Y0139005D01*
X0069755Y0139958D01*
X0064845Y0139958D01*
X0063892Y0139005D01*
X0063892Y0136291D01*
X0061573Y0133972D01*
X0061573Y0124878D01*
X0062878Y0123573D01*
X0063823Y0122628D01*
X0063823Y0122628D01*
X0064424Y0122027D01*
X0023983Y0122027D01*
X0023983Y0124358D01*
X0024151Y0124428D01*
X0025340Y0125617D01*
X0025983Y0127170D01*
X0025983Y0134052D01*
X0025340Y0135605D01*
X0024151Y0136794D01*
X0022597Y0137438D01*
X0020916Y0137438D01*
X0019362Y0136794D01*
X0018173Y0135605D01*
X0017530Y0134052D01*
X0017530Y0127170D01*
X0018173Y0125617D01*
X0019362Y0124428D01*
X0019530Y0124358D01*
X0019530Y0118800D01*
X0018829Y0120492D01*
X0017492Y0121829D01*
X0015745Y0122553D01*
X0013855Y0122553D01*
X0012108Y0121829D01*
X0010771Y0120492D01*
X0010047Y0118745D01*
X0010047Y0116855D01*
X0010771Y0115108D01*
X0012108Y0113771D01*
X0013855Y0113047D01*
X0015745Y0113047D01*
X0017492Y0113771D01*
X0018829Y0115108D01*
X0019530Y0116800D01*
X0019530Y0115856D01*
X0019520Y0114945D01*
X0019530Y0114935D01*
X0019530Y0114921D01*
X0020173Y0114278D01*
X0020810Y0113627D01*
X0020824Y0113627D01*
X0020834Y0113617D01*
X0021744Y0113617D01*
X0022655Y0113607D01*
X0022665Y0113617D01*
X0022679Y0113617D01*
X0023322Y0114260D01*
X0023973Y0114897D01*
X0023973Y0114911D01*
X0023983Y0114921D01*
X0023983Y0115831D01*
X0024003Y0117573D01*
X0073823Y0117573D01*
X0073823Y0115371D01*
X0055941Y0115371D01*
X0055472Y0114902D01*
X0055472Y0106777D01*
X0017628Y0106777D01*
X0016323Y0105472D01*
X0016323Y0099958D01*
X0016095Y0099958D01*
X0015142Y0099005D01*
X0015142Y0094095D01*
X0016095Y0093142D01*
X0021005Y0093142D01*
X0021958Y0094095D01*
X0021958Y0099005D01*
X0021005Y0099958D01*
X0020777Y0099958D01*
X0020777Y0102323D01*
X0060073Y0102323D01*
X0060073Y0087628D01*
X0061378Y0086323D01*
X0069392Y0086323D01*
X0069392Y0086277D01*
X0050708Y0086277D01*
X0050708Y0086505D01*
X0049755Y0087458D01*
X0044845Y0087458D01*
X0044161Y0086774D01*
X0044161Y0087482D01*
X0039987Y0087482D01*
X0039987Y0089031D01*
X0044161Y0089031D01*
X0044161Y0092037D01*
X0044039Y0092495D01*
X0043802Y0092905D01*
X0043467Y0093240D01*
X0043056Y0093477D01*
X0042598Y0093600D01*
X0039987Y0093600D01*
X0039987Y0089032D01*
X0038437Y0089032D01*
X0038437Y0093600D01*
X0035825Y0093600D01*
X0035367Y0093477D01*
X0034957Y0093240D01*
X0034622Y0092905D01*
X0034385Y0092495D01*
X0034262Y0092037D01*
X0034262Y0089031D01*
X0038437Y0089031D01*
X0038437Y0087482D01*
X0034262Y0087482D01*
X0034262Y0084476D01*
X0034385Y0084019D01*
X0034409Y0083977D01*
X0034385Y0083936D01*
X0034262Y0083478D01*
X0034262Y0080472D01*
X0038437Y0080472D01*
X0038437Y0078923D01*
X0034262Y0078923D01*
X0034262Y0075917D01*
X0034385Y0075460D01*
X0034421Y0075397D01*
X0034361Y0075293D01*
X0034239Y0074835D01*
X0034239Y0071830D01*
X0038413Y0071830D01*
X0038413Y0074354D01*
X0038437Y0074354D01*
X0038437Y0078923D01*
X0039987Y0078923D01*
X0039987Y0080472D01*
X0044161Y0080472D01*
X0044161Y0081326D01*
X0044845Y0080642D01*
X0049755Y0080642D01*
X0050708Y0081595D01*
X0050708Y0081823D01*
X0069392Y0081823D01*
X0069392Y0081595D01*
X0070345Y0080642D01*
X0074954Y0080642D01*
X0074954Y0079714D01*
X0075906Y0078761D01*
X0077612Y0078761D01*
X0072132Y0073281D01*
X0054988Y0073281D01*
X0054988Y0075272D01*
X0054035Y0076225D01*
X0046388Y0076225D01*
X0045435Y0075272D01*
X0045435Y0068027D01*
X0044138Y0068027D01*
X0044138Y0070280D01*
X0039963Y0070280D01*
X0039963Y0071830D01*
X0038413Y0071830D01*
X0038413Y0070280D01*
X0034239Y0070280D01*
X0034239Y0068027D01*
X0026722Y0068027D01*
X0023194Y0071555D01*
X0023517Y0071878D01*
X0026167Y0074528D01*
X0032012Y0074528D01*
X0032965Y0075480D01*
X0032965Y0083915D01*
X0032902Y0083977D01*
X0032965Y0084040D01*
X0032965Y0092474D01*
X0032012Y0093427D01*
X0030790Y0093427D01*
X0031458Y0094095D01*
X0031458Y0099005D01*
X0030505Y0099958D01*
X0025595Y0099958D01*
X0024642Y0099005D01*
X0024642Y0094095D01*
X0025310Y0093427D01*
X0024365Y0093427D01*
X0023412Y0092474D01*
X0023412Y0084040D01*
X0023474Y0083977D01*
X0023412Y0083915D01*
X0023412Y0078070D01*
X0021402Y0076061D01*
X0021255Y0076208D01*
X0016345Y0076208D01*
X0015392Y0075255D01*
X0015392Y0070345D01*
X0016345Y0069392D01*
X0019059Y0069392D01*
X0022674Y0065777D01*
X0022208Y0065777D01*
X0022208Y0066005D01*
X0021255Y0066958D01*
X0016345Y0066958D01*
X0015392Y0066005D01*
X0015392Y0056345D01*
X0016345Y0055392D01*
X0021255Y0055392D01*
X0022208Y0056345D01*
X0022208Y0056573D01*
X0023662Y0056573D01*
X0023662Y0054133D01*
X0024615Y0053180D01*
X0032262Y0053180D01*
X0033215Y0054133D01*
X0033215Y0061323D01*
X0034512Y0061323D01*
X0034512Y0059125D01*
X0038687Y0059125D01*
X0038687Y0057575D01*
X0040237Y0057575D01*
X0040237Y0059125D01*
X0044411Y0059125D01*
X0044411Y0061323D01*
X0054642Y0061323D01*
X0054642Y0057345D01*
X0055595Y0056392D01*
X0058386Y0056392D01*
X0068073Y0047100D01*
X0068073Y0027958D01*
X0067845Y0027958D01*
X0066892Y0027005D01*
X0066892Y0022095D01*
X0067845Y0021142D01*
X0077505Y0021142D01*
X0078458Y0022095D01*
X0078458Y0027005D01*
X0077505Y0027958D01*
X0077277Y0027958D01*
X0077277Y0038174D01*
X0078128Y0037323D01*
X0084628Y0030823D01*
X0084892Y0030823D01*
X0084892Y0029179D02*
X0077277Y0029179D01*
X0077882Y0027581D02*
X0084892Y0027581D01*
X0085333Y0025982D02*
X0078458Y0025982D01*
X0078458Y0024384D02*
X0083734Y0024384D01*
X0082136Y0022785D02*
X0078458Y0022785D01*
X0077549Y0021187D02*
X0080537Y0021187D01*
X0080073Y0019588D02*
X0066800Y0019588D01*
X0066800Y0017990D02*
X0080073Y0017990D01*
X0080073Y0016391D02*
X0066800Y0016391D01*
X0066800Y0014793D02*
X0080073Y0014793D01*
X0080073Y0013194D02*
X0066800Y0013194D01*
X0066800Y0011596D02*
X0080073Y0011596D01*
X0080073Y0009997D02*
X0066800Y0009997D01*
X0066800Y0021187D02*
X0067801Y0021187D01*
X0066892Y0022785D02*
X0066800Y0022785D01*
X0066800Y0024384D02*
X0066892Y0024384D01*
X0066892Y0025982D02*
X0066800Y0025982D01*
X0066800Y0027581D02*
X0067468Y0027581D01*
X0068073Y0029179D02*
X0066800Y0029179D01*
X0066800Y0030778D02*
X0068073Y0030778D01*
X0068073Y0032376D02*
X0066800Y0032376D01*
X0066800Y0033975D02*
X0068073Y0033975D01*
X0068073Y0035573D02*
X0066800Y0035573D01*
X0066800Y0037172D02*
X0068073Y0037172D01*
X0068073Y0038770D02*
X0066800Y0038770D01*
X0066800Y0040369D02*
X0068073Y0040369D01*
X0068073Y0041967D02*
X0066800Y0041967D01*
X0066800Y0043566D02*
X0068073Y0043566D01*
X0068073Y0045164D02*
X0066800Y0045164D01*
X0066800Y0046763D02*
X0068073Y0046763D01*
X0066759Y0048361D02*
X0008600Y0048361D01*
X0008600Y0049960D02*
X0065092Y0049960D01*
X0063426Y0051558D02*
X0008600Y0051558D01*
X0008600Y0053157D02*
X0035570Y0053157D01*
X0035617Y0053129D02*
X0036075Y0053007D01*
X0038687Y0053007D01*
X0038687Y0057575D01*
X0034512Y0057575D01*
X0034512Y0054570D01*
X0034635Y0054112D01*
X0034872Y0053701D01*
X0035207Y0053366D01*
X0035617Y0053129D01*
X0034512Y0054755D02*
X0033215Y0054755D01*
X0033215Y0056354D02*
X0034512Y0056354D01*
X0033215Y0057952D02*
X0038687Y0057952D01*
X0040237Y0057952D02*
X0054642Y0057952D01*
X0054642Y0059551D02*
X0044411Y0059551D01*
X0044411Y0061149D02*
X0054642Y0061149D01*
X0058426Y0056354D02*
X0044411Y0056354D01*
X0044411Y0057575D02*
X0044411Y0054570D01*
X0044289Y0054112D01*
X0044052Y0053701D01*
X0043717Y0053366D01*
X0043306Y0053129D01*
X0042848Y0053007D01*
X0040237Y0053007D01*
X0040237Y0057575D01*
X0044411Y0057575D01*
X0044411Y0054755D02*
X0060092Y0054755D01*
X0061759Y0053157D02*
X0043354Y0053157D01*
X0040237Y0053157D02*
X0038687Y0053157D01*
X0038687Y0054755D02*
X0040237Y0054755D01*
X0040237Y0056354D02*
X0038687Y0056354D01*
X0034512Y0059551D02*
X0033215Y0059551D01*
X0033215Y0061149D02*
X0034512Y0061149D01*
X0023662Y0056354D02*
X0022208Y0056354D01*
X0023662Y0054755D02*
X0008600Y0054755D01*
X0008600Y0056354D02*
X0015392Y0056354D01*
X0015392Y0057952D02*
X0008600Y0057952D01*
X0008600Y0059551D02*
X0015392Y0059551D01*
X0015392Y0061149D02*
X0008600Y0061149D01*
X0008600Y0062748D02*
X0015392Y0062748D01*
X0015392Y0064346D02*
X0008600Y0064346D01*
X0008600Y0065945D02*
X0015392Y0065945D01*
X0020907Y0067543D02*
X0008600Y0067543D01*
X0008600Y0069142D02*
X0019309Y0069142D01*
X0015392Y0070740D02*
X0008600Y0070740D01*
X0008600Y0072339D02*
X0015392Y0072339D01*
X0015392Y0073937D02*
X0008600Y0073937D01*
X0008600Y0075536D02*
X0015673Y0075536D01*
X0022476Y0077134D02*
X0008600Y0077134D01*
X0008600Y0078733D02*
X0023412Y0078733D01*
X0023412Y0080332D02*
X0008600Y0080332D01*
X0008600Y0081930D02*
X0023412Y0081930D01*
X0023412Y0083529D02*
X0008600Y0083529D01*
X0008600Y0085127D02*
X0023412Y0085127D01*
X0023412Y0086726D02*
X0008600Y0086726D01*
X0008600Y0088324D02*
X0023412Y0088324D01*
X0023412Y0089923D02*
X0008600Y0089923D01*
X0008600Y0091521D02*
X0023412Y0091521D01*
X0024058Y0093120D02*
X0008600Y0093120D01*
X0008600Y0094718D02*
X0015142Y0094718D01*
X0015142Y0096317D02*
X0008600Y0096317D01*
X0008600Y0097915D02*
X0015142Y0097915D01*
X0015651Y0099514D02*
X0008600Y0099514D01*
X0008600Y0101112D02*
X0016323Y0101112D01*
X0016323Y0102711D02*
X0008600Y0102711D01*
X0008600Y0104309D02*
X0016323Y0104309D01*
X0016759Y0105908D02*
X0008600Y0105908D01*
X0008600Y0107506D02*
X0055472Y0107506D01*
X0055472Y0109105D02*
X0008600Y0109105D01*
X0008600Y0110703D02*
X0055472Y0110703D01*
X0055472Y0112302D02*
X0008600Y0112302D01*
X0008600Y0113900D02*
X0011978Y0113900D01*
X0010609Y0115499D02*
X0008600Y0115499D01*
X0008600Y0117097D02*
X0010047Y0117097D01*
X0010047Y0118696D02*
X0008600Y0118696D01*
X0008600Y0120294D02*
X0010689Y0120294D01*
X0012261Y0121893D02*
X0008600Y0121893D01*
X0008600Y0123491D02*
X0019530Y0123491D01*
X0019530Y0121893D02*
X0017339Y0121893D01*
X0018911Y0120294D02*
X0019530Y0120294D01*
X0023983Y0123491D02*
X0062960Y0123491D01*
X0061573Y0125090D02*
X0035058Y0125090D01*
X0035113Y0125145D02*
X0035520Y0125705D01*
X0035834Y0126322D01*
X0036048Y0126981D01*
X0036157Y0127665D01*
X0036157Y0130611D01*
X0036157Y0133557D01*
X0036048Y0134241D01*
X0035834Y0134900D01*
X0035520Y0135517D01*
X0035113Y0136077D01*
X0034623Y0136567D01*
X0034063Y0136974D01*
X0033446Y0137289D01*
X0032787Y0137503D01*
X0032103Y0137611D01*
X0031757Y0137611D01*
X0031757Y0130611D01*
X0031757Y0130611D01*
X0036157Y0130611D01*
X0031757Y0130611D01*
X0031757Y0123611D01*
X0032103Y0123611D01*
X0032787Y0123719D01*
X0033446Y0123933D01*
X0034063Y0124248D01*
X0034623Y0124655D01*
X0035113Y0125145D01*
X0035953Y0126688D02*
X0061573Y0126688D01*
X0061573Y0128287D02*
X0036157Y0128287D01*
X0036157Y0129885D02*
X0061573Y0129885D01*
X0061573Y0131484D02*
X0036157Y0131484D01*
X0036157Y0133082D02*
X0061573Y0133082D01*
X0062282Y0134681D02*
X0035906Y0134681D01*
X0034911Y0136279D02*
X0063880Y0136279D01*
X0063892Y0137878D02*
X0008600Y0137878D01*
X0008600Y0139476D02*
X0064364Y0139476D01*
X0070236Y0139476D02*
X0089134Y0139476D01*
X0089134Y0140698D02*
X0089134Y0137521D01*
X0093677Y0137521D01*
X0093677Y0135921D01*
X0095277Y0135921D01*
X0095277Y0131181D01*
X0098257Y0131181D01*
X0098715Y0131304D01*
X0099126Y0131541D01*
X0099461Y0131876D01*
X0099698Y0132286D01*
X0099820Y0132744D01*
X0099820Y0135921D01*
X0095277Y0135921D01*
X0095277Y0137521D01*
X0099820Y0137521D01*
X0099820Y0140698D01*
X0099698Y0141156D01*
X0099461Y0141567D01*
X0099126Y0141902D01*
X0098715Y0142139D01*
X0098257Y0142261D01*
X0095277Y0142261D01*
X0095277Y0137521D01*
X0093677Y0137521D01*
X0093677Y0142261D01*
X0090697Y0142261D01*
X0090239Y0142139D01*
X0089829Y0141902D01*
X0089493Y0141567D01*
X0089257Y0141156D01*
X0089134Y0140698D01*
X0089235Y0141075D02*
X0009019Y0141075D01*
X0011040Y0142673D02*
X0131511Y0142673D01*
X0130622Y0141902D02*
X0130211Y0142139D01*
X0129754Y0142261D01*
X0126773Y0142261D01*
X0126773Y0137521D01*
X0131317Y0137521D01*
X0131317Y0140698D01*
X0131194Y0141156D01*
X0130957Y0141567D01*
X0130622Y0141902D01*
X0131216Y0141075D02*
X0131511Y0141075D01*
X0131511Y0139476D02*
X0131317Y0139476D01*
X0131317Y0137878D02*
X0132126Y0137878D01*
X0131511Y0136279D02*
X0126773Y0136279D01*
X0126773Y0135921D02*
X0126773Y0137521D01*
X0125173Y0137521D01*
X0125173Y0135921D01*
X0126773Y0135921D01*
X0126773Y0131181D01*
X0129754Y0131181D01*
X0130211Y0131304D01*
X0130622Y0131541D01*
X0130957Y0131876D01*
X0131194Y0132286D01*
X0131317Y0132744D01*
X0131317Y0135921D01*
X0126773Y0135921D01*
X0126773Y0134681D02*
X0125173Y0134681D01*
X0125173Y0135921D02*
X0125173Y0131181D01*
X0122193Y0131181D01*
X0121735Y0131304D01*
X0121325Y0131541D01*
X0120990Y0131876D01*
X0120753Y0132286D01*
X0120630Y0132744D01*
X0120630Y0135921D01*
X0125173Y0135921D01*
X0125173Y0136279D02*
X0120592Y0136279D01*
X0120630Y0137521D02*
X0125173Y0137521D01*
X0125173Y0142261D01*
X0122193Y0142261D01*
X0121735Y0142139D01*
X0121325Y0141902D01*
X0120990Y0141567D01*
X0120753Y0141156D01*
X0120630Y0140698D01*
X0120630Y0137521D01*
X0120630Y0137878D02*
X0120592Y0137878D01*
X0120592Y0139476D02*
X0120630Y0139476D01*
X0120592Y0141075D02*
X0120731Y0141075D01*
X0120592Y0141135D02*
X0119639Y0142088D01*
X0110811Y0142088D01*
X0110225Y0141502D01*
X0109639Y0142088D01*
X0100811Y0142088D01*
X0099858Y0141135D01*
X0099858Y0132307D01*
X0100811Y0131354D01*
X0109639Y0131354D01*
X0110225Y0131940D01*
X0110811Y0131354D01*
X0119639Y0131354D01*
X0120592Y0132307D01*
X0120592Y0141135D01*
X0125173Y0141075D02*
X0126773Y0141075D01*
X0126773Y0139476D02*
X0125173Y0139476D01*
X0125173Y0137878D02*
X0126773Y0137878D01*
X0131317Y0134681D02*
X0131511Y0134681D01*
X0131511Y0133082D02*
X0131317Y0133082D01*
X0131943Y0131484D02*
X0130523Y0131484D01*
X0126773Y0131484D02*
X0125173Y0131484D01*
X0125173Y0133082D02*
X0126773Y0133082D01*
X0121423Y0131484D02*
X0119769Y0131484D01*
X0120592Y0133082D02*
X0120630Y0133082D01*
X0120592Y0134681D02*
X0120630Y0134681D01*
X0117137Y0130484D02*
X0116727Y0130721D01*
X0116269Y0130844D01*
X0115343Y0130844D01*
X0115343Y0126288D01*
X0115343Y0126288D01*
X0115343Y0126288D01*
X0117832Y0126288D01*
X0117832Y0129281D01*
X0117710Y0129739D01*
X0117473Y0130149D01*
X0117137Y0130484D01*
X0117625Y0129885D02*
X0142023Y0129885D01*
X0142823Y0131484D02*
X0140333Y0131484D01*
X0140765Y0133082D02*
X0142823Y0133082D01*
X0142823Y0134681D02*
X0140765Y0134681D01*
X0140765Y0136279D02*
X0142823Y0136279D01*
X0142823Y0137878D02*
X0140151Y0137878D01*
X0140765Y0139476D02*
X0144077Y0139476D01*
X0145821Y0141075D02*
X0140765Y0141075D01*
X0140765Y0142673D02*
X0147524Y0142673D01*
X0128616Y0128287D02*
X0117832Y0128287D01*
X0117832Y0126688D02*
X0126863Y0126688D01*
X0125110Y0125090D02*
X0117832Y0125090D01*
X0117832Y0123491D02*
X0123357Y0123491D01*
X0121604Y0121893D02*
X0116793Y0121893D01*
X0115343Y0121893D02*
X0115343Y0121893D01*
X0113894Y0121893D02*
X0112452Y0121893D01*
X0112443Y0120294D02*
X0119851Y0120294D01*
X0115343Y0123491D02*
X0115343Y0123491D01*
X0115343Y0125090D02*
X0115343Y0125090D01*
X0115343Y0126688D02*
X0115343Y0126688D01*
X0115343Y0128287D02*
X0115343Y0128287D01*
X0115343Y0129885D02*
X0115343Y0129885D01*
X0110682Y0131484D02*
X0109769Y0131484D01*
X0102959Y0129885D02*
X0066027Y0129885D01*
X0066027Y0128287D02*
X0102383Y0128287D01*
X0100996Y0126688D02*
X0066061Y0126688D01*
X0066027Y0131484D02*
X0089927Y0131484D01*
X0089829Y0131541D02*
X0090239Y0131304D01*
X0090697Y0131181D01*
X0093677Y0131181D01*
X0093677Y0135921D01*
X0089134Y0135921D01*
X0089134Y0132744D01*
X0089257Y0132286D01*
X0089493Y0131876D01*
X0089829Y0131541D01*
X0089134Y0133082D02*
X0066982Y0133082D01*
X0070708Y0134681D02*
X0089134Y0134681D01*
X0093677Y0134681D02*
X0095277Y0134681D01*
X0095277Y0136279D02*
X0099858Y0136279D01*
X0099820Y0134681D02*
X0099858Y0134681D01*
X0099820Y0133082D02*
X0099858Y0133082D01*
X0100682Y0131484D02*
X0099027Y0131484D01*
X0095277Y0131484D02*
X0093677Y0131484D01*
X0093677Y0133082D02*
X0095277Y0133082D01*
X0093677Y0136279D02*
X0070708Y0136279D01*
X0070708Y0137878D02*
X0089134Y0137878D01*
X0093677Y0137878D02*
X0095277Y0137878D01*
X0095277Y0139476D02*
X0093677Y0139476D01*
X0093677Y0141075D02*
X0095277Y0141075D01*
X0099720Y0141075D02*
X0099858Y0141075D01*
X0099820Y0139476D02*
X0099858Y0139476D01*
X0099820Y0137878D02*
X0099858Y0137878D01*
X0099608Y0125090D02*
X0079909Y0125090D01*
X0081508Y0123491D02*
X0095642Y0123491D01*
X0095642Y0114323D02*
X0087708Y0114323D01*
X0087708Y0110345D01*
X0086755Y0109392D01*
X0086527Y0109392D01*
X0086527Y0105222D01*
X0089041Y0102708D01*
X0091755Y0102708D01*
X0092708Y0101755D01*
X0092708Y0096845D01*
X0092538Y0096675D01*
X0092708Y0096505D01*
X0092708Y0091595D01*
X0091755Y0090642D01*
X0091527Y0090642D01*
X0091527Y0086708D01*
X0095755Y0086708D01*
X0096708Y0085755D01*
X0096708Y0081239D01*
X0097345Y0081239D01*
X0097345Y0082836D01*
X0098298Y0083789D01*
X0104412Y0083789D01*
X0097823Y0090378D01*
X0097823Y0100892D01*
X0097595Y0100892D01*
X0096642Y0101845D01*
X0096642Y0106755D01*
X0097595Y0107708D01*
X0102073Y0107708D01*
X0102073Y0113710D01*
X0101505Y0113142D01*
X0096595Y0113142D01*
X0095642Y0114095D01*
X0095642Y0114323D01*
X0095837Y0113900D02*
X0087708Y0113900D01*
X0087708Y0112302D02*
X0102073Y0112302D01*
X0102073Y0110703D02*
X0087708Y0110703D01*
X0086527Y0109105D02*
X0102073Y0109105D01*
X0097393Y0107506D02*
X0086527Y0107506D01*
X0086527Y0105908D02*
X0096642Y0105908D01*
X0096642Y0104309D02*
X0087440Y0104309D01*
X0089038Y0102711D02*
X0096642Y0102711D01*
X0097375Y0101112D02*
X0092708Y0101112D01*
X0092708Y0099514D02*
X0097823Y0099514D01*
X0097823Y0097915D02*
X0092708Y0097915D01*
X0092708Y0096317D02*
X0097823Y0096317D01*
X0097823Y0094718D02*
X0092708Y0094718D01*
X0092708Y0093120D02*
X0097823Y0093120D01*
X0097823Y0091521D02*
X0092634Y0091521D01*
X0091527Y0089923D02*
X0098278Y0089923D01*
X0099877Y0088324D02*
X0091527Y0088324D01*
X0091527Y0086726D02*
X0101475Y0086726D01*
X0103074Y0085127D02*
X0096708Y0085127D01*
X0096708Y0083529D02*
X0098037Y0083529D01*
X0097345Y0081930D02*
X0096708Y0081930D01*
X0077584Y0078733D02*
X0044161Y0078733D01*
X0044161Y0078923D02*
X0039987Y0078923D01*
X0039987Y0076398D01*
X0039963Y0076398D01*
X0039963Y0071830D01*
X0044138Y0071830D01*
X0044138Y0074835D01*
X0044015Y0075293D01*
X0043979Y0075356D01*
X0044039Y0075460D01*
X0044161Y0075917D01*
X0044161Y0078923D01*
X0044161Y0077134D02*
X0075985Y0077134D01*
X0074387Y0075536D02*
X0054724Y0075536D01*
X0054988Y0073937D02*
X0072788Y0073937D01*
X0074954Y0080332D02*
X0039987Y0080332D01*
X0039987Y0080473D02*
X0038437Y0080473D01*
X0038437Y0082913D01*
X0038437Y0087482D01*
X0039987Y0087482D01*
X0039987Y0080473D01*
X0039987Y0081930D02*
X0038437Y0081930D01*
X0038437Y0080332D02*
X0032965Y0080332D01*
X0032965Y0081930D02*
X0034262Y0081930D01*
X0034276Y0083529D02*
X0032965Y0083529D01*
X0032965Y0085127D02*
X0034262Y0085127D01*
X0034262Y0086726D02*
X0032965Y0086726D01*
X0032965Y0088324D02*
X0038437Y0088324D01*
X0039987Y0088324D02*
X0060073Y0088324D01*
X0060073Y0089923D02*
X0044161Y0089923D01*
X0044161Y0091521D02*
X0060073Y0091521D01*
X0060073Y0093120D02*
X0043587Y0093120D01*
X0039987Y0093120D02*
X0038437Y0093120D01*
X0038437Y0091521D02*
X0039987Y0091521D01*
X0039987Y0089923D02*
X0038437Y0089923D01*
X0034262Y0089923D02*
X0032965Y0089923D01*
X0032965Y0091521D02*
X0034262Y0091521D01*
X0034836Y0093120D02*
X0032319Y0093120D01*
X0031458Y0094718D02*
X0060073Y0094718D01*
X0060073Y0096317D02*
X0031458Y0096317D01*
X0031458Y0097915D02*
X0060073Y0097915D01*
X0060073Y0099514D02*
X0030949Y0099514D01*
X0025151Y0099514D02*
X0021449Y0099514D01*
X0021958Y0097915D02*
X0024642Y0097915D01*
X0024642Y0096317D02*
X0021958Y0096317D01*
X0021958Y0094718D02*
X0024642Y0094718D01*
X0020777Y0101112D02*
X0060073Y0101112D01*
X0055472Y0113900D02*
X0022963Y0113900D01*
X0023983Y0115499D02*
X0073823Y0115499D01*
X0073823Y0117097D02*
X0023997Y0117097D01*
X0020542Y0113900D02*
X0017622Y0113900D01*
X0018991Y0115499D02*
X0019526Y0115499D01*
X0028890Y0124655D02*
X0029451Y0124248D01*
X0030068Y0123933D01*
X0030726Y0123719D01*
X0031410Y0123611D01*
X0031757Y0123611D01*
X0031757Y0130611D01*
X0031757Y0130611D01*
X0031757Y0130611D01*
X0031757Y0137611D01*
X0031410Y0137611D01*
X0030726Y0137503D01*
X0030068Y0137289D01*
X0029451Y0136974D01*
X0028890Y0136567D01*
X0028401Y0136077D01*
X0027993Y0135517D01*
X0027679Y0134900D01*
X0027465Y0134241D01*
X0027357Y0133557D01*
X0027357Y0130611D01*
X0027357Y0127665D01*
X0027465Y0126981D01*
X0027679Y0126322D01*
X0027993Y0125705D01*
X0028401Y0125145D01*
X0028890Y0124655D01*
X0028455Y0125090D02*
X0024813Y0125090D01*
X0025784Y0126688D02*
X0027560Y0126688D01*
X0027357Y0128287D02*
X0025983Y0128287D01*
X0025983Y0129885D02*
X0027357Y0129885D01*
X0027357Y0130611D02*
X0031757Y0130611D01*
X0031757Y0130611D01*
X0027357Y0130611D01*
X0027357Y0131484D02*
X0025983Y0131484D01*
X0025983Y0133082D02*
X0027357Y0133082D01*
X0027608Y0134681D02*
X0025723Y0134681D01*
X0024666Y0136279D02*
X0028603Y0136279D01*
X0031757Y0136279D02*
X0031757Y0136279D01*
X0031757Y0134681D02*
X0031757Y0134681D01*
X0031757Y0133082D02*
X0031757Y0133082D01*
X0031757Y0131484D02*
X0031757Y0131484D01*
X0031757Y0129885D02*
X0031757Y0129885D01*
X0031757Y0128287D02*
X0031757Y0128287D01*
X0031757Y0126688D02*
X0031757Y0126688D01*
X0031757Y0125090D02*
X0031757Y0125090D01*
X0018700Y0125090D02*
X0014813Y0125090D01*
X0015784Y0126688D02*
X0017730Y0126688D01*
X0017530Y0128287D02*
X0015983Y0128287D01*
X0015983Y0129885D02*
X0017530Y0129885D01*
X0017530Y0131484D02*
X0015983Y0131484D01*
X0015983Y0133082D02*
X0017530Y0133082D01*
X0017791Y0134681D02*
X0015723Y0134681D01*
X0014666Y0136279D02*
X0018848Y0136279D01*
X0008848Y0136279D02*
X0008600Y0136279D01*
X0008600Y0125090D02*
X0008700Y0125090D01*
X0038437Y0086726D02*
X0039987Y0086726D01*
X0039987Y0085127D02*
X0038437Y0085127D01*
X0038437Y0083529D02*
X0039987Y0083529D01*
X0039987Y0078733D02*
X0038437Y0078733D01*
X0038437Y0077134D02*
X0039987Y0077134D01*
X0039963Y0075536D02*
X0038437Y0075536D01*
X0038413Y0073937D02*
X0039963Y0073937D01*
X0039963Y0072339D02*
X0038413Y0072339D01*
X0038413Y0070740D02*
X0024009Y0070740D01*
X0023979Y0072339D02*
X0034239Y0072339D01*
X0034239Y0073937D02*
X0025577Y0073937D01*
X0025607Y0069142D02*
X0034239Y0069142D01*
X0039963Y0070740D02*
X0045435Y0070740D01*
X0045435Y0069142D02*
X0044138Y0069142D01*
X0044138Y0072339D02*
X0045435Y0072339D01*
X0045435Y0073937D02*
X0044138Y0073937D01*
X0044059Y0075536D02*
X0045700Y0075536D01*
X0034364Y0075536D02*
X0032965Y0075536D01*
X0032965Y0077134D02*
X0034262Y0077134D01*
X0034262Y0078733D02*
X0032965Y0078733D01*
X0050487Y0086726D02*
X0060975Y0086726D01*
X0022506Y0065945D02*
X0022208Y0065945D01*
X0077277Y0037172D02*
X0078279Y0037172D01*
X0077277Y0035573D02*
X0079878Y0035573D01*
X0081476Y0033975D02*
X0077277Y0033975D01*
X0136166Y0053157D02*
X0137508Y0053157D01*
X0147003Y0056354D02*
X0147392Y0056354D01*
X0153125Y0086726D02*
X0159909Y0086726D01*
X0159909Y0088324D02*
X0154723Y0088324D01*
X0156322Y0089923D02*
X0159909Y0089923D01*
X0159909Y0091521D02*
X0157920Y0091521D01*
X0159519Y0093120D02*
X0159909Y0093120D01*
X0170492Y0096317D02*
X0189862Y0096317D01*
X0189263Y0094718D02*
X0179531Y0094718D01*
X0181130Y0093120D02*
X0189263Y0093120D01*
X0189263Y0089923D02*
X0184027Y0089923D01*
X0184027Y0088324D02*
X0189263Y0088324D01*
X0189266Y0086726D02*
X0184027Y0086726D01*
X0182728Y0091521D02*
X0194263Y0091521D01*
X0194263Y0089923D02*
X0195863Y0089923D01*
X0195863Y0091521D02*
X0203073Y0091521D01*
X0195863Y0093120D02*
X0194263Y0093120D01*
X0194263Y0094718D02*
X0195863Y0094718D01*
X0195863Y0096317D02*
X0194263Y0096317D01*
X0194263Y0088324D02*
X0195863Y0088324D01*
X0195863Y0086726D02*
X0194263Y0086726D01*
X0182722Y0091527D02*
X0182722Y0091527D01*
D22*
X0195563Y0119800D02*
X0195063Y0120500D01*
X0039212Y0080300D02*
X0039212Y0079698D01*
X0028300Y0079698D02*
X0028188Y0079698D01*
D23*
X0021291Y0072800D01*
X0018800Y0072800D01*
X0025800Y0065800D01*
X0064550Y0065800D01*
X0079050Y0051550D01*
X0079050Y0039550D01*
X0085550Y0033050D01*
X0091300Y0033050D01*
X0099800Y0023300D01*
X0107800Y0023300D01*
X0108800Y0024300D01*
X0108300Y0017800D02*
X0116300Y0025800D01*
X0163550Y0025800D01*
X0165550Y0026800D01*
X0159800Y0033300D02*
X0174800Y0033300D01*
X0179800Y0028300D01*
X0179800Y0023050D02*
X0116550Y0023050D01*
X0107800Y0014300D01*
X0089550Y0014300D01*
X0087300Y0017050D01*
X0085800Y0017050D01*
X0082300Y0019800D02*
X0088300Y0025800D01*
X0088300Y0029800D01*
X0075050Y0024550D02*
X0075050Y0051050D01*
X0062550Y0063550D01*
X0018800Y0063550D01*
X0018800Y0058800D02*
X0027988Y0058800D01*
X0028438Y0058350D01*
X0039462Y0058350D02*
X0045500Y0058350D01*
X0045550Y0058300D01*
X0039512Y0058300D01*
X0039462Y0058350D01*
X0058050Y0059800D02*
X0070300Y0048050D01*
X0070300Y0024550D01*
X0082300Y0019800D02*
X0082300Y0008800D01*
X0082321Y0008779D01*
X0201571Y0008779D01*
X0205300Y0012508D01*
X0205300Y0110063D01*
X0195563Y0119800D01*
X0190050Y0113800D02*
X0182550Y0113800D01*
X0175050Y0110550D02*
X0171300Y0114300D01*
X0157300Y0114300D01*
X0160550Y0111550D02*
X0159550Y0110550D01*
X0129550Y0110550D01*
X0127550Y0112550D01*
X0127550Y0117050D02*
X0133788Y0117050D01*
X0135038Y0115800D01*
X0146062Y0115800D02*
X0146062Y0120062D01*
X0148675Y0122675D01*
X0155175Y0122675D01*
X0152050Y0118550D02*
X0159300Y0118550D01*
X0159300Y0127300D01*
X0169550Y0127300D01*
X0176300Y0134050D01*
X0176300Y0135800D01*
X0178550Y0138050D01*
X0181050Y0138050D01*
X0183800Y0140800D01*
X0188462Y0140800D01*
X0190102Y0141440D01*
X0193490Y0134490D02*
X0197800Y0138800D01*
X0202050Y0138800D01*
X0202106Y0138744D01*
X0193490Y0134490D02*
X0190490Y0134490D01*
X0190102Y0134740D01*
X0181050Y0133050D02*
X0179550Y0133050D01*
X0174550Y0128050D01*
X0174550Y0125550D01*
X0174300Y0125550D01*
X0181050Y0127550D02*
X0194550Y0127550D01*
X0171550Y0107050D02*
X0167050Y0111550D01*
X0160550Y0111550D01*
X0152050Y0114300D02*
X0152050Y0118550D01*
X0150550Y0127050D02*
X0150550Y0131550D01*
X0153378Y0134378D01*
X0153800Y0134378D01*
X0156938Y0134490D01*
X0156938Y0141190D02*
X0153548Y0141050D01*
X0149050Y0141050D01*
X0145050Y0137300D01*
X0145050Y0127050D01*
X0144900Y0126900D01*
X0130400Y0126900D01*
X0119050Y0116550D01*
X0111550Y0116550D01*
X0110225Y0121225D02*
X0106800Y0117800D01*
X0106800Y0091300D01*
X0113050Y0085050D01*
X0113050Y0058050D01*
X0115050Y0056050D01*
X0127300Y0056050D01*
X0132800Y0061550D01*
X0136601Y0061550D01*
X0136944Y0061893D01*
X0136944Y0057083D02*
X0133660Y0053800D01*
X0113300Y0053800D01*
X0110550Y0056550D01*
X0110550Y0084050D01*
X0104300Y0090300D01*
X0104300Y0119300D01*
X0107666Y0122666D01*
X0107666Y0123184D01*
X0110225Y0121225D02*
X0110225Y0126288D01*
X0105107Y0126288D02*
X0103607Y0126300D01*
X0099050Y0121050D01*
X0080800Y0121050D01*
X0078300Y0123550D01*
X0066050Y0123550D01*
X0063800Y0125800D01*
X0063800Y0133050D01*
X0067300Y0136550D01*
X0067550Y0128300D02*
X0085800Y0128300D01*
X0089300Y0124800D01*
X0092769Y0127769D01*
X0092769Y0138430D01*
X0094477Y0136721D01*
X0115343Y0126288D02*
X0119562Y0126288D01*
X0120550Y0125300D01*
X0125973Y0130723D01*
X0125973Y0136721D01*
X0099050Y0116550D02*
X0082300Y0116550D01*
X0080800Y0115050D01*
X0080800Y0098800D01*
X0084550Y0095300D01*
X0084550Y0062050D01*
X0079550Y0057050D01*
X0086300Y0051550D02*
X0086300Y0046800D01*
X0088300Y0044800D01*
X0083050Y0041550D02*
X0100050Y0041550D01*
X0108050Y0049550D01*
X0108050Y0083300D01*
X0100050Y0091300D01*
X0100050Y0104300D01*
X0095300Y0104300D02*
X0095300Y0111800D01*
X0084300Y0112800D02*
X0084300Y0104300D01*
X0089300Y0099300D01*
X0089300Y0094050D02*
X0089300Y0067550D01*
X0092550Y0064300D01*
X0092550Y0051550D01*
X0096050Y0044800D02*
X0096050Y0071050D01*
X0102050Y0067954D02*
X0102515Y0067989D01*
X0102050Y0067954D02*
X0102050Y0051550D01*
X0116800Y0048050D02*
X0135550Y0048050D01*
X0145550Y0058050D01*
X0145550Y0073300D01*
X0139550Y0079300D01*
X0139550Y0086800D02*
X0150800Y0086800D01*
X0150800Y0087550D01*
X0163050Y0099800D01*
X0167300Y0100050D02*
X0167300Y0102550D01*
X0165800Y0104050D01*
X0161550Y0104050D01*
X0151550Y0094050D01*
X0119800Y0094050D01*
X0123550Y0106550D02*
X0168050Y0106550D01*
X0171800Y0102800D01*
X0172050Y0099800D01*
X0167550Y0099800D02*
X0167300Y0100050D01*
X0171550Y0107050D02*
X0182050Y0107050D01*
X0188300Y0100800D01*
X0195050Y0108050D02*
X0195050Y0090985D01*
X0195063Y0090972D01*
X0195800Y0089193D02*
X0195800Y0071800D01*
X0181800Y0065800D02*
X0181800Y0089300D01*
X0178550Y0092550D01*
X0175300Y0092550D01*
X0195063Y0090972D02*
X0195132Y0090901D01*
X0195197Y0090827D01*
X0195260Y0090751D01*
X0195319Y0090672D01*
X0195376Y0090591D01*
X0195429Y0090508D01*
X0195479Y0090422D01*
X0195526Y0090335D01*
X0195569Y0090246D01*
X0195608Y0090156D01*
X0195644Y0090064D01*
X0195677Y0089970D01*
X0195706Y0089876D01*
X0195730Y0089780D01*
X0195752Y0089684D01*
X0195769Y0089587D01*
X0195783Y0089489D01*
X0195792Y0089390D01*
X0195798Y0089292D01*
X0195800Y0089193D01*
X0150800Y0086800D02*
X0150800Y0061800D01*
X0150800Y0058550D01*
X0150800Y0045800D01*
X0136300Y0032050D01*
X0148300Y0035550D02*
X0152800Y0035550D01*
X0160550Y0043300D01*
X0165550Y0043300D01*
X0165550Y0038050D02*
X0158800Y0038050D01*
X0149300Y0028550D01*
X0102050Y0028550D01*
X0105050Y0035300D02*
X0111300Y0041550D01*
X0116800Y0041550D01*
X0117300Y0060050D02*
X0128050Y0070800D01*
X0139550Y0070800D01*
X0150800Y0061800D02*
X0195800Y0061800D01*
X0185550Y0055300D02*
X0166050Y0055300D01*
X0184800Y0036800D02*
X0189800Y0041800D01*
X0195800Y0041800D01*
X0184800Y0036800D02*
X0184800Y0021300D01*
X0181800Y0018300D01*
X0134050Y0018300D01*
X0113800Y0014550D02*
X0157550Y0014550D01*
X0198300Y0011300D02*
X0199550Y0012550D01*
X0198300Y0011300D02*
X0087050Y0011300D01*
X0085800Y0012550D01*
X0100050Y0017800D02*
X0108300Y0017800D01*
X0073055Y0071055D02*
X0050212Y0071055D01*
X0039188Y0071055D02*
X0039183Y0071050D01*
X0032800Y0071050D01*
X0039188Y0071055D02*
X0039188Y0079674D01*
X0039189Y0079681D01*
X0039193Y0079688D01*
X0039198Y0079693D01*
X0039205Y0079697D01*
X0039212Y0079698D01*
X0039212Y0080300D02*
X0039212Y0088257D01*
X0058550Y0088257D01*
X0058550Y0101050D01*
X0062300Y0104550D02*
X0018550Y0104550D01*
X0018550Y0096550D01*
X0028050Y0096550D02*
X0028050Y0088395D01*
X0028188Y0088257D01*
X0047300Y0084050D02*
X0072800Y0084050D01*
X0072800Y0088550D02*
X0062300Y0088550D01*
X0062300Y0104550D01*
X0061272Y0109571D02*
X0061800Y0110098D01*
X0061800Y0115800D01*
X0071272Y0109571D02*
X0071272Y0094578D01*
X0072800Y0093050D01*
X0076050Y0095800D02*
X0076050Y0119800D01*
X0021800Y0119800D01*
X0021757Y0115843D01*
X0021757Y0130611D01*
X0078300Y0123550D02*
X0078300Y0097050D01*
X0082050Y0093550D01*
X0082050Y0080050D01*
X0073055Y0071055D01*
X0078361Y0082169D02*
X0078361Y0093489D01*
X0076050Y0095800D01*
X0093300Y0083300D02*
X0093300Y0080050D01*
X0094337Y0079013D01*
X0102515Y0079013D01*
X0123550Y0106550D02*
X0119943Y0110157D01*
X0119943Y0112657D01*
X0114907Y0112657D01*
X0110800Y0108050D01*
D24*
X0110800Y0108050D03*
X0119943Y0112657D03*
X0127550Y0112550D03*
X0127550Y0117050D03*
X0120550Y0125300D03*
X0111550Y0116550D03*
X0099050Y0116550D03*
X0099050Y0121050D03*
X0089300Y0124800D03*
X0084300Y0112800D03*
X0095300Y0111800D03*
X0095300Y0104300D03*
X0100050Y0104300D03*
X0089300Y0099300D03*
X0089300Y0094050D03*
X0093300Y0083300D03*
X0078361Y0082169D03*
X0072800Y0084050D03*
X0072800Y0088550D03*
X0072800Y0093050D03*
X0058550Y0101050D03*
X0061800Y0115800D03*
X0067550Y0128300D03*
X0067300Y0136550D03*
X0028050Y0096550D03*
X0018550Y0096550D03*
X0047300Y0084050D03*
X0032800Y0071050D03*
X0018800Y0072800D03*
X0018800Y0063550D03*
X0018800Y0058800D03*
X0045550Y0058300D03*
X0058050Y0059800D03*
X0079550Y0057050D03*
X0086300Y0051550D03*
X0092550Y0051550D03*
X0096050Y0044800D03*
X0088300Y0044800D03*
X0083050Y0041550D03*
X0096050Y0037800D03*
X0105050Y0035300D03*
X0102050Y0028550D03*
X0108800Y0024300D03*
X0100050Y0017800D03*
X0113800Y0014550D03*
X0134050Y0018300D03*
X0136300Y0032050D03*
X0148300Y0035550D03*
X0159800Y0033300D03*
X0165550Y0038050D03*
X0165550Y0043300D03*
X0166050Y0055300D03*
X0150800Y0058550D03*
X0136944Y0057083D03*
X0136944Y0061893D03*
X0139550Y0070800D03*
X0139550Y0079300D03*
X0139550Y0086800D03*
X0119800Y0094050D03*
X0152050Y0114300D03*
X0157300Y0114300D03*
X0155175Y0122675D03*
X0150550Y0127050D03*
X0145050Y0127050D03*
X0174300Y0125550D03*
X0181050Y0127550D03*
X0181050Y0133050D03*
X0194550Y0127550D03*
X0202106Y0138744D03*
X0190050Y0113800D03*
X0182550Y0113800D03*
X0175050Y0110550D03*
X0188300Y0100800D03*
X0195050Y0108050D03*
X0172050Y0099800D03*
X0167550Y0099800D03*
X0163050Y0099800D03*
X0175300Y0092550D03*
X0181800Y0065800D03*
X0185550Y0055300D03*
X0179800Y0028300D03*
X0179800Y0023050D03*
X0165550Y0026800D03*
X0157550Y0014550D03*
X0199550Y0012550D03*
X0116800Y0041550D03*
X0116800Y0048050D03*
X0102050Y0051550D03*
X0117300Y0060050D03*
X0096050Y0071050D03*
X0088300Y0029800D03*
X0075050Y0024550D03*
X0070300Y0024550D03*
X0085800Y0017050D03*
X0085800Y0012550D03*
M02*
